<svg width="15" height="15" viewBox="0 0 15 15" fill="none" xmlns="http://www.w3.org/2000/svg">
<g clip-path="url(#clip0_643_29496)">
<path d="M14.8167 9.55851C14.6995 9.44134 14.5406 9.37552 14.3749 9.37552C14.2091 9.37552 14.0502 9.44134 13.933 9.55851L12.1874 11.3041L10.4417 9.55851C10.3239 9.44466 10.166 9.38167 10.0021 9.38309C9.83824 9.38451 9.68149 9.45024 9.56561 9.56612C9.44973 9.682 9.384 9.83876 9.38257 10.0026C9.38115 10.1665 9.44414 10.3244 9.55799 10.4423L11.3036 12.1879L9.55799 13.9335C9.4983 13.9912 9.45068 14.0601 9.41793 14.1364C9.38517 14.2126 9.36793 14.2946 9.36721 14.3776C9.36649 14.4606 9.3823 14.5429 9.41373 14.6197C9.44515 14.6965 9.49156 14.7663 9.55025 14.825C9.60893 14.8837 9.67871 14.9301 9.75552 14.9615C9.83233 14.9929 9.91463 15.0088 9.99762 15.008C10.0806 15.0073 10.1626 14.9901 10.2389 14.9573C10.3151 14.9246 10.3841 14.8769 10.4417 14.8173L12.1874 13.0716L13.933 14.8173C14.0509 14.9311 14.2087 14.9941 14.3726 14.9927C14.5365 14.9912 14.6932 14.9255 14.8091 14.8096C14.925 14.6938 14.9907 14.537 14.9922 14.3731C14.9936 14.2093 14.9306 14.0514 14.8167 13.9335L13.0711 12.1879L14.8167 10.4423C14.9339 10.3251 14.9997 10.1661 14.9997 10.0004C14.9997 9.83466 14.9339 9.67571 14.8167 9.55851Z" fill="#EB3C3C"/>
<path d="M7.5 13.75C6.26387 13.75 5.0555 13.3834 4.02769 12.6967C2.99988 12.0099 2.1988 11.0338 1.72576 9.89178C1.25271 8.74974 1.12894 7.49307 1.3701 6.28069C1.61125 5.06831 2.20651 3.95466 3.08059 3.08059C3.95466 2.20651 5.06831 1.61125 6.28069 1.3701C7.49307 1.12894 8.74974 1.25271 9.89178 1.72576C11.0338 2.1988 12.0099 2.99988 12.6967 4.02769C13.3834 5.0555 13.75 6.26387 13.75 7.5C13.75 7.66576 13.8159 7.82474 13.9331 7.94195C14.0503 8.05916 14.2092 8.125 14.375 8.125C14.5408 8.125 14.6997 8.05916 14.8169 7.94195C14.9342 7.82474 15 7.66576 15 7.5C15 6.01664 14.5601 4.5666 13.736 3.33323C12.9119 2.09986 11.7406 1.13856 10.3701 0.570907C8.99968 0.00324965 7.49168 -0.145275 6.03683 0.144114C4.58197 0.433503 3.2456 1.14781 2.1967 2.1967C1.14781 3.2456 0.433503 4.58197 0.144114 6.03683C-0.145275 7.49168 0.00324965 8.99968 0.570907 10.3701C1.13856 11.7406 2.09986 12.9119 3.33323 13.736C4.5666 14.5601 6.01664 15 7.5 15C7.66576 15 7.82474 14.9342 7.94195 14.8169C8.05916 14.6997 8.125 14.5408 8.125 14.375C8.125 14.2092 8.05916 14.0503 7.94195 13.9331C7.82474 13.8159 7.66576 13.75 7.5 13.75Z" fill="#EB3C3C"/>
<path d="M7.50035 3.75C7.33459 3.75 7.17562 3.81585 7.05841 3.93306C6.9412 4.05027 6.87535 4.20924 6.87535 4.375V7.24125L5.18348 8.93312C5.12379 8.99077 5.07617 9.05974 5.04342 9.13599C5.01066 9.21224 4.99342 9.29425 4.9927 9.37724C4.99198 9.46023 5.00779 9.54253 5.03922 9.61934C5.07064 9.69615 5.11705 9.76593 5.17573 9.82461C5.23442 9.8833 5.3042 9.9297 5.38101 9.96113C5.45782 9.99256 5.54012 10.0084 5.6231 10.0076C5.70609 10.0069 5.7881 9.98969 5.86436 9.95693C5.94061 9.92417 6.00957 9.87656 6.06723 9.81687L7.94222 7.94187C8.05944 7.82469 8.12531 7.66574 8.12535 7.49999V4.375C8.12535 4.20924 8.0595 4.05027 7.94229 3.93306C7.82508 3.81585 7.66611 3.75 7.50035 3.75Z" fill="#EB3C3C"/>
</g>
<defs>
<clipPath id="clip0_643_29496">
<rect width="15" height="15" fill="white"/>
</clipPath>
</defs>
</svg>
