<svg width="187" height="134" viewBox="0 0 187 134" fill="none" xmlns="http://www.w3.org/2000/svg">
<path d="M6.99587 100.603L5.299 106.278H0L7.13281 84.9625H13.8905L21.3568 106.278H15.7779L13.8965 100.603H6.99587ZM13.057 96.8882L11.5268 92.3334C11.1041 91.0831 10.6992 89.6661 10.3301 88.4753H10.2646C9.9252 89.678 9.59774 91.095 9.21669 92.3394L7.77584 96.8882H13.051H13.057Z" fill="white"/>
<path d="M27.5318 84.9685H32.5748V102.068H42.0653V106.284H27.5318V84.9685Z" fill="white"/>
<path d="M53.8706 100.603L52.1737 106.278H46.8687L54.0015 84.9625H60.7593L68.2255 106.278H62.6466L60.7652 100.603H53.8706ZM59.9317 96.8882L58.4015 92.3334C57.9788 91.0831 57.5739 89.6661 57.2048 88.4753H57.1393C56.7999 89.678 56.4724 91.095 56.0914 92.3394L54.6505 96.8882H59.9257H59.9317Z" fill="white"/>
<path d="M79.8662 100.603L78.1693 106.278H72.8644L79.9972 84.9625H86.7549L94.2211 106.278H88.6423L86.7608 100.603H79.8662ZM85.9273 96.8882L84.3971 92.3334C83.9744 91.0831 83.5695 89.6661 83.2004 88.4753H83.1349C82.7955 89.678 82.468 91.095 82.087 92.3394L80.6461 96.8882H85.9213H85.9273Z" fill="white"/>
<path d="M100.4 85.2483C102.807 84.9167 105.234 84.7575 107.664 84.772C112.159 84.772 115.059 85.5579 117.327 87.1893C119.673 88.8445 121.209 91.369 121.209 95.0187C121.209 99.0257 119.607 101.77 117.494 103.521C114.987 105.551 111.111 106.516 106.556 106.516C104.499 106.544 102.442 106.43 100.4 106.176V85.2483ZM105.443 102.539C106.105 102.615 106.771 102.645 107.438 102.628C112.588 102.675 115.839 100.115 115.839 95.2807C115.85 90.8391 112.772 88.6183 108.087 88.6183C107.201 88.6033 106.316 88.6731 105.443 88.8266V102.539Z" fill="white"/>
<path d="M127.754 85.2483C130.161 84.9167 132.588 84.7575 135.018 84.772C139.513 84.772 142.413 85.5579 144.681 87.1893C147.027 88.8445 148.563 91.369 148.563 95.0187C148.563 99.0257 146.961 101.77 144.848 103.521C142.341 105.551 138.465 106.516 133.91 106.516C131.853 106.544 129.796 106.43 127.754 106.176V85.2483ZM132.797 102.539C133.459 102.615 134.125 102.645 134.792 102.628C139.942 102.675 143.193 100.115 143.193 95.2807C143.204 90.8391 140.126 88.6183 135.441 88.6183C134.555 88.6033 133.669 88.6731 132.797 88.8266V102.539Z" fill="white"/>
<path d="M160.155 84.9685V106.284H155.112V84.9685H160.155Z" fill="white"/>
<path d="M167.698 106.284V84.9685H173.914L178.719 92.6074C180.208 95.0621 181.506 97.6279 182.601 100.282L182.69 100.27C182.393 97.4183 182.268 94.5513 182.315 91.6845V84.9685H187.001V106.284H181.535L176.522 98.0433C174.977 95.486 173.571 92.8464 172.313 90.1365L172.193 90.1484C172.354 93.2028 172.384 96.1262 172.384 99.3353V106.284H167.698Z" fill="white"/>
<path d="M62.5469 119.121V127.617H64.6486V129.677H62.4933C62.4305 130.283 62.236 130.869 61.9234 131.392C61.6107 131.916 61.1875 132.365 60.6833 132.707C59.6081 133.43 58.3347 133.801 57.0395 133.767C55.6952 133.788 54.3857 133.339 53.3362 132.499C52.8069 132.076 52.3858 131.533 52.1073 130.915C51.8289 130.297 51.7011 129.622 51.7346 128.945V121.05H53.8065V128.945C53.7908 129.338 53.8722 129.729 54.0435 130.083C54.2149 130.437 54.4709 130.743 54.7889 130.975C55.4803 131.453 56.3012 131.708 57.1417 131.707C57.9822 131.706 58.8023 131.449 59.4925 130.969C59.8135 130.739 60.0724 130.434 60.2459 130.079C60.4195 129.725 60.5023 129.333 60.4868 128.939V119.115H62.5588L62.5469 119.121ZM56.1822 116.501C56.079 116.245 56.079 115.959 56.1822 115.703C56.2372 115.579 56.3138 115.466 56.4084 115.37C56.5026 115.272 56.6161 115.195 56.7418 115.143C56.9059 115.085 57.0798 115.058 57.2539 115.066C57.373 115.071 57.4896 115.102 57.5963 115.155C57.7029 115.208 57.7972 115.284 57.8731 115.376C58.0639 115.569 58.1709 115.83 58.1709 116.102C58.1709 116.374 58.0639 116.635 57.8731 116.828C57.7946 116.916 57.6995 116.988 57.5932 117.039C57.487 117.09 57.3716 117.12 57.2539 117.126C57.0798 117.134 56.9059 117.107 56.7418 117.049C56.4916 116.945 56.2911 116.749 56.1822 116.501Z" fill="#BFA274"/>
<path d="M63.7548 127.617H68.4287V129.677H63.7548V127.617Z" fill="#BFA274"/>
<path d="M67.5132 127.617H72.187V129.677H67.5132V127.617Z" fill="#BFA274"/>
<path d="M76.807 119.12V126.289C76.814 126.733 76.7311 127.174 76.5633 127.585C76.3955 127.997 76.1463 128.37 75.8305 128.682C75.5256 129.003 75.1577 129.256 74.7498 129.428C74.342 129.599 73.9031 129.683 73.4609 129.677H71.252V127.617H73.4609C73.6339 127.619 73.8056 127.586 73.9653 127.519C74.125 127.453 74.2695 127.354 74.3897 127.23C74.5148 127.107 74.6137 126.961 74.6802 126.799C74.7468 126.637 74.7796 126.464 74.7767 126.289V119.12H76.801H76.807ZM71.77 133.154C71.6668 132.898 71.6668 132.612 71.77 132.356C71.8228 132.231 71.8997 132.118 71.9962 132.022C72.0909 131.928 72.2018 131.851 72.3237 131.796C72.4497 131.743 72.5856 131.716 72.7226 131.719C72.8595 131.717 72.9953 131.743 73.1215 131.796C73.3726 131.904 73.5729 132.105 73.6812 132.356C73.7843 132.612 73.7843 132.898 73.6812 133.154C73.6297 133.278 73.5526 133.389 73.4549 133.481C73.3579 133.574 73.2449 133.649 73.1215 133.701C72.8656 133.805 72.5796 133.805 72.3237 133.701C72.2013 133.65 72.09 133.575 71.9962 133.481C71.9004 133.388 71.8236 133.276 71.77 133.154ZM74.8184 133.154C74.7152 132.898 74.7152 132.612 74.8184 132.356C74.8734 132.232 74.95 132.119 75.0446 132.022C75.1388 131.925 75.2524 131.848 75.378 131.796C75.5421 131.737 75.716 131.711 75.8901 131.719C76.0092 131.724 76.1258 131.755 76.2325 131.808C76.3391 131.861 76.4334 131.936 76.5093 132.028C76.7001 132.222 76.8071 132.483 76.8071 132.755C76.8071 133.027 76.7001 133.288 76.5093 133.481C76.4308 133.569 76.3357 133.641 76.2294 133.692C76.1232 133.743 76.0078 133.773 75.8901 133.779C75.716 133.787 75.5421 133.76 75.378 133.701C75.1278 133.598 74.9273 133.402 74.8184 133.154Z" fill="#BFA274"/>
<path d="M79.7488 119.12C83.3807 119.12 85.4685 119.739 86.0123 120.978C86.4823 121.93 86.7595 122.966 86.828 124.026V127.617H88.9178V129.677H79.1712V127.617H84.756V124.02C84.756 122.127 83.0869 121.18 79.7488 121.18V119.12Z" fill="#BFA274"/>
<path d="M87.9993 127.617H92.6731V129.677H87.9993V127.617Z" fill="#BFA274"/>
<path d="M96.1276 115.024V126.295C96.1245 127.192 95.7664 128.051 95.1315 128.685C94.4967 129.318 93.6368 129.675 92.7399 129.677H91.7694V127.617H92.7339C92.9087 127.619 93.0822 127.586 93.2439 127.519C93.4055 127.453 93.5521 127.354 93.6746 127.23C93.8002 127.11 93.8995 126.966 93.9661 126.806C94.0327 126.646 94.0653 126.474 94.0616 126.301V115.03H96.1336L96.1276 115.024Z" fill="#BFA274"/>
<path d="M100.473 115.024V129.671H98.4007V115.024H100.473Z" fill="#BFA274"/>
<path d="M108.66 127.616C108.102 126.614 107.816 125.483 107.833 124.336C107.813 123.186 108.213 122.068 108.958 121.192C109.708 120.305 110.857 119.841 112.405 119.817H114.608V121.877H112.465C112.109 121.883 111.757 121.961 111.432 122.106C111.106 122.251 110.814 122.461 110.572 122.722C110.127 123.233 109.889 123.891 109.905 124.568C109.904 125.291 110.082 126.003 110.423 126.64C110.768 127.295 111.173 127.622 111.649 127.622H116.496V129.682H106.291V127.622H108.666L108.66 127.616Z" fill="#BFA274"/>
<path d="M122.806 119.12V127.617H127.349V115.024H129.421V127.617H131.523V129.677H118.793V127.617H120.74V119.12H122.812H122.806Z" fill="#BFA274"/>
<path d="M130.607 127.617H135.281V129.677H130.607V127.617Z" fill="#BFA274"/>
<path d="M138.538 123.836V127.617H144.658V129.677H134.364V127.617H136.466V123.836C136.457 123.214 136.573 122.598 136.806 122.022C137.04 121.446 137.386 120.922 137.825 120.482C138.264 120.042 138.786 119.694 139.362 119.46C139.937 119.225 140.554 119.107 141.175 119.114C141.994 119.124 142.8 119.326 143.527 119.704L142.699 121.591C142.225 121.349 141.706 121.207 141.175 121.175C140.825 121.172 140.477 121.24 140.154 121.375C139.831 121.51 139.538 121.709 139.294 121.96C139.045 122.206 138.849 122.501 138.718 122.825C138.587 123.15 138.523 123.498 138.532 123.848L138.538 123.836Z" fill="#BFA274"/>
<path d="M153.409 3.53664C152.873 2.28631 152.457 0.887136 151.141 0C148.861 1.32177 146.628 2.60782 144.371 3.91769C144.752 4.63811 145.056 5.13824 145.294 5.66814C146.806 8.99044 147.384 12.4497 145.491 15.7184C142.561 20.7614 137.852 23.524 132.422 25.2685C132.195 24.6612 132.011 24.2563 131.898 23.8276C130.332 18.1238 126.599 14.3609 121.318 11.9734C116.293 9.70491 110.97 9.38935 105.617 9.9133C102.361 10.1902 99.172 10.9946 96.1742 12.2949C96.8946 14.3847 97.6389 16.3912 98.264 18.4334C98.6093 19.5527 99.2405 19.8325 100.27 19.5051C102.607 18.8056 105.006 18.333 107.433 18.094C111.857 17.576 116.031 18.2369 119.799 20.5768C122.181 22.0534 123.812 24.2146 124.045 27.0963C123.306 27.8108 122.526 27.6322 121.806 27.6441C118.93 27.6917 116.084 27.9597 113.179 27.781C109.704 27.5868 106.244 27.1992 102.813 26.62C94.7274 25.2209 86.8265 23 78.9078 20.8685C68.149 17.969 57.4974 14.6407 46.2862 13.6643C42.0886 13.2438 37.8513 13.4728 33.7234 14.343C31.324 14.8729 28.8471 15.5219 26.793 17.2724C28.0613 19.6428 29.4545 21.9442 30.9667 24.167C33.5865 22.8869 35.9859 21.8867 38.7545 21.7497C43.4224 21.5294 47.6973 22.7262 51.8412 24.685C58.6049 27.8823 64.4576 32.443 70.3401 36.962C75.8058 41.1595 81.075 45.619 86.7372 49.5605C88.7556 50.9657 90.768 52.3886 93.0365 53.9843C86.7463 55.9422 80.2622 57.2118 73.6981 57.771C74.1744 60.6884 75.3592 63.2248 76.1868 65.9458H127.141C127.938 63.2784 129.052 60.7956 129.504 57.9079C126.646 57.4554 123.866 57.1637 121.163 56.5564C118.507 55.9551 115.804 55.3954 113.214 54.1212C113.431 53.9309 113.658 53.752 113.893 53.5854C121.222 48.983 127.718 43.5887 131.112 35.283C131.261 34.913 131.501 34.5868 131.81 34.3348C132.12 34.0829 132.488 33.9134 132.88 33.8421C139.215 31.925 144.919 28.9361 149.557 24.0479C155.047 18.2607 156.565 10.8362 153.433 3.52473L153.409 3.53664ZM114.703 43.0231C111.553 45.5012 108.146 47.6331 104.539 49.3819C104.134 49.6194 103.672 49.7426 103.202 49.7384C102.733 49.7342 102.273 49.6028 101.872 49.3581C96.1922 46.292 90.772 42.7675 85.6655 38.8196C81.2298 35.4735 76.937 31.9369 72.5907 28.4717C72.3752 28.245 72.18 28 72.0072 27.7394C88.19 32.0262 104.027 36.9441 120.954 36.3428C119.213 38.8651 117.108 41.1162 114.709 43.0231H114.703Z" fill="#BFA274"/>
<path d="M123.544 49.0784C123.806 49.8203 124.128 50.5392 124.509 51.2277C131.63 51.0729 138.766 50.9201 145.919 50.7693V50.6621C138.524 50.1382 131.124 49.6202 123.544 49.0843V49.0784Z" fill="#475669"/>
<path d="M127.713 43.7198C127.974 44.4617 128.297 45.1806 128.677 45.8692C135.798 45.7144 142.935 45.5616 150.088 45.4107V45.3036C142.693 44.7796 135.292 44.2616 127.713 43.7258V43.7198Z" fill="#475669"/>
<path d="M132.476 38.3613C132.737 39.1032 133.06 39.8221 133.44 40.5107C140.561 40.3559 147.698 40.203 154.851 40.0522V39.945C147.456 39.4211 140.055 38.9031 132.476 38.3673V38.3613Z" fill="#475669"/>
<path d="M112.208 76.6746C114.674 76.6746 116.674 74.6754 116.674 72.2092C116.674 69.743 114.674 67.7437 112.208 67.7437C109.742 67.7437 107.743 69.743 107.743 72.2092C107.743 74.6754 109.742 76.6746 112.208 76.6746Z" fill="#BFA274"/>
<path d="M91.9644 76.6746C94.4306 76.6746 96.4299 74.6754 96.4299 72.2092C96.4299 69.743 94.4306 67.7437 91.9644 67.7437C89.4982 67.7437 87.499 69.743 87.499 72.2092C87.499 74.6754 89.4982 76.6746 91.9644 76.6746Z" fill="#BFA274"/>
</svg>
