<svg width="27" height="27" viewBox="0 0 27 27" fill="none" xmlns="http://www.w3.org/2000/svg">
<circle cx="13.5" cy="13.5" r="13.5" fill="#BFA274"/>
<path d="M15.1999 11.19L11.8999 11.6448L11.7821 12.2472L12.4314 12.3768C12.8537 12.4884 12.9377 12.6552 12.8461 13.1196L11.7821 18.612C11.5038 20.0316 11.9349 20.7 12.9465 20.7C13.7322 20.7 14.6423 20.3016 15.0559 19.7532L15.1825 19.0944C14.8955 19.3728 14.4731 19.4844 14.1949 19.4844C13.7987 19.4844 13.6558 19.1784 13.7562 18.6396L15.1999 11.19ZM15.2992 7.88399C15.2992 8.30409 15.1475 8.70699 14.8773 9.00404C14.6072 9.3011 14.2408 9.46799 13.8588 9.46799C13.4767 9.46799 13.1103 9.3011 12.8402 9.00404C12.5701 8.70699 12.4183 8.30409 12.4183 7.88399C12.4183 7.46388 12.5701 7.06099 12.8402 6.76393C13.1103 6.46687 13.4767 6.29999 13.8588 6.29999C14.2408 6.29999 14.6072 6.46687 14.8773 6.76393C15.1475 7.06099 15.2992 7.46388 15.2992 7.88399Z" fill="white"/>
</svg>
