<svg width="16" height="19" viewBox="0 0 16 19" fill="none" xmlns="http://www.w3.org/2000/svg">
<path d="M14.5455 17.6429H10.0491C10.8044 17.0136 11.5167 16.3408 12.1818 15.6283C14.6773 12.9505 16 10.1277 16 7.46429C16 5.48463 15.1571 3.58606 13.6569 2.18624C12.1566 0.786414 10.1217 0 8 0C5.87827 0 3.84344 0.786414 2.34315 2.18624C0.842855 3.58606 0 5.48463 0 7.46429C0 10.1277 1.31909 12.9505 3.81818 15.6283C4.48328 16.3408 5.19559 17.0136 5.95091 17.6429H1.45455C1.26166 17.6429 1.07668 17.7143 0.940286 17.8416C0.803896 17.9689 0.727273 18.1415 0.727273 18.3214C0.727273 18.5014 0.803896 18.674 0.940286 18.8013C1.07668 18.9285 1.26166 19 1.45455 19H14.5455C14.7383 19 14.9233 18.9285 15.0597 18.8013C15.1961 18.674 15.2727 18.5014 15.2727 18.3214C15.2727 18.1415 15.1961 17.9689 15.0597 17.8416C14.9233 17.7143 14.7383 17.6429 14.5455 17.6429ZM1.45455 7.46429C1.45455 5.84457 2.14415 4.29119 3.37166 3.14588C4.59918 2.00057 6.26404 1.35714 8 1.35714C9.73596 1.35714 11.4008 2.00057 12.6283 3.14588C13.8558 4.29119 14.5455 5.84457 14.5455 7.46429C14.5455 12.3186 9.50273 16.3705 8 17.4732C6.49727 16.3705 1.45455 12.3186 1.45455 7.46429ZM11.6364 7.46429C11.6364 6.79324 11.4231 6.13727 11.0235 5.57932C10.624 5.02136 10.056 4.58649 9.39158 4.32969C8.72712 4.0729 7.99597 4.00571 7.29058 4.13662C6.5852 4.26754 5.93726 4.59067 5.4287 5.06517C4.92015 5.53967 4.57382 6.14422 4.43351 6.80237C4.2932 7.46052 4.36521 8.14271 4.64044 8.76268C4.91567 9.38264 5.38175 9.91253 5.97974 10.2853C6.57774 10.6582 7.2808 10.8571 8 10.8571C8.96442 10.8571 9.88935 10.4997 10.5713 9.8634C11.2532 9.22711 11.6364 8.36413 11.6364 7.46429ZM5.81818 7.46429C5.81818 7.06166 5.94614 6.66807 6.18588 6.3333C6.42563 5.99853 6.76638 5.73761 7.16505 5.58353C7.56373 5.42945 8.00242 5.38914 8.42565 5.46769C8.84888 5.54624 9.23765 5.74012 9.54278 6.02482C9.84791 6.30952 10.0557 6.67225 10.1399 7.06714C10.2241 7.46203 10.1809 7.87134 10.0157 8.24332C9.8506 8.6153 9.57095 8.93323 9.21215 9.15692C8.85335 9.38061 8.43152 9.5 8 9.5C7.42135 9.5 6.86639 9.28552 6.45722 8.90375C6.04805 8.52198 5.81818 8.00419 5.81818 7.46429Z" fill="#BFA274"/>
</svg>
