<svg width="13" height="13" viewBox="0 0 13 13" fill="none" xmlns="http://www.w3.org/2000/svg">
<path d="M0.541712 5.41603C0.398041 5.41603 0.260254 5.35896 0.158664 5.25737C0.0570731 5.15578 0 5.01799 0 4.87432V0.541712C0 0.398041 0.0570731 0.260254 0.158664 0.158664C0.260254 0.0570731 0.398041 0 0.541712 0H4.87541C5.01908 0 5.15686 0.0570731 5.25845 0.158664C5.36004 0.260254 5.41712 0.398041 5.41712 0.541712V4.87432C5.41712 5.01799 5.36004 5.15578 5.25845 5.25737C5.15686 5.35896 5.01908 5.41603 4.87541 5.41603H0.541712ZM8.12568 5.41603C7.98201 5.41603 7.84422 5.35896 7.74263 5.25737C7.64104 5.15578 7.58397 5.01799 7.58397 4.87432V0.541712C7.58397 0.398041 7.64104 0.260254 7.74263 0.158664C7.84422 0.0570731 7.98201 0 8.12568 0H12.4583C12.602 0 12.7397 0.0570731 12.8413 0.158664C12.9429 0.260254 13 0.398041 13 0.541712V4.87432C13 5.01799 12.9429 5.15578 12.8413 5.25737C12.7397 5.35896 12.602 5.41603 12.4583 5.41603H8.12568ZM0.541712 13C0.398041 13 0.260254 12.9429 0.158664 12.8413C0.0570731 12.7397 0 12.602 0 12.4583V8.12459C0 7.98092 0.0570731 7.84314 0.158664 7.74155C0.260254 7.63995 0.398041 7.58288 0.541712 7.58288H4.87541C5.01908 7.58288 5.15686 7.63995 5.25845 7.74155C5.36004 7.84314 5.41712 7.98092 5.41712 8.12459V12.4583C5.41712 12.602 5.36004 12.7397 5.25845 12.8413C5.15686 12.9429 5.01908 13 4.87541 13H0.541712ZM8.12568 13C7.98201 13 7.84422 12.9429 7.74263 12.8413C7.64104 12.7397 7.58397 12.602 7.58397 12.4583V8.12459C7.58397 7.98092 7.64104 7.84314 7.74263 7.74155C7.84422 7.63995 7.98201 7.58288 8.12568 7.58288H12.4583C12.602 7.58288 12.7397 7.63995 12.8413 7.74155C12.9429 7.84314 13 7.98092 13 8.12459V12.4583C13 12.602 12.9429 12.7397 12.8413 12.8413C12.7397 12.9429 12.602 13 12.4583 13H8.12568Z" fill="#BFA274"/>
</svg>
