<svg width="21" height="25" viewBox="0 0 21 25" fill="none" xmlns="http://www.w3.org/2000/svg">
<path d="M20.4215 8.39202C19.6116 8.66588 18.9366 9.30164 18.3967 10.2993C17.8567 11.2969 17.5868 12.2848 17.5868 13.2629C17.5868 14.4757 17.8953 15.6005 18.5124 16.6373C19.1295 17.6741 19.9587 18.3294 21 18.6033C20.6915 19.6596 20.1804 20.7453 19.4669 21.8603C18.7534 22.9754 18.0303 23.8067 17.2975 24.3545C16.6804 24.7848 15.9091 25 14.9835 25C14.3664 25 13.6529 24.8435 12.843 24.5305C12.1488 24.1784 11.551 24.0023 11.0496 24.0023C10.6639 24.0023 9.89256 24.2371 8.73554 24.7066C8.04132 24.9022 7.53995 25 7.2314 25C6.30579 25 5.36088 24.6088 4.39669 23.8263C3.00826 22.4961 1.92837 20.9116 1.15702 19.0728C0.385675 17.234 0 15.3169 0 13.3216C0 11.248 0.588154 9.41901 1.76446 7.83451C2.94077 6.25 4.43526 5.45775 6.24793 5.45775C7.25069 5.45775 8.17631 5.67293 9.02479 6.10329C9.68044 6.53365 10.3361 6.74883 10.9917 6.74883C11.6088 6.74883 12.2066 6.63146 12.7851 6.39671C14.2893 5.77074 15.292 5.45775 15.7934 5.45775C17.1433 5.45775 18.3196 5.90767 19.3223 6.80751C19.7851 7.277 20.1515 7.80516 20.4215 8.39202ZM10.3554 5.6338C10.3554 4.38185 10.8375 3.14945 11.8017 1.93662C12.7658 0.880282 13.9421 0.234742 15.3306 0C15.3306 1.4867 14.8678 2.79734 13.9421 3.93192C12.9008 5.06651 11.7052 5.6338 10.3554 5.6338Z" fill="#F9FAFB"/>
</svg>
