<svg width="18" height="18" viewBox="0 0 18 18" fill="none" xmlns="http://www.w3.org/2000/svg">
<path d="M9 17.1154H9.00057C11.152 17.1129 13.2146 16.2572 14.7359 14.7359C16.2572 13.2146 17.1129 11.152 17.1154 9.00057V9C17.1154 7.39493 16.6394 5.8259 15.7477 4.49133C14.856 3.15676 13.5885 2.1166 12.1056 1.50236C10.6227 0.888128 8.991 0.727416 7.41677 1.04055C5.84254 1.35368 4.39652 2.1266 3.26156 3.26156C2.1266 4.39651 1.35369 5.84254 1.04055 7.41677C0.72742 8.991 0.888132 10.6227 1.50237 12.1056C2.1166 13.5885 3.15677 14.856 4.49134 15.7477C5.8259 16.6394 7.39493 17.1154 9 17.1154ZM6.18377 7.71694L6.46156 8.13268L6.18377 7.71694C6.09522 7.77611 5.99112 7.80769 5.88462 7.80769C5.74181 7.80769 5.60485 7.75096 5.50387 7.64998C5.40289 7.549 5.34616 7.41204 5.34616 7.26923C5.34616 7.16273 5.37774 7.05863 5.4369 6.97008C5.49607 6.88153 5.58017 6.81251 5.67856 6.77176C5.77695 6.731 5.88522 6.72034 5.98967 6.74111C6.09412 6.76189 6.19006 6.81317 6.26537 6.88848C6.34067 6.96378 6.39196 7.05973 6.41273 7.16418C6.43351 7.26863 6.42285 7.3769 6.38209 7.47529C6.34134 7.57368 6.27232 7.65778 6.18377 7.71694ZM5.23592 11.1731L5.22592 11.1558L5.21456 11.1393C5.19951 11.1175 5.18914 11.0928 5.1841 11.0667C5.17906 11.0407 5.17945 11.0139 5.18527 10.988C5.19108 10.9621 5.20218 10.9377 5.21787 10.9164C5.23356 10.895 5.25351 10.8771 5.27645 10.8638C5.29939 10.8505 5.32484 10.8421 5.35119 10.8391C5.37754 10.8361 5.40422 10.8386 5.42956 10.8464C5.45491 10.8542 5.47836 10.8672 5.49845 10.8845C5.51853 10.9018 5.53482 10.9231 5.54629 10.947L5.5547 10.9645L5.56445 10.9814C5.91327 11.5836 6.41429 12.0836 7.01727 12.4312C7.62025 12.7788 8.30401 12.9617 9 12.9617C9.69599 12.9617 10.3797 12.7788 10.9827 12.4312C11.5781 12.088 12.0741 11.5962 12.4223 11.0041C12.4495 10.9698 12.4878 10.9457 12.5307 10.936C12.578 10.9254 12.6275 10.933 12.6693 10.9573C12.7112 10.9816 12.7424 11.0208 12.7567 11.067C12.7696 11.1089 12.7678 11.1538 12.7518 11.1943C12.3709 11.8457 11.8269 12.3867 11.1733 12.7642C10.5125 13.1457 9.76298 13.3465 9 13.3465C8.23703 13.3465 7.48749 13.1457 6.82675 12.7642C6.16601 12.3826 5.61735 11.8339 5.23592 11.1731ZM4.27766 1.93251C5.67534 0.998604 7.31855 0.500094 8.99953 0.5C11.2526 0.504446 13.4122 1.40145 15.0054 2.99464C16.5987 4.58795 17.4957 6.74769 17.5 9.00096C17.4998 10.6818 17.0013 12.3248 16.0675 13.7223C15.1335 15.1202 13.806 16.2096 12.2528 16.853C10.6996 17.4963 8.99057 17.6646 7.34173 17.3367C5.6929 17.0087 4.17834 16.1992 2.9896 15.0104C1.80085 13.8217 0.991303 12.3071 0.663329 10.6583C0.335355 9.00943 0.503683 7.30036 1.14703 5.74719C1.79037 4.19402 2.87984 2.8665 4.27766 1.93251ZM11.5769 7.26923C11.5769 7.16273 11.6085 7.05863 11.6677 6.97008C11.7268 6.88153 11.8109 6.81251 11.9093 6.77176C12.0077 6.731 12.116 6.72034 12.2204 6.74111C12.3249 6.76189 12.4208 6.81317 12.4961 6.88848C12.5714 6.96379 12.6227 7.05973 12.6435 7.16418C12.6643 7.26863 12.6536 7.3769 12.6129 7.47529C12.5721 7.57368 12.5031 7.65778 12.4145 7.71694C12.326 7.77611 12.2219 7.80769 12.1154 7.80769C11.9726 7.80769 11.8356 7.75096 11.7346 7.64998C11.6337 7.549 11.5769 7.41204 11.5769 7.26923Z" fill="#707070" stroke="#7A808A"/>
</svg>
