<svg width="18" height="19" viewBox="0 0 18 19" fill="none" xmlns="http://www.w3.org/2000/svg">
<path d="M13.5722 5.42778L8.94386 0.773809L4.26429 5.42778M8.94386 0.798242V14.7357M5.42778 8.91826H3.1008C2.48364 8.91826 1.89176 9.16343 1.45537 9.59982C1.01897 10.0362 0.773809 10.6281 0.773809 11.2452V15.8992C0.773809 16.5164 1.01897 17.1083 1.45537 17.5447C1.89176 17.981 2.48364 18.2262 3.1008 18.2262H14.7357C15.3529 18.2262 15.9448 17.981 16.3812 17.5447C16.8176 17.1083 17.0627 16.5164 17.0627 15.8992V11.2452C17.0627 10.6281 16.8176 10.0362 16.3812 9.59982C15.9448 9.16343 15.3529 8.91826 14.7357 8.91826H12.4087" stroke="#1A232B" stroke-width="1.5" stroke-linecap="round" stroke-linejoin="round"/>
</svg>
