<svg width="22" height="22" viewBox="0 0 22 22" fill="none" xmlns="http://www.w3.org/2000/svg">
<path d="M2.29102 11C2.29102 6.89487 2.29102 4.8423 3.56632 3.56699C4.84163 2.29169 6.8942 2.29169 10.9993 2.29169C15.1045 2.29169 17.1571 2.29169 18.4324 3.56699C19.7077 4.8423 19.7077 6.89487 19.7077 11C19.7077 15.1052 19.7077 17.1577 18.4324 18.433C17.1571 19.7084 15.1045 19.7084 10.9993 19.7084C6.8942 19.7084 4.84163 19.7084 3.56632 18.433C2.29102 17.1577 2.29102 15.1052 2.29102 11Z" stroke="#BFA274" stroke-width="1.5"/>
<path d="M7.33203 12.6042C7.33203 12.6042 8.7987 13.4406 9.53203 14.6667C9.53203 14.6667 11.732 9.85417 14.6654 8.25" stroke="#BFA274" stroke-width="1.5" stroke-linecap="round" stroke-linejoin="round"/>
</svg>
