<svg width="90" height="65" viewBox="0 0 90 65" fill="none" xmlns="http://www.w3.org/2000/svg">
<path d="M3.36706 48.4197L2.55037 51.1506H0L3.43297 40.8918H6.68541L10.2788 51.1506H7.5938L6.68827 48.4197H3.36706ZM6.28423 46.6316L5.54777 44.4394C5.34431 43.8376 5.14945 43.1556 4.97179 42.5825H4.94027C4.77693 43.1614 4.61932 43.8434 4.43592 44.4423L3.74245 46.6316H6.28136H6.28423Z" fill="white"/>
<path d="M13.2503 40.8947H15.6774V49.1247H20.2452V51.1535H13.2503V40.8947Z" fill="white"/>
<path d="M25.9271 48.4197L25.1104 51.1506H22.5571L25.9901 40.8918H29.2425L32.836 51.1506H30.1509L29.2454 48.4197H25.9271ZM28.8442 46.6316L28.1078 44.4394C27.9043 43.8376 27.7095 43.1556 27.5318 42.5825H27.5003C27.3369 43.1614 27.1793 43.8434 26.9959 44.4423L26.3024 46.6316H28.8414H28.8442Z" fill="white"/>
<path d="M38.439 48.4197L37.6224 51.1506H35.0691L38.5021 40.8918H41.7545L45.348 51.1506H42.6629L41.7574 48.4197H38.439ZM41.3562 46.6316L40.6198 44.4394C40.4163 43.8376 40.2214 43.1556 40.0438 42.5825H40.0123C39.8489 43.1614 39.6913 43.8434 39.5079 44.4423L38.8144 46.6316H41.3533H41.3562Z" fill="white"/>
<path d="M48.3233 41.0294C49.4817 40.8698 50.65 40.7932 51.8193 40.8002C53.9828 40.8002 55.3784 41.1784 56.4702 41.9636C57.5992 42.7602 58.3385 43.9752 58.3385 45.7318C58.3385 47.6604 57.5677 48.9814 56.5504 49.8239C55.344 50.801 53.4785 51.2653 51.2863 51.2653C50.2961 51.2787 49.3061 51.2241 48.3233 51.1019V41.0294ZM50.7505 49.3511C51.069 49.388 51.3898 49.4023 51.7104 49.394C54.1892 49.417 55.7538 48.1848 55.7538 45.8579C55.7595 43.7202 54.278 42.6513 52.0228 42.6513C51.5964 42.6441 51.1704 42.6777 50.7505 42.7516V49.3511Z" fill="white"/>
<path d="M61.4857 41.0294C62.6441 40.8698 63.8124 40.7932 64.9817 40.8002C67.1452 40.8002 68.5408 41.1784 69.6326 41.9636C70.7616 42.7602 71.5009 43.9752 71.5009 45.7318C71.5009 47.6604 70.7301 48.9814 69.7128 49.8239C68.5064 50.801 66.6409 51.2653 64.4487 51.2653C63.4585 51.2787 62.4685 51.2241 61.4857 51.1019V41.0294ZM63.9129 49.3511C64.2314 49.388 64.5522 49.4023 64.8728 49.394C67.3516 49.417 68.9162 48.1848 68.9162 45.8579C68.9219 43.7202 67.4404 42.6513 65.1852 42.6513C64.7588 42.6441 64.3328 42.6777 63.9129 42.7516V49.3511Z" fill="white"/>
<path d="M77.0811 40.8947V51.1535H74.654V40.8947H77.0811Z" fill="white"/>
<path d="M80.7107 51.1535V40.8947H83.7024L86.0149 44.5713C86.7317 45.7527 87.3563 46.9876 87.8833 48.265L87.9263 48.2593C87.7835 46.8868 87.7232 45.5069 87.7457 44.1271V40.8947H90.001V51.1535H87.3704L84.9575 47.1876C84.2138 45.9567 83.5374 44.6863 82.9316 43.3821L82.8742 43.3878C82.9516 44.8578 82.9659 46.2648 82.9659 47.8094V51.1535H80.7107Z" fill="white"/>
<path d="M30.1034 57.3317V61.4209H31.115V62.4124H30.0776C30.0474 62.7043 29.9538 62.9861 29.8033 63.238C29.6529 63.4899 29.4492 63.706 29.2065 63.871C28.689 64.2189 28.0761 64.3971 27.4528 64.381C26.8058 64.3909 26.1755 64.1751 25.6704 63.7707C25.4157 63.5669 25.2129 63.3055 25.0789 63.0081C24.9449 62.7107 24.8834 62.3857 24.8995 62.0599V58.2602H25.8968V62.0599C25.8892 62.2491 25.9283 62.4373 26.0108 62.6077C26.0933 62.7782 26.2165 62.9256 26.3696 63.0371C26.7023 63.2671 27.0974 63.3901 27.5019 63.3896C27.9065 63.3891 28.3012 63.2651 28.6334 63.0342C28.7879 62.9237 28.9125 62.7766 28.996 62.606C29.0795 62.4355 29.1194 62.2468 29.1119 62.0571V57.3288H30.1092L30.1034 57.3317ZM27.0401 56.0709C26.9905 55.9477 26.9905 55.81 27.0401 55.6869C27.0666 55.6273 27.1035 55.573 27.149 55.5264C27.1943 55.4793 27.249 55.4422 27.3095 55.4175C27.3884 55.3892 27.4721 55.3765 27.5559 55.3802C27.6133 55.3829 27.6694 55.3975 27.7207 55.4232C27.7721 55.4488 27.8174 55.485 27.854 55.5293C27.9458 55.6224 27.9973 55.748 27.9973 55.8789C27.9973 56.0097 27.9458 56.1353 27.854 56.2285C27.8162 56.2708 27.7704 56.3053 27.7193 56.3299C27.6681 56.3545 27.6126 56.3687 27.5559 56.3717C27.4721 56.3754 27.3884 56.3628 27.3095 56.3345C27.1891 56.2846 27.0925 56.1902 27.0401 56.0709Z" fill="white"/>
<path d="M30.6843 61.4209H32.9337V62.4124H30.6843V61.4209Z" fill="white"/>
<path d="M32.4929 61.4209H34.7424V62.4124H32.4929V61.4209Z" fill="white"/>
<path d="M36.9673 57.3317V60.7819C36.9707 60.9956 36.9308 61.2079 36.85 61.4059C36.7693 61.6038 36.6493 61.7834 36.4973 61.9338C36.3506 62.088 36.1735 62.2102 35.9772 62.2925C35.7809 62.3749 35.5697 62.4157 35.3568 62.4124H34.2937V61.4209H35.3568C35.4401 61.422 35.5227 61.406 35.5996 61.374C35.6765 61.3419 35.746 61.2945 35.8039 61.2346C35.8641 61.1758 35.9117 61.1053 35.9437 61.0275C35.9758 60.9496 35.9915 60.866 35.9901 60.7819V57.3317H36.9644H36.9673ZM34.543 64.0859C34.4934 63.9627 34.4934 63.8251 34.543 63.7019C34.5685 63.6418 34.6054 63.5872 34.6519 63.5414C34.6975 63.4959 34.7509 63.4591 34.8095 63.4325C34.8702 63.4067 34.9356 63.394 35.0015 63.3953C35.0674 63.3943 35.1328 63.407 35.1935 63.4325C35.3144 63.4846 35.4107 63.581 35.4629 63.7019C35.5125 63.8251 35.5125 63.9627 35.4629 64.0859C35.4381 64.1455 35.401 64.1992 35.354 64.2435C35.3073 64.2882 35.2529 64.3241 35.1935 64.3495C35.0703 64.3992 34.9327 64.3992 34.8095 64.3495C34.7506 64.3247 34.6971 64.2887 34.6519 64.2435C34.6058 64.1984 34.5688 64.1449 34.543 64.0859ZM36.0102 64.0859C35.9605 63.9627 35.9605 63.8251 36.0102 63.7019C36.0367 63.6423 36.0735 63.588 36.1191 63.5414C36.1644 63.4943 36.2191 63.4572 36.2796 63.4325C36.3585 63.4042 36.4422 63.3916 36.526 63.3953C36.5833 63.3979 36.6395 63.4125 36.6908 63.4382C36.7421 63.4638 36.7875 63.5 36.824 63.5443C36.9159 63.6375 36.9674 63.763 36.9674 63.8939C36.9674 64.0247 36.9159 64.1503 36.824 64.2435C36.7863 64.2859 36.7405 64.3203 36.6893 64.3449C36.6382 64.3695 36.5827 64.3837 36.526 64.3868C36.4422 64.3905 36.3585 64.3778 36.2796 64.3495C36.1591 64.2997 36.0626 64.2052 36.0102 64.0859Z" fill="white"/>
<path d="M38.3823 57.3317C40.1303 57.3317 41.1352 57.6297 41.3969 58.2257C41.6231 58.6842 41.7565 59.1828 41.7895 59.6929V61.4209H42.7953V62.4124H38.1043V61.4209H40.7923V59.6901C40.7923 58.7788 39.9889 58.3232 38.3823 58.3232V57.3317Z" fill="white"/>
<path d="M42.3544 61.4209H44.6039V62.4124H42.3544V61.4209Z" fill="white"/>
<path d="M46.2646 55.3602V60.7848C46.2631 61.2165 46.0907 61.63 45.7852 61.935C45.4796 62.24 45.0658 62.4117 44.6341 62.4124H44.167V61.4209H44.6312C44.7153 61.422 44.7988 61.4061 44.8766 61.3741C44.9544 61.3421 45.025 61.2947 45.084 61.2347C45.1444 61.1772 45.1922 61.1078 45.2242 61.0308C45.2563 60.9538 45.272 60.871 45.2702 60.7876V55.3631H46.2674L46.2646 55.3602Z" fill="white"/>
<path d="M48.3576 55.3602V62.4095H47.3604V55.3602H48.3576Z" fill="white"/>
<path d="M52.2979 61.4209C52.0291 60.9385 51.8917 60.3941 51.8995 59.8419C51.8899 59.2885 52.0825 58.7505 52.4411 58.3289C52.8022 57.9019 53.3553 57.6784 54.1003 57.667H55.1606V58.6585H54.129C53.9575 58.6613 53.7884 58.6989 53.6318 58.7688C53.4752 58.8387 53.3343 58.9396 53.2177 59.0654C53.0037 59.3111 52.8892 59.6279 52.8968 59.9537C52.8963 60.3016 52.982 60.6442 53.1461 60.9509C53.3123 61.2661 53.5071 61.4237 53.7364 61.4237H56.069V62.4152H51.1574V61.4237H52.3007L52.2979 61.4209Z" fill="white"/>
<path d="M59.1065 57.3317V61.4209H61.2929V55.3602H62.2901V61.4209H63.3017V62.4124H57.1751V61.4209H58.1121V57.3317H59.1093H59.1065Z" fill="white"/>
<path d="M62.8588 61.4209H65.1083V62.4124H62.8588V61.4209Z" fill="white"/>
<path d="M66.6762 59.6013V61.421H69.622V62.4125H64.6674V61.421H65.679V59.6013C65.6748 59.3022 65.7305 59.0053 65.8429 58.7281C65.9552 58.4509 66.1219 58.199 66.3332 57.9872C66.5444 57.7754 66.7959 57.6081 67.0729 57.495C67.3498 57.382 67.6465 57.3255 67.9456 57.3289C68.34 57.3334 68.7277 57.4306 69.0776 57.6126L68.6792 58.521C68.4511 58.4043 68.2014 58.336 67.9456 58.3204C67.777 58.3191 67.6098 58.352 67.4542 58.417C67.2986 58.482 67.1578 58.5778 67.0401 58.6987C66.9203 58.8171 66.826 58.9587 66.7629 59.115C66.6998 59.2712 66.6693 59.4386 66.6733 59.607L66.6762 59.6013Z" fill="white"/>
<path d="M73.8343 1.70216C73.5764 1.10038 73.3758 0.426972 72.7425 0C71.645 0.63616 70.5704 1.25513 69.4844 1.88555C69.6678 2.23229 69.8139 2.473 69.9285 2.72804C70.6564 4.32703 70.9344 5.99194 70.0231 7.56514C68.6132 9.99229 66.3466 11.3219 63.7331 12.1615C63.6243 11.8693 63.5354 11.6744 63.481 11.4681C62.7273 8.72284 60.9306 6.91179 58.3888 5.76269C55.9703 4.6709 53.4084 4.51903 50.8323 4.7712C49.2652 4.90447 47.7303 5.2916 46.2875 5.91743C46.6342 6.92325 46.9924 7.88895 47.2933 8.87185C47.4595 9.41058 47.7632 9.54526 48.259 9.38765C49.3836 9.05098 50.538 8.82354 51.7063 8.70851C53.8354 8.45921 55.8442 8.77729 57.6581 9.90346C58.8043 10.6141 59.5895 11.6543 59.7013 13.0413C59.3459 13.3851 58.9705 13.2992 58.6238 13.3049C57.2397 13.3278 55.87 13.4568 54.4716 13.3708C52.7995 13.2773 51.1339 13.0908 49.4826 12.812C45.5911 12.1386 41.7885 11.0698 37.9773 10.0439C32.7992 8.64833 27.6726 7.04647 22.2767 6.57652C20.2565 6.37417 18.2171 6.48435 16.2304 6.90319C15.0755 7.15823 13.8834 7.47058 12.8948 8.31306C13.5052 9.45393 14.1758 10.5616 14.9036 11.6314C16.1644 11.0153 17.3193 10.5339 18.6518 10.468C20.8984 10.362 22.9559 10.9379 24.9503 11.8807C28.2056 13.4195 31.0225 15.6146 33.8537 17.7895C36.4843 19.8098 39.0203 21.9561 41.7455 23.8531C42.7169 24.5294 43.6855 25.2143 44.7773 25.9823C41.7499 26.9246 38.6291 27.5356 35.4699 27.8048C35.6991 29.2089 36.2694 30.4296 36.6677 31.7392H61.1914C61.5754 30.4554 62.1112 29.2605 62.329 27.8707C60.9535 27.6529 59.6153 27.5125 58.3143 27.2202C57.0363 26.9308 55.7353 26.6614 54.4888 26.0482C54.5931 25.9565 54.7021 25.8704 54.8154 25.7903C58.343 23.5752 61.4693 20.9789 63.1027 16.9815C63.1744 16.8034 63.2901 16.6464 63.4389 16.5251C63.5878 16.4038 63.7649 16.3223 63.9538 16.288C67.0028 15.3653 69.748 13.9267 71.9803 11.5741C74.6224 8.78875 75.3531 5.21536 73.8458 1.69643L73.8343 1.70216ZM55.2052 20.7067C53.6892 21.8994 52.0492 22.9255 50.3136 23.7672C50.1186 23.8815 49.8962 23.9408 49.6701 23.9387C49.4441 23.9367 49.2228 23.8735 49.0298 23.7557C46.2961 22.28 43.6874 20.5837 41.2297 18.6836C39.0949 17.0732 37.0288 15.371 34.9369 13.7032C34.8332 13.5941 34.7392 13.4762 34.6561 13.3508C42.4447 15.414 50.0672 17.781 58.214 17.4915C57.3759 18.7055 56.3629 19.7889 55.208 20.7067H55.2052Z" fill="white"/>
<path d="M59.4603 23.6211C59.5861 23.9781 59.7414 24.3241 59.9245 24.6555C63.3517 24.581 66.7866 24.5075 70.2291 24.4349V24.3833C66.6701 24.1311 63.1082 23.8818 59.4603 23.6239V23.6211Z" fill="white"/>
<path d="M61.4662 21.042C61.592 21.3991 61.7473 21.7451 61.9304 22.0765C65.3576 22.002 68.7925 21.9284 72.235 21.8558V21.8043C68.676 21.5521 65.1141 21.3028 61.4662 21.0449V21.042Z" fill="white"/>
<path d="M63.7592 18.463C63.8851 18.8201 64.0403 19.1661 64.2234 19.4975C67.6507 19.423 71.0855 19.3495 74.5281 19.2769V19.2253C70.969 18.9731 67.4071 18.7238 63.7592 18.4659V18.463Z" fill="white"/>
<path d="M54.0038 36.9029C55.1908 36.9029 56.153 35.9407 56.153 34.7537C56.153 33.5668 55.1908 32.6045 54.0038 32.6045C52.8169 32.6045 51.8546 33.5668 51.8546 34.7537C51.8546 35.9407 52.8169 36.9029 54.0038 36.9029Z" fill="white"/>
<path d="M44.2614 36.9029C45.4484 36.9029 46.4106 35.9407 46.4106 34.7537C46.4106 33.5668 45.4484 32.6045 44.2614 32.6045C43.0745 32.6045 42.1122 33.5668 42.1122 34.7537C42.1122 35.9407 43.0745 36.9029 44.2614 36.9029Z" fill="white"/>
</svg>
