<svg width="11" height="11" viewBox="0 0 11 11" fill="none" xmlns="http://www.w3.org/2000/svg">
<path d="M10.7703 4.58312H6.41637V0.229156C6.41637 0.10312 6.31325 0 6.18721 0H4.81228C4.68624 0 4.58312 0.10312 4.58312 0.229156V4.58312H0.229156C0.10312 4.58312 0 4.68624 0 4.81228V6.18721C0 6.31325 0.10312 6.41637 0.229156 6.41637H4.58312V10.7703C4.58312 10.8964 4.68624 10.9995 4.81228 10.9995H6.18721C6.31325 10.9995 6.41637 10.8964 6.41637 10.7703V6.41637H10.7703C10.8964 6.41637 10.9995 6.31325 10.9995 6.18721V4.81228C10.9995 4.68624 10.8964 4.58312 10.7703 4.58312Z" fill="#040415"/>
</svg>
