<svg width="20" height="20" viewBox="0 0 20 20" fill="none" xmlns="http://www.w3.org/2000/svg">
<path d="M5.83301 7.08333L8.28469 8.53285C9.71402 9.37793 10.2853 9.37793 11.7147 8.53285L14.1663 7.08333" stroke="#7A808A" stroke-width="1.5" stroke-linecap="round" stroke-linejoin="round"/>
<path d="M1.67964 11.2297C1.73412 13.7843 1.76136 15.0616 2.70397 16.0078C3.64657 16.954 4.95845 16.9869 7.58219 17.0529C9.19926 17.0935 10.8004 17.0935 12.4175 17.0529C15.0412 16.9869 16.3531 16.954 17.2957 16.0078C18.2383 15.0616 18.2656 13.7843 18.32 11.2297C18.3376 10.4083 18.3376 9.59171 18.32 8.77031C18.2656 6.2157 18.2383 4.93839 17.2957 3.9922C16.3531 3.04601 15.0412 3.01305 12.4175 2.94712C10.8004 2.90649 9.19926 2.90649 7.58219 2.94712C4.95844 3.01304 3.64657 3.04599 2.70396 3.99219C1.76136 4.93838 1.73412 6.21569 1.67964 8.7703C1.66212 9.5917 1.66212 10.4083 1.67964 11.2297Z" stroke="#7A808A" stroke-width="1.5" stroke-linejoin="round"/>
</svg>
