<svg width="21" height="17" viewBox="0 0 21 17" fill="none" xmlns="http://www.w3.org/2000/svg">
<path d="M12 11.4314C12 13.1288 13.9093 14.9265 15.24 15.9738C15.7993 16.4136 16.0783 16.6335 16.5 16.6335C16.9217 16.6335 17.2007 16.4136 17.76 15.9738C19.0907 14.9265 21 13.1288 21 11.4314C21 8.67163 18.525 7.64221 16.5 9.7739C14.475 7.64221 12 8.67163 12 11.4314Z" fill="#BFA274"/>
<path fill-rule="evenodd" clip-rule="evenodd" d="M0 0.788462C0 0.579349 0.0830697 0.3788 0.230935 0.230935C0.3788 0.0830697 0.579349 0 0.788462 0H19.7115C19.9207 0 20.1212 0.0830697 20.2691 0.230935C20.4169 0.3788 20.5 0.579349 20.5 0.788462C20.5 0.997575 20.4169 1.19812 20.2691 1.34599C20.1212 1.49385 19.9207 1.57692 19.7115 1.57692H0.788462C0.579349 1.57692 0.3788 1.49385 0.230935 1.34599C0.0830697 1.19812 0 0.997575 0 0.788462ZM0 4.99359C0 4.78448 0.0830697 4.58393 0.230935 4.43606C0.3788 4.2882 0.579349 4.20513 0.788462 4.20513H19.7115C19.9207 4.20513 20.1212 4.2882 20.2691 4.43606C20.4169 4.58393 20.5 4.78448 20.5 4.99359C20.5 5.2027 20.4169 5.40325 20.2691 5.55112C20.1212 5.69898 19.9207 5.78205 19.7115 5.78205H0.788462C0.579349 5.78205 0.3788 5.69898 0.230935 5.55112C0.0830697 5.40325 0 5.2027 0 4.99359ZM0 9.19872C0 8.9896 0.0830697 8.78906 0.230935 8.64119C0.3788 8.49333 0.579349 8.41026 0.788462 8.41026H8.14744C8.35655 8.41026 8.5571 8.49333 8.70496 8.64119C8.85283 8.78906 8.9359 8.9896 8.9359 9.19872C8.9359 9.40783 8.85283 9.60838 8.70496 9.75624C8.5571 9.90411 8.35655 9.98718 8.14744 9.98718H0.788462C0.579349 9.98718 0.3788 9.90411 0.230935 9.75624C0.0830697 9.60838 0 9.40783 0 9.19872ZM0 13.4038C0 13.1947 0.0830697 12.9942 0.230935 12.8463C0.3788 12.6985 0.579349 12.6154 0.788462 12.6154H8.14744C8.35655 12.6154 8.5571 12.6985 8.70496 12.8463C8.85283 12.9942 8.9359 13.1947 8.9359 13.4038C8.9359 13.613 8.85283 13.8135 8.70496 13.9614C8.5571 14.1092 8.35655 14.1923 8.14744 14.1923H0.788462C0.579349 14.1923 0.3788 14.1092 0.230935 13.9614C0.0830697 13.8135 0 13.613 0 13.4038Z" fill="#BFA274"/>
</svg>
