<svg width="17" height="17" viewBox="0 0 17 17" fill="none" xmlns="http://www.w3.org/2000/svg">
<path fill-rule="evenodd" clip-rule="evenodd" d="M2.59872 8.20433C2.59872 10.7506 3.06199 12.0217 3.77962 12.7137C4.50743 13.4155 5.78969 13.8093 8.20369 13.8093C10.6177 13.8093 11.9 13.4155 12.6278 12.7137C13.3454 12.0217 13.8087 10.7506 13.8087 8.20433C13.8087 5.65802 13.3454 4.38697 12.6278 3.69497C11.9 2.99316 10.6177 2.59936 8.20369 2.59936C5.78969 2.59936 4.50743 2.99316 3.77962 3.69497C3.06199 4.38697 2.59872 5.65802 2.59872 8.20433ZM1.41602 8.20433C1.41602 13.4494 3.2672 14.992 8.20369 14.992C10.3921 14.992 11.9741 14.6888 13.0574 13.8944L14.5731 15.4101C14.8041 15.6411 15.1785 15.6411 15.4094 15.4101C15.6404 15.1792 15.6404 14.8048 15.4094 14.5738L13.8907 13.0552C14.6562 11.9976 14.9914 10.4362 14.9914 8.20433C14.9914 2.95931 13.1402 1.41666 8.20369 1.41666C3.2672 1.41666 1.41602 2.95931 1.41602 8.20433Z" fill="#161429"/>
</svg>
