<svg width="25" height="25" viewBox="0 0 25 25" fill="none" xmlns="http://www.w3.org/2000/svg">
<path d="M6.85164 16.1266C5.37792 17.0041 1.51392 18.7959 3.86736 21.0381C5.01699 22.1333 6.29739 22.9166 7.90715 22.9166H17.0928C18.7026 22.9166 19.983 22.1333 21.1326 21.0381C23.4861 18.7959 19.6221 17.0041 18.1484 16.1266C14.6925 14.0689 10.3075 14.0689 6.85164 16.1266Z" stroke="#BFA274" stroke-width="1.5" stroke-linecap="round" stroke-linejoin="round"/>
<path d="M17.1875 6.77081C17.1875 9.35965 15.0888 11.4583 12.5 11.4583C9.91117 11.4583 7.8125 9.35965 7.8125 6.77081C7.8125 4.18198 9.91117 2.08331 12.5 2.08331C15.0888 2.08331 17.1875 4.18198 17.1875 6.77081Z" stroke="#BFA274" stroke-width="1.5"/>
</svg>
