<svg width="21" height="16" viewBox="0 0 21 16" fill="none" xmlns="http://www.w3.org/2000/svg">
<path d="M2.82167 13.1785C2.82167 13.7279 3.0399 14.2547 3.42837 14.6432C3.81683 15.0317 4.3437 15.2499 4.89307 15.2499C5.44244 15.2499 5.96931 15.0317 6.35777 14.6432C6.74624 14.2547 6.96447 13.7279 6.96447 13.1785C6.96447 12.6291 6.74624 12.1023 6.35777 11.7138C5.96931 11.3253 5.44244 11.1071 4.89307 11.1071C4.3437 11.1071 3.81683 11.3253 3.42837 11.7138C3.0399 12.1023 2.82167 12.6291 2.82167 13.1785ZM13.1787 13.1785C13.1787 13.7279 13.3969 14.2547 13.7854 14.6432C14.1738 15.0317 14.7007 15.2499 15.2501 15.2499C15.7994 15.2499 16.3263 15.0317 16.7148 14.6432C17.1032 14.2547 17.3215 13.7279 17.3215 13.1785C17.3215 12.6291 17.1032 12.1023 16.7148 11.7138C16.3263 11.3253 15.7994 11.1071 15.2501 11.1071C14.7007 11.1071 14.1738 11.3253 13.7854 11.7138C13.3969 12.1023 13.1787 12.6291 13.1787 13.1785Z" stroke="#1A232B" stroke-width="1.5" stroke-linecap="round" stroke-linejoin="round"/>
<path d="M2.8215 13.1785H0.750101V1.7858C0.750101 1.51112 0.859219 1.24768 1.05345 1.05345C1.24768 0.859219 1.51112 0.750101 1.7858 0.750101H11.1071V6.96431H5.92861M5.92861 6.96431L8.00001 9.03571M5.92861 6.96431L8.00001 4.8929M6.96431 13.1785H13.1785M11.1071 1.7858H16.2856L19.3927 6.96431V13.1785H17.3213" stroke="#1A232B" stroke-width="1.5" stroke-linecap="round" stroke-linejoin="round"/>
</svg>
