<svg width="16" height="19" viewBox="0 0 16 19" fill="none" xmlns="http://www.w3.org/2000/svg">
<path d="M2.09313 11.114L2.74725 11.5208L2.74904 11.5179L2.09313 11.114ZM1.06242 12.7715L0.408318 12.3647L0.408197 12.3649L1.06242 12.7715ZM2.03039 15.314L1.79053 16.046L1.79332 16.0469L2.03039 15.314ZM13.9239 15.314L13.6891 14.5804L13.6868 14.5811L13.9239 15.314ZM14.8919 12.7715L15.5466 12.3657L15.546 12.3647L14.8919 12.7715ZM13.8611 11.114L13.1994 11.5083L13.2032 11.5146L13.207 11.5208L13.8611 11.114ZM9.63957 1.86366L9.43113 2.60519C9.71402 2.68471 10.0175 2.59634 10.2135 2.37739C10.4095 2.15843 10.4638 1.84704 10.3536 1.57466L9.63957 1.86366ZM8.77915 1.6901L8.6866 2.4548L8.68937 2.45512L8.77915 1.6901ZM6.32337 1.86366L5.60937 1.57466C5.4991 1.84709 5.55347 2.15853 5.74953 2.37748C5.94558 2.59644 6.24915 2.68474 6.53206 2.60512L6.32337 1.86366ZM7.98162 0.841708C4.61322 0.841708 1.83374 3.49759 1.83374 6.81858H3.37428C3.37428 4.39495 5.41672 2.38225 7.98162 2.38225V0.841708ZM1.83374 6.81858V9.32642H3.37428V6.81858H1.83374ZM1.83374 9.32642C1.83374 9.49523 1.79348 9.75417 1.71232 10.0372C1.63133 10.3197 1.52765 10.5633 1.43723 10.7102L2.74904 11.5179C2.93646 11.2135 3.08821 10.828 3.1932 10.4618C3.29802 10.0962 3.37428 9.68696 3.37428 9.32642H1.83374ZM1.43903 10.7073L0.408318 12.3647L1.71653 13.1782L2.74724 11.5208L1.43903 10.7073ZM0.408197 12.3649C-0.0238361 13.0601 -0.119119 13.8514 0.151397 14.5587C0.420576 15.2625 1.01667 15.7924 1.79053 16.046L2.27026 14.582C1.87897 14.4538 1.6729 14.2244 1.5903 14.0084C1.50903 13.7959 1.51233 13.5068 1.71665 13.178L0.408197 12.3649ZM1.79332 16.0469C5.81036 17.3463 10.1439 17.3463 14.161 16.0469L13.6868 14.5811C9.97801 15.7809 5.97627 15.7809 2.26747 14.5811L1.79332 16.0469ZM14.1587 16.0476C15.7025 15.5535 16.4119 13.7621 15.5466 12.3657L14.2371 13.1772C14.5548 13.6899 14.3142 14.3803 13.6891 14.5804L14.1587 16.0476ZM15.546 12.3647L14.5152 10.7073L13.207 11.5208L14.2377 13.1782L15.546 12.3647ZM14.5228 10.7197C14.4335 10.5698 14.3308 10.3231 14.2505 10.0396C14.1698 9.7549 14.1295 9.49547 14.1295 9.32642H12.589C12.589 9.68672 12.6651 10.0955 12.7682 10.4594C12.8717 10.8246 13.0199 11.207 13.1994 11.5083L14.5228 10.7197ZM14.1295 9.32642V6.81858H12.589V9.32642H14.1295ZM14.1295 6.81858C14.1295 3.50626 11.3411 0.841708 7.98162 0.841708V2.38225C10.5376 2.38225 12.589 4.40363 12.589 6.81858H14.1295ZM9.84801 1.12212C9.5375 1.03485 9.21075 0.965197 8.86893 0.925083L8.68937 2.45512C8.93909 2.48443 9.18594 2.53627 9.43113 2.60519L9.84801 1.12212ZM8.8717 0.925412C7.91628 0.809783 6.98899 0.876118 6.11469 1.12219L6.53206 2.60512C7.19934 2.41731 7.92118 2.36216 8.6866 2.45479L8.8717 0.925412ZM7.03737 2.15266C7.17844 1.80414 7.53946 1.54054 7.98147 1.54054V0C6.91775 0 5.98814 0.638882 5.60937 1.57466L7.03737 2.15266ZM7.98147 1.54054C8.42348 1.54054 8.7845 1.80414 8.92557 2.15266L10.3536 1.57466C9.9748 0.638882 9.04519 0 7.98147 0V1.54054ZM9.90009 15.6264C9.90009 16.6096 9.05865 17.4595 7.98156 17.4595V19C9.86216 19 11.4406 17.5069 11.4406 15.6264H9.90009ZM7.98156 17.4595C7.45166 17.4595 6.96125 17.2458 6.61726 16.9127L5.54567 18.0195C6.16965 18.6236 7.04158 19 7.98156 19V17.4595ZM6.61726 16.9127C6.27368 16.58 6.06302 16.1166 6.06302 15.6264H4.52248C4.52248 16.5594 4.92129 17.415 5.54567 18.0195L6.61726 16.9127Z" fill="#1A232B"/>
</svg>
