<svg width="35" height="12" viewBox="0 0 35 12" fill="none" xmlns="http://www.w3.org/2000/svg">
<g clip-path="url(#clip0_326_13338)">
<path d="M25.0912 7.30523C25.0228 7.30453 24.9549 7.29312 24.8901 7.27144C24.8047 7.24574 24.7253 7.20375 24.6565 7.14789C24.5877 7.09203 24.5308 7.02339 24.4892 6.94592C24.4475 6.86846 24.4219 6.78369 24.4138 6.69648C24.4056 6.60928 24.4152 6.52136 24.4418 6.43777C24.7673 5.34487 25.4494 4.38672 26.3837 3.71014C27.3179 3.03356 28.4527 2.67588 29.6142 2.69192C30.7744 2.68147 31.9065 3.0413 32.8396 3.71705C33.7727 4.3928 34.4561 5.34778 34.7867 6.43777C34.8387 6.60733 34.8201 6.79017 34.735 6.94636C34.65 7.10255 34.5053 7.21942 34.3326 7.27144C34.2474 7.29834 34.1575 7.30828 34.0683 7.30068C33.979 7.29307 33.8923 7.26807 33.813 7.22714C33.7338 7.18621 33.6637 7.13018 33.6069 7.06234C33.55 6.9945 33.5076 6.91621 33.4821 6.83207C33.2328 6.0126 32.7185 5.29476 32.0167 4.78675C31.3149 4.27874 30.4637 4.0081 29.5912 4.01564C28.7227 4.01299 27.8767 4.28589 27.1795 4.79353C26.4824 5.30118 25.9716 6.01632 25.7234 6.83207C25.6808 6.96527 25.5971 7.08226 25.4839 7.16699C25.3707 7.25171 25.2336 7.3 25.0912 7.30523Z" fill="black"/>
<path d="M0.685355 7.30521C0.616804 7.3058 0.5487 7.29435 0.484262 7.27141C0.398358 7.2463 0.318386 7.20474 0.248973 7.14913C0.17956 7.09352 0.122085 7.02497 0.0798734 6.94743C0.0376617 6.8699 0.0115513 6.78494 0.00305334 6.69745C-0.00544462 6.60996 0.00383883 6.52168 0.0303658 6.43773C0.357457 5.34578 1.03983 4.38868 1.97343 3.71236C2.90703 3.03605 4.04062 2.67765 5.20134 2.69181C6.3616 2.67951 7.49429 3.03863 8.42751 3.71467C9.36073 4.3907 10.0435 5.34675 10.3723 6.43773C10.3998 6.52129 10.4099 6.60939 10.4021 6.69684C10.3944 6.7843 10.3689 6.86935 10.3271 6.94701C10.2854 7.02467 10.2282 7.09337 10.159 7.14908C10.0898 7.20478 10.01 7.24638 9.92416 7.27141C9.75121 7.32433 9.5639 7.30778 9.40339 7.2254C9.24287 7.14301 9.12227 7.00154 9.06808 6.83204C8.81918 6.01349 8.30591 5.29631 7.60546 4.78838C6.90502 4.28045 6.0553 4.00924 5.1841 4.01556C4.31487 4.01169 3.46775 4.28402 2.76963 4.79177C2.07151 5.29952 1.55996 6.01535 1.31162 6.83204C1.27007 6.96479 1.18751 7.08162 1.07532 7.16638C0.963138 7.25114 0.826874 7.29965 0.685355 7.30521Z" fill="black"/>
</g>
<defs>
<clipPath id="clip0_326_13338">
<rect width="34.8474" height="11.471" fill="white" transform="scale(1.00437)"/>
</clipPath>
</defs>
</svg>
