<svg width="17" height="18" viewBox="0 0 17 18" fill="none" xmlns="http://www.w3.org/2000/svg">
<g clip-path="url(#clip0_228_13726)">
<path d="M16.1876 0.860996C15.706 0.351893 15.0533 0.0659485 14.3728 0.0659485C13.6923 0.0659485 13.0396 0.351893 12.5581 0.860996L1.03772 13.059C0.707814 13.4063 0.446234 13.8195 0.268113 14.2746C0.0899931 14.7297 -0.0011319 15.2176 1.06117e-05 15.7102V17.25C1.06117e-05 17.4489 0.0746384 17.6397 0.207477 17.7803C0.340315 17.921 0.520482 18 0.708344 18H2.16255C2.62776 18.0014 3.08861 17.9051 3.51841 17.7166C3.94822 17.5281 4.33845 17.2512 4.66651 16.902L16.1876 4.70325C16.6682 4.19339 16.9381 3.50247 16.9381 2.78212C16.9381 2.06177 16.6682 1.37085 16.1876 0.860996ZM3.66493 15.8415C3.26543 16.2617 2.72565 16.4983 2.16255 16.5H1.41668V15.7102C1.41596 15.4147 1.47062 15.1219 1.5775 14.8488C1.68437 14.5758 1.84133 14.3279 2.0393 14.1195L10.7823 4.86225L12.4114 6.58725L3.66493 15.8415ZM15.1853 3.64275L13.4102 5.523L11.781 3.80175L13.5568 1.9215C13.6638 1.80848 13.7907 1.71887 13.9304 1.6578C14.0701 1.59673 14.2197 1.56539 14.3709 1.56556C14.522 1.56574 14.6716 1.59742 14.8111 1.65882C14.9507 1.72021 15.0775 1.81011 15.1842 1.92337C15.2909 2.03664 15.3756 2.17105 15.4332 2.31895C15.4909 2.46684 15.5205 2.62531 15.5204 2.78532C15.5202 2.94533 15.4903 3.10373 15.4323 3.25149C15.3743 3.39926 15.2894 3.53348 15.1824 3.6465L15.1853 3.64275Z" fill="#07CB6F"/>
</g>
<defs>
<clipPath id="clip0_228_13726">
<rect width="17" height="18" fill="white"/>
</clipPath>
</defs>
</svg>
