<svg width="24" height="24" viewBox="0 0 24 24" fill="none" xmlns="http://www.w3.org/2000/svg">
<path d="M21.8905 3.34133C20.68 2.11766 19.0449 1.44116 17.2862 1.43619C15.476 1.43014 13.6619 2.11602 12.2085 3.33528C10.5554 1.87958 9.06011 1.1698 7.65204 1.1698C5.68554 1.1698 3.86102 1.94432 2.527 3.33833C1.52435 4.34099 0.837347 5.65743 0.53955 7.14557C0.450394 7.5928 0.740176 8.02766 1.18746 8.11714C1.63418 8.20578 2.06955 7.91652 2.15904 7.46924C2.39243 6.302 2.92333 5.27732 3.70722 4.49319C4.73932 3.41483 6.1405 2.82116 7.65208 2.82116C8.74722 2.82116 10.0738 3.55907 11.581 4.99986C11.75 5.16969 11.9721 5.26353 12.2063 5.26382C12.2066 5.26382 12.2072 5.26382 12.2074 5.26382C12.4411 5.26382 12.6632 5.17053 12.8324 5.00127C14.0492 3.78449 15.6648 3.0876 17.2667 3.0876C17.2719 3.0876 17.2768 3.0876 17.2818 3.0876C18.6167 3.09116 19.8046 3.58082 20.7073 4.49319C21.7664 5.59935 22.3496 7.04816 22.3496 8.57347C22.3496 10.0999 21.7532 11.5848 20.7299 12.6312L12.2208 20.8566L5.47357 14.3376C5.14577 14.0208 4.62311 14.0304 4.30605 14.3574C3.98927 14.6855 3.99836 15.2081 4.32616 15.5249L11.6472 22.5983C11.8071 22.753 12.0141 22.8303 12.2208 22.8303C12.4275 22.8303 12.6345 22.753 12.7946 22.5986L21.8937 13.8022C23.2327 12.4335 24.0006 10.5278 24.0006 8.57343C24.0006 6.62066 23.2545 4.76591 21.8905 3.34133Z" fill="#FF7854"/>
<path d="M22.5138 10.4726H15.8532C15.6259 10.4726 15.409 10.5658 15.2532 10.731L12.7494 13.3784L9.86559 6.8368C9.74175 6.55578 9.47203 6.36669 9.1657 6.34606C8.86102 6.32651 8.56683 6.47652 8.40633 6.73826L6.11588 10.4726H0.825703C0.369609 10.4726 0 10.8422 0 11.2983C0 11.7544 0.369609 12.124 0.825703 12.124H6.57773C6.8648 12.124 7.13152 11.9748 7.28152 11.7298L8.99016 8.94453L11.74 15.1818C11.8515 15.435 12.0824 15.6153 12.3548 15.6623C12.4016 15.6703 12.4487 15.6744 12.4955 15.6744C12.7206 15.6744 12.9383 15.5825 13.0955 15.4162L16.2089 12.1239H22.5138C22.9699 12.1239 23.3395 11.7543 23.3395 11.2982C23.3394 10.8422 22.9698 10.4726 22.5138 10.4726Z" fill="#FF7854"/>
</svg>
