<svg width="15" height="16" viewBox="0 0 15 16" fill="none" xmlns="http://www.w3.org/2000/svg">
<path d="M3.08154 7.51207C3.08154 7.33607 3.15146 7.16727 3.27591 7.04282C3.40037 6.91837 3.56916 6.84845 3.74517 6.84845H6.83588V3.75774C6.83588 3.58173 6.90579 3.41294 7.03025 3.28849C7.1547 3.16403 7.32349 3.09412 7.4995 3.09412C7.6755 3.09412 7.8443 3.16403 7.96875 3.28849C8.0932 3.41294 8.16312 3.58173 8.16312 3.75774V6.84845H11.2538C11.4298 6.84845 11.5986 6.91837 11.7231 7.04282C11.8475 7.16727 11.9175 7.33607 11.9175 7.51207C11.9175 7.68807 11.8475 7.85687 11.7231 7.98132C11.5986 8.10578 11.4298 8.17569 11.2538 8.17569H8.16312V11.2664C8.16312 11.4424 8.0932 11.6112 7.96875 11.7357C7.8443 11.8601 7.6755 11.93 7.4995 11.93C7.32349 11.93 7.1547 11.8601 7.03025 11.7357C6.90579 11.6112 6.83588 11.4424 6.83588 11.2664V8.17569H3.74517C3.56916 8.17569 3.40037 8.10578 3.27591 7.98132C3.15146 7.85687 3.08154 7.68807 3.08154 7.51207Z" fill="#BFA274"/>
<path fill-rule="evenodd" clip-rule="evenodd" d="M3.35608 0.228977C6.11009 -0.0763258 8.8894 -0.0763258 11.6434 0.228977C13.26 0.409483 14.5651 1.68275 14.7545 3.30818C15.0818 6.10159 15.0818 8.92331 14.7545 11.7167C14.5642 13.3422 13.2591 14.6145 11.6434 14.7959C8.8894 15.1012 6.11009 15.1012 3.35608 14.7959C1.7395 14.6145 0.434378 13.3422 0.245024 11.7167C-0.0816747 8.9234 -0.0816747 6.10151 0.245024 3.30818C0.434378 1.68275 1.74039 0.409483 3.35608 0.228977ZM11.4965 1.54737C8.84014 1.25293 6.15935 1.25293 3.50297 1.54737C3.01122 1.60193 2.55222 1.82067 2.20012 2.16827C1.84803 2.51587 1.6234 2.97202 1.56254 3.46303C1.24784 6.15377 1.24784 8.87202 1.56254 11.5628C1.62359 12.0536 1.8483 12.5096 2.20037 12.857C2.55245 13.2044 3.01135 13.423 3.50297 13.4775C6.1371 13.7713 8.86238 13.7713 11.4965 13.4775C11.988 13.4228 12.4467 13.2041 12.7986 12.8567C13.1505 12.5093 13.375 12.0535 13.4361 11.5628C13.7508 8.87202 13.7508 6.15377 13.4361 3.46303C13.3749 2.97247 13.1502 2.51683 12.7983 2.16961C12.4464 1.82238 11.9878 1.6038 11.4965 1.54914V1.54737Z" fill="#BFA274"/>
</svg>
