<svg width="22" height="18" viewBox="0 0 22 18" fill="none" xmlns="http://www.w3.org/2000/svg">
<path d="M21.8484 1.56573C22.318 2.80839 21.6594 3.65918 20.3847 4.49724C19.3561 5.17343 18.0457 5.90597 16.6572 7.15836C15.296 8.38609 13.9676 9.86483 12.787 11.3203C11.6113 12.7698 10.6119 14.1593 9.90585 15.1881C9.44958 15.8529 8.8128 16.8445 8.8128 16.8445C8.36375 17.5711 7.55644 18.0108 6.6908 17.9998C5.82496 17.9888 5.02968 17.5289 4.60007 16.7908C3.50189 14.9041 2.65446 14.159 2.26498 13.8913C1.22283 13.1751 0 13.0692 0 11.4002C0 10.0748 1.09447 9.00033 2.44456 9.00033C3.39775 9.03631 4.28372 9.41967 5.06871 9.95913C5.5705 10.304 6.10206 10.7601 6.65495 11.3604C7.30385 10.4553 8.08582 9.41101 8.96239 8.33032C10.2354 6.76087 11.738 5.07723 13.3494 3.62381C14.9335 2.19504 16.7649 0.857641 18.7061 0.150534C19.9719 -0.310531 21.3788 0.323075 21.8484 1.56573Z" fill="#BFA274"/>
</svg>
