<svg width="22" height="28" viewBox="0 0 22 28" fill="none" xmlns="http://www.w3.org/2000/svg">
<path d="M0 25.6506V1.66997C0.000499302 1.36993 0.0816883 1.07555 0.235062 0.817676C0.388435 0.559801 0.608348 0.347924 0.87175 0.20425C1.13515 0.0605762 1.43235 -0.00960603 1.7322 0.00105689C2.03205 0.0117198 2.32351 0.102835 2.57604 0.264856L21.2306 12.2518C21.4668 12.4031 21.6611 12.6115 21.7958 12.8576C21.9304 13.1037 22.0009 13.3797 22.0009 13.6603C22.0009 13.9408 21.9304 14.2168 21.7958 14.4629C21.6611 14.7091 21.4668 14.9174 21.2306 15.0687L2.57604 27.059C2.32351 27.221 2.03205 27.3122 1.7322 27.3228C1.43235 27.3335 1.13515 27.2633 0.87175 27.1196C0.608348 26.976 0.388435 26.7641 0.235062 26.5062C0.0816883 26.2483 0.000499302 25.9539 0 25.6539V25.6506Z" fill="white"/>
</svg>
