<svg width="32" height="20" viewBox="0 0 32 20" fill="none" xmlns="http://www.w3.org/2000/svg">
<path d="M16.2169 11.5294H15.9156C12.0343 11.4456 7.59762 9.49625 6.43381 5.32379C6.40712 5.25442 6.39604 5.18056 6.40126 5.10692C6.40648 5.03327 6.42789 4.96147 6.46413 4.89609C6.50036 4.83071 6.55062 4.7732 6.6117 4.72724C6.67278 4.68127 6.74333 4.64785 6.81884 4.62913C6.89435 4.6104 6.97316 4.60677 7.05024 4.61848C7.12731 4.63019 7.20096 4.65697 7.26647 4.69711C7.33198 4.73726 7.38791 4.78988 7.43069 4.85162C7.47347 4.91336 7.50215 4.98286 7.51491 5.05568C8.53694 8.69192 12.4833 10.3955 15.9392 10.4681C19.2357 10.5296 23.5542 8.99204 24.9248 4.86986C24.9967 4.77248 25.0995 4.6993 25.2184 4.66094C25.3372 4.62258 25.4659 4.62103 25.5858 4.65652C25.7056 4.69201 25.8104 4.76269 25.8849 4.85831C25.9594 4.95392 25.9997 5.06949 26 5.18824C24.7417 8.95853 20.9194 11.5294 16.2169 11.5294Z" fill="black"/>
</svg>
