<svg width="35" height="28" viewBox="0 0 35 28" fill="none" xmlns="http://www.w3.org/2000/svg">
<path d="M0.5 8C0.5 6.10025 0.501062 4.72573 0.641988 3.67754C0.78098 2.64373 1.04772 2.00253 1.52513 1.52513C2.00253 1.04772 2.64373 0.78098 3.67754 0.641988C4.72573 0.501062 6.10025 0.5 8 0.5H27C28.8998 0.5 30.2743 0.501062 31.3225 0.641988C32.3563 0.78098 32.9975 1.04772 33.4749 1.52513C33.9523 2.00253 34.219 2.64373 34.358 3.67754C34.4989 4.72573 34.5 6.10025 34.5 8V20C34.5 21.8998 34.4989 23.2743 34.358 24.3225C34.219 25.3563 33.9523 25.9975 33.4749 26.4749C32.9975 26.9523 32.3563 27.219 31.3225 27.358C30.2743 27.4989 28.8998 27.5 27 27.5H8C6.10025 27.5 4.72573 27.4989 3.67754 27.358C2.64373 27.219 2.00253 26.9523 1.52513 26.4749C1.04772 25.9975 0.78098 25.3563 0.641988 24.3225C0.501062 23.2743 0.5 21.8998 0.5 20V8Z" stroke="#1A232B"/>
<path d="M19 19.074C21.8282 19.074 23.2427 19.074 24.121 18.195C25 17.3168 25 15.9023 25 13.074C25 10.2458 25 8.83127 24.121 7.95302C23.2427 7.07402 21.8282 7.07402 19 7.07402H16C13.1718 7.07402 11.7572 7.07402 10.879 7.95302C10 8.83127 10 10.2458 10 13.074C10 15.9023 10 17.3168 10.879 18.195C11.3687 18.6855 12.025 18.9023 13 18.9975" stroke="#1A232B" stroke-width="1.5" stroke-linecap="round" stroke-linejoin="round"/>
<path d="M15.9999 11.187C16.3749 10.4445 16.7499 10.074 17.4999 10.074C18.4344 10.074 18.9999 10.8158 18.9999 11.5575C18.9999 12.2993 18.6249 12.3323 17.4999 13.074V13.824M17.4999 15.699V16.074M18.9999 19.074C18.0729 19.074 17.0514 19.449 16.1192 19.9328C14.6207 20.7105 13.8714 21.0998 13.5024 20.8515C13.1334 20.604 13.2032 19.8353 13.3434 18.2985L13.3749 17.949" stroke="#1A232B" stroke-width="1.5" stroke-linecap="round"/>
</svg>
