<svg width="22" height="22" viewBox="0 0 22 22" fill="none" xmlns="http://www.w3.org/2000/svg">
<path d="M19.0385 3.38462H3.06731C2.25381 3.38462 1.47363 3.70778 0.898394 4.28301C0.323162 4.85824 0 5.63842 0 6.45192V14.8077C0 15.5931 0.312019 16.3464 0.867415 16.9018C1.42281 17.4572 2.17609 17.7692 2.96154 17.7692H3.38462V19.8677C3.38462 20.4332 3.60927 20.9756 4.00915 21.3755C4.40904 21.7753 4.9514 22 5.51692 22H16.4831C17.0486 22 17.591 21.7753 17.9908 21.3755C18.3907 20.9756 18.6154 20.4332 18.6154 19.8677V17.7692H19.0385C19.8239 17.7692 20.5772 17.4572 21.1326 16.9018C21.688 16.3464 22 15.5931 22 14.8077V6.34615C22 5.56071 21.688 4.80743 21.1326 4.25203C20.5772 3.69663 19.8239 3.38462 19.0385 3.38462ZM16.9231 19.8677C16.9227 19.9843 16.8762 20.0959 16.7937 20.1784C16.7113 20.2608 16.5996 20.3073 16.4831 20.3077H5.51692C5.40036 20.3073 5.28868 20.2608 5.20626 20.1784C5.12383 20.0959 5.07734 19.9843 5.07692 19.8677V11.44C5.07734 11.3234 5.12383 11.2118 5.20626 11.1293C5.28868 11.0469 5.40036 11.0004 5.51692 11H16.4831C16.5996 11.0004 16.7113 11.0469 16.7937 11.1293C16.8762 11.2118 16.9227 11.3234 16.9231 11.44V19.8677ZM18.2981 8.45731C18.0392 8.47812 17.7802 8.41901 17.556 8.28797C17.3317 8.15692 17.1531 7.96025 17.0442 7.72449C16.9353 7.48873 16.9013 7.22523 16.9468 6.96955C16.9924 6.71387 17.1153 6.47832 17.2989 6.29468C17.4825 6.11104 17.7181 5.98815 17.9738 5.9426C18.2295 5.89705 18.493 5.93103 18.7287 6.03996C18.9645 6.14888 19.1612 6.32751 19.2922 6.55173C19.4232 6.77595 19.4823 7.03497 19.4615 7.29385C19.4374 7.59436 19.3071 7.87646 19.0939 8.08964C18.8807 8.30282 18.5986 8.43315 18.2981 8.45731ZM15.6538 0H6.34615C5.63433 0.00105996 4.94662 0.258057 4.40856 0.724082C3.8705 1.19011 3.51796 1.83408 3.41529 2.53846H18.5847C18.482 1.83408 18.1295 1.19011 17.5914 0.724082C17.0534 0.258057 16.3657 0.00105996 15.6538 0Z" fill="white"/>
</svg>
