<svg width="187" height="134" viewBox="0 0 187 134" fill="none" xmlns="http://www.w3.org/2000/svg">
<path d="M6.9958 100.602L5.29894 106.276H0L7.13274 84.9616H13.8904L21.3565 106.276H15.7778L13.8963 100.602H6.9958ZM13.0568 96.8872L11.5267 92.3325C11.104 91.0822 10.6991 89.6651 10.33 88.4744H10.2645C9.9251 89.677 9.59764 91.0941 9.21659 92.3384L7.77575 96.8872H13.0509H13.0568Z" fill="#1A232B"/>
<path d="M27.5295 84.9677H32.5725V102.067H42.0629V106.283H27.5295V84.9677Z" fill="#1A232B"/>
<path d="M53.8719 100.602L52.1751 106.276H46.8702L54.0029 84.9616H60.7606L68.2267 106.276H62.6479L60.7665 100.602H53.8719ZM59.933 96.8872L58.4028 92.3325C57.9801 91.0822 57.5753 89.6651 57.2061 88.4744H57.1406C56.8012 89.677 56.4738 91.0941 56.0927 92.3384L54.6519 96.8872H59.927H59.933Z" fill="#1A232B"/>
<path d="M79.8653 100.602L78.1685 106.276H72.8636L79.9963 84.9616H86.754L94.2201 106.276H88.6413L86.7599 100.602H79.8653ZM85.9264 96.8872L84.3962 92.3325C83.9735 91.0822 83.5687 89.6651 83.1995 88.4744H83.134C82.7946 89.677 82.4672 91.0941 82.0861 92.3384L80.6453 96.8872H85.9204H85.9264Z" fill="#1A232B"/>
<path d="M100.401 85.2475C102.808 84.9158 105.235 84.7567 107.665 84.7712C112.16 84.7712 115.059 85.5571 117.328 87.1885C119.674 88.8436 121.21 91.3681 121.21 95.0178C121.21 99.0248 119.608 101.769 117.495 103.52C114.988 105.55 111.112 106.515 106.557 106.515C104.5 106.543 102.443 106.429 100.401 106.175V85.2475ZM105.444 102.538C106.106 102.614 106.772 102.644 107.438 102.627C112.589 102.674 115.839 100.114 115.839 95.2798C115.851 90.8382 112.773 88.6174 108.087 88.6174C107.202 88.6024 106.316 88.6722 105.444 88.8258V102.538Z" fill="#1A232B"/>
<path d="M127.751 85.2475C130.157 84.9158 132.585 84.7567 135.014 84.7712C139.51 84.7712 142.409 85.5571 144.678 87.1885C147.023 88.8436 148.559 91.3681 148.559 95.0178C148.559 99.0248 146.958 101.769 144.844 103.52C142.338 105.55 138.462 106.515 133.907 106.515C131.85 106.543 129.793 106.429 127.751 106.175V85.2475ZM132.794 102.538C133.456 102.614 134.122 102.644 134.788 102.627C139.938 102.674 143.189 100.114 143.189 95.2798C143.201 90.8382 140.123 88.6174 135.437 88.6174C134.551 88.6024 133.666 88.6722 132.794 88.8258V102.538Z" fill="#1A232B"/>
<path d="M160.151 84.9677V106.283H155.108V84.9677H160.151Z" fill="#1A232B"/>
<path d="M167.698 106.283V84.9677H173.914L178.719 92.6065C180.208 95.0612 181.506 97.6269 182.601 100.281L182.69 100.269C182.394 97.4174 182.268 94.5504 182.315 91.6836V84.9677H187.001V106.283H181.535L176.522 98.0424C174.977 95.485 173.572 92.8455 172.313 90.1356L172.194 90.1475C172.354 93.2019 172.384 96.1252 172.384 99.3344V106.283H167.698Z" fill="#1A232B"/>
<path d="M62.5463 119.119V127.616H64.648V129.676H62.4927C62.4299 130.282 62.2354 130.868 61.9227 131.391C61.6101 131.914 61.1869 132.363 60.6827 132.706C59.6075 133.429 58.3341 133.799 57.0389 133.766C55.6946 133.786 54.3852 133.338 53.3356 132.498C52.8064 132.074 52.3852 131.531 52.1068 130.913C51.8283 130.295 51.7006 129.62 51.734 128.943V121.048H53.806V128.943C53.7902 129.336 53.8716 129.727 54.043 130.081C54.2143 130.436 54.4703 130.742 54.7884 130.974C55.4798 131.451 56.3006 131.707 57.1411 131.706C57.9816 131.705 58.8017 131.447 59.4919 130.968C59.8129 130.738 60.0718 130.432 60.2453 130.078C60.4189 129.724 60.5016 129.332 60.4862 128.937V119.113H62.5582L62.5463 119.119ZM56.1816 116.5C56.0784 116.244 56.0784 115.958 56.1816 115.702C56.2366 115.578 56.3132 115.465 56.4078 115.368C56.502 115.271 56.6155 115.194 56.7412 115.142C56.9053 115.083 57.0792 115.057 57.2533 115.065C57.3724 115.07 57.489 115.101 57.5957 115.154C57.7023 115.207 57.7966 115.282 57.8725 115.374C58.0633 115.568 58.1703 115.829 58.1703 116.101C58.1703 116.373 58.0633 116.634 57.8725 116.827C57.794 116.915 57.6989 116.987 57.5926 117.038C57.4864 117.089 57.371 117.119 57.2533 117.125C57.0792 117.133 56.9053 117.106 56.7412 117.047C56.491 116.944 56.2905 116.748 56.1816 116.5Z" fill="#BFA274"/>
<path d="M63.7561 127.615H68.4299V129.675H63.7561V127.615Z" fill="#BFA274"/>
<path d="M67.5125 127.615H72.1863V129.675H67.5125V127.615Z" fill="#BFA274"/>
<path d="M76.8042 119.119V126.287C76.8113 126.732 76.7284 127.173 76.5606 127.584C76.3928 127.995 76.1435 128.368 75.8278 128.681C75.5229 129.001 75.1549 129.255 74.7471 129.426C74.3393 129.597 73.9004 129.682 73.4581 129.675H71.2493V127.615H73.4581C73.6312 127.617 73.8028 127.584 73.9626 127.518C74.1223 127.451 74.2667 127.353 74.387 127.228C74.5121 127.106 74.611 126.96 74.6775 126.798C74.7441 126.636 74.7769 126.462 74.774 126.287V119.119H76.7983H76.8042ZM71.7673 133.152C71.6641 132.896 71.6641 132.61 71.7673 132.354C71.8201 132.23 71.897 132.116 71.9935 132.021C72.0882 131.927 72.1991 131.85 72.321 131.795C72.447 131.741 72.5829 131.715 72.7199 131.717C72.8568 131.715 72.9926 131.742 73.1188 131.795C73.3699 131.903 73.5701 132.103 73.6784 132.354C73.7816 132.61 73.7816 132.896 73.6784 133.152C73.6269 133.276 73.5498 133.388 73.4522 133.48C73.3552 133.573 73.2422 133.647 73.1188 133.7C72.8629 133.803 72.5769 133.803 72.321 133.7C72.1986 133.649 72.0873 133.574 71.9935 133.48C71.8977 133.386 71.8209 133.275 71.7673 133.152ZM74.8156 133.152C74.7125 132.896 74.7125 132.61 74.8156 132.354C74.8706 132.231 74.9473 132.118 75.0419 132.021C75.136 131.923 75.2496 131.846 75.3753 131.795C75.5393 131.736 75.7132 131.71 75.8873 131.717C76.0064 131.723 76.1231 131.753 76.2297 131.807C76.3364 131.86 76.4307 131.935 76.5065 132.027C76.6974 132.221 76.8043 132.482 76.8043 132.753C76.8043 133.025 76.6974 133.286 76.5065 133.48C76.4281 133.568 76.333 133.639 76.2267 133.691C76.1204 133.742 76.0051 133.771 75.8873 133.777C75.7132 133.785 75.5393 133.759 75.3753 133.7C75.1251 133.597 74.9245 133.4 74.8156 133.152Z" fill="#BFA274"/>
<path d="M79.746 119.119C83.3778 119.119 85.4657 119.738 86.0095 120.977C86.4794 121.929 86.7566 122.965 86.8251 124.025V127.615H88.9149V129.675H79.1685V127.615H84.7532V124.019C84.7532 122.126 83.0841 121.179 79.746 121.179V119.119Z" fill="#BFA274"/>
<path d="M87.9984 127.615H92.6722V129.675H87.9984V127.615Z" fill="#BFA274"/>
<path d="M96.1247 115.023V126.293C96.1215 127.19 95.7634 128.05 95.1286 128.683C94.4938 129.317 93.6339 129.674 92.7369 129.675H91.7665V127.615H92.731C92.9058 127.618 93.0792 127.584 93.2409 127.518C93.4026 127.451 93.5491 127.353 93.6717 127.228C93.7972 127.109 93.8965 126.965 93.9632 126.805C94.0298 126.645 94.0623 126.473 94.0587 126.299V115.029H96.1306L96.1247 115.023Z" fill="#BFA274"/>
<path d="M100.472 115.023V129.669H98.3997V115.023H100.472Z" fill="#BFA274"/>
<path d="M108.657 127.615C108.099 126.613 107.813 125.482 107.83 124.335C107.81 123.185 108.21 122.067 108.955 121.191C109.705 120.304 110.854 119.839 112.402 119.816H114.605V121.876H112.462C112.105 121.882 111.754 121.96 111.429 122.105C111.103 122.25 110.811 122.46 110.568 122.721C110.124 123.232 109.886 123.89 109.902 124.567C109.901 125.29 110.079 126.001 110.42 126.639C110.765 127.294 111.17 127.621 111.646 127.621H116.493V129.681H106.288V127.621H108.663L108.657 127.615Z" fill="#BFA274"/>
<path d="M122.805 119.119V127.615H127.347V115.023H129.419V127.615H131.521V129.675H118.792V127.615H120.739V119.119H122.811H122.805Z" fill="#BFA274"/>
<path d="M130.604 127.615H135.278V129.675H130.604V127.615Z" fill="#BFA274"/>
<path d="M138.534 123.835V127.615H144.655V129.675H134.36V127.615H136.462V123.835C136.453 123.213 136.569 122.596 136.803 122.02C137.036 121.444 137.383 120.921 137.821 120.481C138.26 120.041 138.783 119.693 139.358 119.458C139.934 119.223 140.55 119.106 141.172 119.113C141.991 119.123 142.797 119.325 143.523 119.703L142.696 121.59C142.222 121.348 141.703 121.206 141.172 121.173C140.821 121.171 140.474 121.239 140.151 121.374C139.827 121.509 139.535 121.708 139.29 121.959C139.041 122.205 138.845 122.5 138.714 122.824C138.583 123.149 138.52 123.497 138.528 123.847L138.534 123.835Z" fill="#BFA274"/>
<path d="M153.406 3.5366C152.87 2.28629 152.453 0.887127 151.137 0C148.857 1.32176 146.624 2.60779 144.368 3.91765C144.749 4.63806 145.052 5.13819 145.291 5.66808C146.803 8.99034 147.38 12.4495 145.487 15.7182C142.558 20.7611 137.848 23.5237 132.418 25.2682C132.192 24.6609 132.008 24.2561 131.894 23.8274C130.329 18.1236 126.596 14.3607 121.314 11.9732C116.289 9.70481 110.967 9.38925 105.614 9.91319C102.358 10.1901 99.169 10.9944 96.1712 12.2947C96.8916 14.3845 97.6359 16.391 98.261 18.4332C98.6064 19.5525 99.2375 19.8323 100.267 19.5049C102.604 18.8054 105.003 18.3328 107.43 18.0938C111.854 17.5758 116.027 18.2367 119.796 20.5766C122.178 22.0531 123.809 24.2144 124.041 27.0961C123.303 27.8105 122.523 27.6319 121.803 27.6438C118.927 27.6914 116.081 27.9594 113.175 27.7808C109.701 27.5865 106.241 27.1989 102.81 26.6198C94.7244 25.2206 86.8237 22.9998 78.905 20.8683C68.1464 17.9688 57.4949 14.6406 46.2838 13.6641C42.0862 13.2437 37.8489 13.4726 33.7211 14.3429C31.3217 14.8728 28.8449 15.5217 26.7908 17.2722C28.0591 19.6426 29.4523 21.944 30.9644 24.1668C33.5842 22.8867 35.9836 21.8864 38.7521 21.7495C43.4199 21.5292 47.6948 22.7259 51.8387 24.6847C58.6023 27.882 64.455 32.4426 70.3374 36.9616C75.803 41.1591 81.0722 45.6185 86.7344 49.56C88.7527 50.9651 90.7651 52.3881 93.0335 53.9837C86.7434 55.9416 80.2594 57.2112 73.6954 57.7704C74.1717 60.6878 75.3565 63.2241 76.1841 65.9451H127.137C127.935 63.2777 129.049 60.795 129.501 57.9073C126.643 57.4548 123.863 57.1631 121.16 56.5558C118.504 55.9545 115.801 55.3948 113.211 54.1207C113.428 53.9303 113.654 53.7514 113.89 53.5848C121.219 48.9825 127.715 43.5883 131.109 35.2826C131.258 34.9126 131.498 34.5864 131.807 34.3345C132.116 34.0825 132.484 33.913 132.877 33.8418C139.212 31.9246 144.916 28.9358 149.554 24.0477C155.043 18.2605 156.561 10.836 153.43 3.52469L153.406 3.5366ZM114.7 43.0227C111.55 45.5007 108.142 47.6326 104.536 49.3814C104.131 49.6189 103.669 49.7421 103.199 49.7379C102.73 49.7337 102.27 49.6023 101.869 49.3576C96.1892 46.2915 90.7691 42.7671 85.6626 38.8192C81.227 35.4732 76.9343 31.9366 72.5879 28.4714C72.3725 28.2447 72.1773 27.9997 72.0045 27.7391C88.1871 32.0259 104.024 36.9438 120.951 36.3424C119.21 38.8647 117.105 41.1157 114.706 43.0227H114.7Z" fill="#BFA274"/>
<path d="M123.541 49.0779C123.802 49.8198 124.125 50.5387 124.505 51.2272C131.626 51.0724 138.763 50.9196 145.916 50.7688V50.6616C138.521 50.1376 131.12 49.6197 123.541 49.0838V49.0779Z" fill="#475669"/>
<path d="M127.708 43.7194C127.969 44.4613 128.292 45.1802 128.672 45.8687C135.793 45.7139 142.93 45.5611 150.082 45.4103V45.3031C142.688 44.7792 135.287 44.2612 127.708 43.7253V43.7194Z" fill="#475669"/>
<path d="M132.473 38.3609C132.734 39.1028 133.057 39.8217 133.437 40.5102C140.558 40.3554 147.695 40.2026 154.847 40.0518V39.9446C147.452 39.4207 140.052 38.9027 132.473 38.3669V38.3609Z" fill="#475669"/>
<path d="M112.203 76.6738C114.669 76.6738 116.669 74.6746 116.669 72.2084C116.669 69.7422 114.669 67.743 112.203 67.743C109.737 67.743 107.738 69.7422 107.738 72.2084C107.738 74.6746 109.737 76.6738 112.203 76.6738Z" fill="#BFA274"/>
<path d="M91.9635 76.6738C94.4296 76.6738 96.4289 74.6746 96.4289 72.2084C96.4289 69.7422 94.4296 67.743 91.9635 67.743C89.4973 67.743 87.4981 69.7422 87.4981 72.2084C87.4981 74.6746 89.4973 76.6738 91.9635 76.6738Z" fill="#BFA274"/>
</svg>
