<svg width="20" height="20" viewBox="0 0 20 20" fill="none" xmlns="http://www.w3.org/2000/svg">
<path fill-rule="evenodd" clip-rule="evenodd" d="M10.9412 0.29457C9.95939 -0.0981901 8.86414 -0.0981901 7.88235 0.29457L1.10941 3.00633C0.782246 3.13718 0.50174 3.36296 0.304018 3.65462C0.106296 3.94628 0.000411149 4.29045 2.45685e-08 4.64281V13.6381C-5.8825e-05 13.9909 0.105607 14.3355 0.303359 14.6277C0.501111 14.9198 0.781874 15.1459 1.10941 15.2769L7.88235 17.9863C8.39668 18.1923 8.94728 18.2923 9.50118 18.2805C9.21482 17.8937 8.97253 17.4762 8.77882 17.0357C8.62228 17.0013 8.46882 16.9541 8.32 16.8946L1.54588 14.1852C1.43665 14.1414 1.34306 14.0659 1.27721 13.9683C1.21135 13.8708 1.17626 13.7558 1.17647 13.6381V4.71575L8.82353 7.77457V11.7357C9.11838 11.0952 9.51575 10.5071 10 9.99457V7.77339L17.6471 4.71457V8.66869C18.0682 8.88398 18.4624 9.14398 18.8235 9.4428V4.64281C18.8236 4.29004 18.7179 3.94536 18.5202 3.65324C18.3224 3.36112 18.0417 3.13497 17.7141 3.00398L10.9412 0.29457ZM8.32 1.38869C9.02122 1.10819 9.80348 1.10819 10.5047 1.38869L16.6518 3.84751L13.9706 4.9181L6.73059 2.02398L8.32 1.38869ZM5.14706 2.65575L12.3871 5.55104L9.41177 6.74281L2.17176 3.84633L5.14706 2.65575ZM14.7059 19.7287C16.11 19.7287 17.4565 19.1709 18.4494 18.1781C19.4422 17.1852 20 15.8387 20 14.4346C20 13.0305 19.4422 11.6839 18.4494 10.6911C17.4565 9.69822 16.11 9.14045 14.7059 9.14045C13.3018 9.14045 11.9552 9.69822 10.9624 10.6911C9.96954 11.6839 9.41177 13.0305 9.41177 14.4346C9.41177 15.8387 9.96954 17.1852 10.9624 18.1781C11.9552 19.1709 13.3018 19.7287 14.7059 19.7287ZM12.3262 11.7647C12.1773 11.7647 12.0345 11.8239 11.9291 11.9291C11.8239 12.0345 11.7647 12.1773 11.7647 12.3262C11.7647 12.4752 11.8239 12.618 11.9291 12.7233L13.9151 14.7093L11.9291 16.6952C11.8268 16.8012 11.7702 16.943 11.7715 17.0903C11.7728 17.2376 11.8319 17.3784 11.936 17.4826C12.0401 17.5867 12.181 17.6458 12.3282 17.647C12.4755 17.6483 12.6174 17.5917 12.7233 17.4894L14.7093 15.5034L16.6952 17.4894C16.8012 17.5917 16.943 17.6483 17.0903 17.647C17.2376 17.6458 17.3784 17.5867 17.4826 17.4826C17.5867 17.3784 17.6458 17.2376 17.647 17.0903C17.6483 16.943 17.5917 16.8012 17.4894 16.6952L15.5034 14.7093L17.4894 12.7233C17.5917 12.6174 17.6483 12.4755 17.647 12.3282C17.6458 12.181 17.5867 12.0401 17.4826 11.936C17.3784 11.8319 17.2376 11.7728 17.0903 11.7715C16.943 11.7702 16.8012 11.8268 16.6952 11.9291L14.7093 13.9151L12.7233 11.9291C12.618 11.8239 12.4752 11.7647 12.3262 11.7647Z" fill="#EB3C3C"/>
</svg>
