<svg width="16" height="19" viewBox="0 0 16 19" fill="none" xmlns="http://www.w3.org/2000/svg">
<path d="M5.13514 10.373H10.373M5.13514 13.8649H7.75405M0.77027 2.51622V16.4838C0.77027 16.9468 0.954218 17.3909 1.28165 17.7184C1.60907 18.0458 2.05316 18.2297 2.51622 18.2297H12.9919C13.4549 18.2297 13.899 18.0458 14.2265 17.7184C14.5539 17.3909 14.7378 16.9468 14.7378 16.4838V6.30667C14.7378 6.07407 14.6913 5.84383 14.6011 5.62945C14.5108 5.41508 14.3786 5.2209 14.2123 5.05831L10.3363 1.26786C10.0101 0.948931 9.57208 0.770327 9.11589 0.77027H2.51622C2.05316 0.77027 1.60907 0.954218 1.28165 1.28165C0.954218 1.60907 0.77027 2.05316 0.77027 2.51622Z" stroke="white" stroke-width="1.5" stroke-linecap="round" stroke-linejoin="round"/>
<path d="M9.5 0.77027V4.26216C9.5 4.72522 9.68395 5.1693 10.0114 5.49673C10.3388 5.82416 10.7829 6.00811 11.2459 6.00811H14.7378" stroke="white" stroke-width="1.5" stroke-linejoin="round"/>
</svg>
