<svg width="23" height="23" viewBox="0 0 23 23" fill="none" xmlns="http://www.w3.org/2000/svg">
<path d="M1.01496 0.0732495L22.6077 10.8606C22.7254 10.9195 22.8246 11.0106 22.8939 11.1236C22.9633 11.2366 23 11.367 23 11.5001C23 11.6332 22.9633 11.7636 22.8939 11.8766C22.8246 11.9897 22.7254 12.0807 22.6077 12.1396L1.01356 22.927C0.892583 22.9872 0.757075 23.0109 0.623174 22.9953C0.489273 22.9797 0.362622 22.9254 0.258304 22.8389C0.153987 22.7523 0.0763991 22.6372 0.0347825 22.5072C-0.00683413 22.3772 -0.010726 22.2379 0.02357 22.1057L2.16245 13.9147C2.19712 13.7821 2.26876 13.6625 2.36878 13.5702C2.4688 13.4779 2.59295 13.4168 2.72635 13.3942L12.4026 11.7589C12.4603 11.7492 12.5147 11.7251 12.5608 11.6888C12.607 11.6524 12.6435 11.605 12.667 11.5507L12.6923 11.4652C12.7055 11.3859 12.6918 11.3044 12.6535 11.234C12.6152 11.1636 12.5545 11.1084 12.4814 11.0774L12.4026 11.0546L2.67291 9.41064C2.53977 9.38782 2.41592 9.32661 2.31617 9.23432C2.21642 9.14203 2.14499 9.02258 2.11042 8.89023L0.02357 0.89592C-0.0110828 0.763665 -0.00746012 0.624092 0.0340057 0.493868C0.0754715 0.363644 0.153028 0.248271 0.257414 0.161527C0.3618 0.0747836 0.488605 0.0203337 0.622686 0.00468001C0.756767 -0.0109737 0.892459 0.0128305 1.01356 0.0732495H1.01496Z" fill="white"/>
</svg>
