<svg width="15" height="15" viewBox="0 0 15 15" fill="none" xmlns="http://www.w3.org/2000/svg">
<g clip-path="url(#clip0_721_8847)">
<path d="M4.375 15.0004C5.06535 15.0004 5.625 14.4408 5.625 13.7504C5.625 13.06 5.06535 12.5004 4.375 12.5004C3.68464 12.5004 3.125 13.06 3.125 13.7504C3.125 14.4408 3.68464 15.0004 4.375 15.0004Z" fill="#07CB6F"/>
<path d="M10.625 15.0004C11.3154 15.0004 11.875 14.4408 11.875 13.7504C11.875 13.06 11.3154 12.5004 10.625 12.5004C9.93464 12.5004 9.375 13.06 9.375 13.7504C9.375 14.4408 9.93464 15.0004 10.625 15.0004Z" fill="#07CB6F"/>
<path d="M14.8031 0.834614C14.6859 0.717445 14.5269 0.651623 14.3612 0.651623C14.1955 0.651623 14.0365 0.717445 13.9193 0.834614L10.6949 4.06211L9.72556 3.05024C9.66868 2.99106 9.6007 2.94367 9.5255 2.91076C9.45031 2.87786 9.36937 2.86008 9.28731 2.85846C9.20524 2.85683 9.12366 2.87139 9.04722 2.90129C8.97078 2.93119 8.90098 2.97586 8.84181 3.03274C8.78263 3.08962 8.73523 3.1576 8.70233 3.23279C8.66942 3.30799 8.65165 3.38893 8.65003 3.47099C8.64674 3.63673 8.70943 3.79698 8.82431 3.91649L9.83306 4.96586C9.94054 5.08196 10.0705 5.17505 10.2149 5.2395C10.3594 5.30396 10.5155 5.33844 10.6737 5.34086H10.6943C10.8493 5.34138 11.0029 5.31109 11.1462 5.25176C11.2894 5.19242 11.4194 5.10523 11.5287 4.99524L14.8031 1.71836C14.9202 1.60116 14.986 1.44222 14.986 1.27649C14.986 1.11076 14.9202 0.951819 14.8031 0.834614Z" fill="#07CB6F"/>
<path d="M13.6875 5.635C13.6067 5.6204 13.5238 5.62187 13.4436 5.63932C13.3633 5.65677 13.2873 5.68986 13.2199 5.7367C13.1524 5.78354 13.0949 5.84321 13.0505 5.9123C13.0061 5.9814 12.9758 6.05856 12.9613 6.13937L12.8813 6.5825C12.8033 7.0152 12.5757 7.40674 12.2384 7.6887C11.901 7.97065 11.4753 8.12508 11.0356 8.125H3.38625L2.79875 3.125H6.875C7.04076 3.125 7.19973 3.05915 7.31694 2.94194C7.43415 2.82473 7.5 2.66576 7.5 2.5C7.5 2.33424 7.43415 2.17527 7.31694 2.05806C7.19973 1.94085 7.04076 1.875 6.875 1.875H2.65125L2.625 1.655C2.57114 1.19912 2.35191 0.778846 2.00887 0.473815C1.66582 0.168784 1.2228 0.000195523 0.76375 0L0.625 0C0.45924 0 0.300269 0.065848 0.183058 0.183058C0.065848 0.300269 0 0.45924 0 0.625C0 0.79076 0.065848 0.949732 0.183058 1.06694C0.300269 1.18415 0.45924 1.25 0.625 1.25H0.76375C0.916833 1.25002 1.06459 1.30622 1.17898 1.40795C1.29338 1.50967 1.36646 1.64984 1.38437 1.80187L2.24437 9.11438C2.33366 9.87487 2.69905 10.5761 3.27119 11.085C3.84334 11.5939 4.58241 11.875 5.34812 11.875H11.875C12.0408 11.875 12.1997 11.8092 12.3169 11.6919C12.4342 11.5747 12.5 11.4158 12.5 11.25C12.5 11.0842 12.4342 10.9253 12.3169 10.8081C12.1997 10.6908 12.0408 10.625 11.875 10.625H5.34812C4.96032 10.6251 4.58204 10.5049 4.26538 10.281C3.94872 10.0572 3.70927 9.74062 3.58 9.375H11.0356C11.7683 9.37504 12.4777 9.11764 13.0399 8.64777C13.6021 8.1779 13.9813 7.52544 14.1112 6.80438L14.1912 6.36063C14.2206 6.19761 14.184 6.02963 14.0895 5.89357C13.9951 5.75752 13.8505 5.66452 13.6875 5.635Z" fill="#07CB6F"/>
</g>
<defs>
<clipPath id="clip0_721_8847">
<rect width="15" height="15" fill="white"/>
</clipPath>
</defs>
</svg>
