<svg width="36" height="36" viewBox="0 0 36 36" fill="none" xmlns="http://www.w3.org/2000/svg">
<path d="M35.6962 10.3364C34.742 9.70061 34.1883 8.59707 34.2545 7.44742C34.2728 7.13017 34.0688 6.84239 33.7657 6.74677L12.4846 0.032751C12.1815 -0.0628722 11.8492 0.0556724 11.6822 0.326019C11.0767 1.30559 9.99 1.89157 8.84365 1.86464C8.53653 1.8574 8.26393 2.06151 8.17147 2.3545L5.72028 10.1237C5.62782 10.4167 5.73392 10.7403 5.98964 10.9107C6.94384 11.5465 7.49761 12.65 7.43131 13.7997C7.41302 14.1169 7.61707 14.4047 7.92011 14.5003L29.2012 21.2144C29.5042 21.31 29.8365 21.1915 30.0036 20.9211C30.609 19.9416 31.6958 19.3556 32.8421 19.3825C33.1492 19.3898 33.4218 19.1857 33.5143 18.8927L35.9655 11.1234C36.0579 10.8304 35.9518 10.5068 35.6962 10.3364Z" fill="#706C64"/>
<path d="M35.9668 11.1233L33.5155 18.8929C33.4231 19.1857 33.1501 19.3898 32.8429 19.3825C31.697 19.3554 30.6104 19.9414 30.0045 20.921C29.8375 21.1917 29.5054 21.3103 29.2019 21.2145L21.0688 18.6485C26.7666 19.3578 32.3363 15.9267 34.1258 10.2545C34.2747 9.7826 34.3934 9.30857 34.482 8.8346C34.7222 9.43808 35.1419 9.96654 35.6969 10.3364C35.9527 10.5067 36.0592 10.8306 35.9668 11.1233Z" fill="#595751"/>
<path d="M26.3545 6.8146L14.5422 3.0879C13.938 2.89728 13.6027 2.25288 13.7933 1.6487C13.9839 1.04444 14.6283 0.709199 15.2325 0.899813L27.0448 4.62652C27.6491 4.81713 27.9843 5.46153 27.7937 6.06572C27.6031 6.66997 26.9587 7.00521 26.3545 6.8146Z" fill="#8F8B81"/>
<path d="M19.7435 2.32286L12.4846 0.032751C12.1815 -0.0628722 11.8492 0.0556724 11.6822 0.326019C11.0767 1.30559 9.99 1.89157 8.84365 1.86464C8.53646 1.85747 8.26393 2.06151 8.17147 2.3545L5.72028 10.1237C5.62782 10.4167 5.73392 10.7403 5.98964 10.9107C6.94384 11.5465 7.49754 12.65 7.43131 13.7997C7.41302 14.1169 7.61707 14.4047 7.92011 14.5003L15.179 16.7905L19.7435 2.32286Z" fill="#E8E4D8"/>
<path d="M19.7428 2.32282L15.1783 16.7906L8.33571 14.6319C12.1962 13.5085 15.442 10.5392 16.7424 6.41754C17.2552 4.79208 17.4177 3.14061 17.2719 1.54335L19.7428 2.32282Z" fill="#D8D4C9"/>
<path d="M19.7442 2.32285L15.2335 0.899752C14.6292 0.709138 13.9849 1.04438 13.7943 1.64864C13.6037 2.25289 13.9389 2.89722 14.5432 3.08784L19.0539 4.51093L19.7442 2.32285Z" fill="#F1EEE0"/>
<path d="M15.265 2.1127C15.0743 2.71695 15.4096 3.36129 16.0138 3.5519L17.3102 3.9609C17.9144 4.15151 18.5588 3.81627 18.7494 3.21202C18.94 2.60776 18.6047 1.96343 18.0005 1.77282L16.7042 1.36382C16.1 1.17313 15.4556 1.50845 15.265 2.1127Z" fill="white"/>
<path d="M32.2923 12.3611C32.4569 11.8395 32.1674 11.2832 31.6458 11.1186L25.8906 9.30287C25.3689 9.13828 24.8126 9.42775 24.648 9.94946C24.4834 10.4711 24.7729 11.0274 25.2946 11.192L31.0497 13.0076C31.5714 13.1722 32.1277 12.8828 32.2923 12.3611Z" fill="#E8E4D8"/>
<path d="M28.495 10.1246L30.1004 10.6311C30.622 10.7957 30.9115 11.352 30.747 11.8736C30.5824 12.3953 30.0261 12.6847 29.5044 12.5202L27.899 12.0137C27.3774 11.8491 27.0879 11.2928 27.2524 10.7711C27.417 10.2494 27.9733 9.95997 28.495 10.1246Z" fill="#F9F8F2"/>
<path d="M31.2168 15.7702C31.3814 15.2486 31.0919 14.6923 30.5702 14.5277L20.1241 11.2319C19.6025 11.0673 19.0462 11.3568 18.8816 11.8785C18.717 12.4001 19.0065 12.9564 19.5282 13.121L29.9743 16.4167C30.4959 16.5813 31.0522 16.2918 31.2168 15.7702Z" fill="#E8E4D8"/>
<path d="M24.1259 12.4947L28.8227 13.9766C29.3444 14.1412 29.6338 14.6975 29.4693 15.2191C29.3047 15.7407 28.7484 16.0302 28.2268 15.8657L23.53 14.3839C23.0083 14.2193 22.7189 13.663 22.8834 13.1413C23.048 12.6196 23.6043 12.3301 24.1259 12.4947Z" fill="#F9F8F2"/>
<path d="M8.74376 7.01599L9.94411 6.5648C10.1764 6.47755 10.4381 6.53316 10.6147 6.70732L11.5278 7.60773C11.6376 7.71601 11.783 7.7807 11.9369 7.78984L13.217 7.86591C13.4646 7.88061 13.6812 8.03796 13.7716 8.26894L14.2396 9.46289C14.2958 9.60647 14.4023 9.72466 14.5392 9.7956L15.6776 10.3857C15.8979 10.4999 16.0317 10.7317 16.0205 10.9795L15.9623 12.2605C15.9554 12.4146 16.0045 12.5659 16.1007 12.6863L16.9007 13.6885C17.0555 13.8824 17.0834 14.1486 16.9723 14.3704L16.3982 15.517C16.3291 15.6549 16.3125 15.8131 16.3514 15.9623L16.6746 17.2032C16.7371 17.4433 16.6544 17.6979 16.4627 17.8553L15.4718 18.6692C15.3527 18.7671 15.2731 18.9049 15.248 19.057L15.0385 20.3221C14.998 20.5669 14.8189 20.7658 14.5797 20.8316L13.3434 21.1722C13.1948 21.2131 13.0661 21.3066 12.9812 21.4353L12.2753 22.5059C12.1387 22.713 11.8942 22.8219 11.6489 22.7847L10.381 22.593C10.2286 22.57 10.0729 22.6031 9.94306 22.6861L8.86273 23.377C8.65369 23.5106 8.38609 23.5106 8.17705 23.377L7.09672 22.6861C6.96686 22.6031 6.81119 22.57 6.65875 22.593L5.39083 22.7847C5.14551 22.8219 4.90104 22.713 4.7645 22.5059L4.05857 21.4353C3.97371 21.3066 3.84497 21.2131 3.69633 21.1722L2.46005 20.8316C2.22085 20.7658 2.04177 20.5669 2.00127 20.3221L1.79181 19.057C1.76664 18.9049 1.68705 18.7671 1.56794 18.6692L0.576975 17.8554C0.385236 17.6979 0.30255 17.4434 0.365127 17.2034L0.688348 15.9625C0.72723 15.8133 0.710566 15.655 0.641521 15.5172L0.0673594 14.3705C-0.0437323 14.1487 -0.0157485 13.8825 0.139006 13.6887L0.939007 12.6864C1.03519 12.5659 1.08434 12.4146 1.07738 12.2606L1.01923 10.9796C1.00798 10.7318 1.14178 10.5001 1.36207 10.3859L2.50055 9.79574C2.63744 9.7248 2.7439 9.60654 2.80014 9.46303L3.26807 8.26908C3.35856 8.0381 3.57511 7.88075 3.82275 7.86605L5.10284 7.78998C5.25675 7.78084 5.40208 7.71615 5.51191 7.60787L6.42497 6.70747C6.60159 6.53323 6.86343 6.47762 7.0956 6.56494L8.29595 7.01613C8.4403 7.0702 8.59941 7.0702 8.74376 7.01599Z" fill="#FE255F"/>
<path d="M16.3983 15.517C16.3294 15.6548 16.3127 15.8131 16.3513 15.9622L16.6746 17.2033C16.7375 17.4433 16.6542 17.6977 16.4626 17.8552L15.4715 18.6692C15.3526 18.7669 15.273 18.9047 15.2481 19.0569L15.0383 20.3222C14.9982 20.5667 14.8188 20.7659 14.5795 20.8318L13.3438 21.1725C13.1946 21.2134 13.0659 21.3065 12.9811 21.4353L12.2754 22.506C12.1384 22.7135 11.8945 22.8224 11.6492 22.7854L10.3809 22.5931C10.2287 22.5704 10.0728 22.6037 9.94324 22.6862L8.8627 23.3775C8.65374 23.5108 8.38564 23.5108 8.17668 23.3775L7.09691 22.6862C6.96669 22.6037 6.81144 22.5704 6.65852 22.5931L5.39102 22.7854C5.1457 22.8225 4.90109 22.7135 4.76405 22.506L4.05834 21.4352C3.97354 21.3065 3.8448 21.2134 3.69638 21.1724L2.45988 20.8317C2.22062 20.7658 2.04188 20.5667 2.00103 20.3221L1.80269 19.1212C3.01724 19.9163 4.46874 20.3781 6.02853 20.3781C10.2975 20.3781 13.7587 16.9178 13.7587 12.6488C13.7587 10.811 13.1174 9.12329 12.0459 7.79672L13.2165 7.86563C13.4649 7.88075 13.6814 8.03824 13.7715 8.26922L14.2395 9.46254C14.2955 9.60639 14.4022 9.72452 14.5393 9.79567L15.6774 10.3855C15.8978 10.4998 16.0318 10.7315 16.0204 10.9791L15.9621 12.2603C15.9553 12.4148 16.0045 12.5662 16.1007 12.6866L16.901 13.6884C17.0555 13.8822 17.0835 14.1488 16.9722 14.3706L16.3983 15.517Z" fill="#E01152"/>
<path d="M6.02109 11.0596C5.22861 11.0596 4.58386 11.7043 4.58386 12.4969C4.58386 13.2894 5.22861 13.9341 6.02109 13.9341C6.81364 13.9341 7.45839 13.2894 7.45839 12.4969C7.45839 11.7043 6.81364 11.0596 6.02109 11.0596Z" fill="#FFC751"/>
<path d="M11.0279 16.0672C10.2353 16.0672 9.59056 16.7119 9.59056 17.5044C9.59056 18.297 10.2353 18.9417 11.0279 18.9417C11.8203 18.9417 12.4651 18.297 12.4651 17.5044C12.4651 16.7119 11.8203 16.0672 11.0279 16.0672Z" fill="#FFC751"/>
<path d="M5.65383 17.8676C5.20244 17.4162 5.20244 16.6843 5.65383 16.2329L10.0515 11.8352C10.5029 11.3838 11.2348 11.3838 11.6862 11.8352C12.1376 12.2866 12.1376 13.0185 11.6862 13.4699L7.2885 17.8676C6.8371 18.319 6.10523 18.319 5.65383 17.8676Z" fill="#FFC751"/>
<path d="M8.54946 13.339L7.72604 14.1624C7.27465 14.6138 7.27465 15.3457 7.72604 15.7971C8.17744 16.2485 8.90931 16.2485 9.36071 15.7971L10.1841 14.9737C10.6355 14.5223 10.6355 13.7904 10.1841 13.339C9.73272 12.8876 9.00086 12.8876 8.54946 13.339Z" fill="#FFE059"/>
<path d="M5.84033 35.0156L3.00117 24.5855C2.80774 23.8748 3.22701 23.1419 3.93771 22.9484L29.2243 16.0651C29.935 15.8717 30.6679 16.291 30.8614 17.0017L33.7006 27.4318C33.894 28.1425 33.4747 28.8754 32.764 29.0689L7.47746 35.9522C6.76668 36.1457 6.03376 35.7263 5.84033 35.0156Z" fill="#FE255F"/>
<path d="M30.8608 17.0019L33.7 27.4319C33.8934 28.1426 33.4741 28.8756 32.7634 29.0691L22.4281 31.8824C27.3082 28.8777 29.8441 22.9179 28.2627 17.1085C28.1963 16.8644 28.1234 16.6234 28.0437 16.3866L29.2237 16.0654C29.9344 15.8719 30.6673 16.2912 30.8608 17.0019Z" fill="#E01152"/>
<path d="M6.64664 23.7663C6.86432 24.5659 7.68893 25.0377 8.48851 24.82L23.6302 20.6983C24.4298 20.4806 24.9016 19.656 24.6839 18.8564C24.4662 18.0568 23.6416 17.585 22.842 17.8027L7.70032 21.9244C6.90068 22.1421 6.42896 22.9667 6.64664 23.7663Z" fill="#FC709B"/>
<path d="M15.1071 19.9082L11.1407 20.9879C10.3411 21.2055 9.86929 22.0301 10.087 22.8297C10.3047 23.6293 11.1293 24.1011 11.9288 23.8834L15.8953 22.8037C16.6949 22.586 17.1667 21.7614 16.949 20.9618C16.7314 20.1623 15.9067 19.6905 15.1071 19.9082Z" fill="#F7A6C1"/>
<path d="M22.3441 26.5515L21.0267 26.91L19.9893 23.0988C19.8687 22.6562 19.4123 22.395 18.9696 22.5155C18.5269 22.636 18.2658 23.0926 18.3863 23.5352L19.6419 28.1479C19.7624 28.5906 20.219 28.8518 20.6616 28.7312L22.7805 28.1545C23.2232 28.034 23.4843 27.5774 23.3638 27.1348C23.2433 26.6922 22.7867 26.4309 22.3441 26.5515Z" fill="#F9F8F2"/>
<path d="M10.2464 26.6642C10.3109 26.6118 10.385 26.5739 10.4667 26.5517C10.6593 26.4993 10.8648 26.546 11.0166 26.6767C11.3643 26.976 11.8888 26.9368 12.1881 26.5891C12.4874 26.2414 12.4482 25.7169 12.1005 25.4177C11.53 24.9265 10.7561 24.7512 10.0304 24.9487C9.72393 25.0321 9.44424 25.1755 9.19885 25.3747C8.67918 25.797 8.43035 26.4703 8.54974 27.1319C8.67018 27.7995 9.14359 28.3487 9.7851 28.5652L11.4382 29.1229C11.5378 29.1565 11.5652 29.2427 11.5723 29.2782C11.5918 29.3743 11.5413 29.4189 11.5247 29.4336C11.4561 29.494 11.3758 29.5371 11.286 29.5615C11.0774 29.6184 10.8531 29.5578 10.7008 29.4035C10.3785 29.077 9.85282 29.0734 9.52608 29.3957C9.19955 29.7179 9.19604 30.2438 9.51827 30.5704C10.0912 31.151 10.9357 31.3787 11.7224 31.1646C12.0597 31.0727 12.363 30.9095 12.6239 30.6793C13.1159 30.2452 13.3317 29.5987 13.201 28.9501C13.0696 28.2977 12.5977 27.7607 11.9694 27.5487L10.3162 26.9911C10.2202 26.9587 10.1926 26.8807 10.1848 26.8371C10.172 26.766 10.1927 26.7079 10.2464 26.6642Z" fill="#F9F8F2"/>
<path d="M27.4452 25.1628L25.4866 25.696L25.2952 24.9927L26.4766 24.6711C26.9193 24.5505 27.1804 24.094 27.0599 23.6514C26.9394 23.2088 26.4829 22.9476 26.0402 23.0681L24.8588 23.3897L24.6673 22.6863L26.6259 22.1531C27.0686 22.0326 27.3297 21.5761 27.2092 21.1335C27.0887 20.6909 26.6322 20.4297 26.1896 20.5502L23.4294 21.3015C22.9868 21.422 22.7256 21.8786 22.8461 22.3212L24.1018 26.9339C24.2223 27.3766 24.6788 27.6378 25.1214 27.5172L27.8816 26.7659C28.3242 26.6454 28.5854 26.1889 28.4649 25.7462C28.3443 25.3036 27.8879 25.0423 27.4452 25.1628Z" fill="#F9F8F2"/>
<path d="M18.8155 28.0797L15.8741 23.8977C15.7846 23.7706 15.6657 23.677 15.5334 23.618C15.1854 23.4543 14.7375 23.5763 14.5205 23.8937C14.4364 24.0117 14.3812 24.1526 14.3686 24.3076L13.9526 29.4035C13.9153 29.8607 14.2557 30.2616 14.713 30.2989C15.1573 30.3352 15.5473 30.0145 15.6034 29.5769L17.4805 29.0659C17.7506 29.4147 18.2495 29.4935 18.614 29.237C18.9892 28.9731 19.0795 28.455 18.8155 28.0797ZM16.462 27.6214L15.7491 27.8154L15.8374 26.7334L16.462 27.6214Z" fill="#F9F8F2"/>
<path d="M19.8893 22.4956C23.4344 22.4956 26.3083 19.6217 26.3083 16.0766C26.3083 12.5315 23.4344 9.65757 19.8893 9.65757C16.3442 9.65757 13.4703 12.5315 13.4703 16.0766C13.4703 19.6217 16.3442 22.4956 19.8893 22.4956Z" fill="#FFC751"/>
<path d="M26.3099 16.0763C26.3099 19.6214 23.4355 22.4958 19.8905 22.4958C19.4697 22.4958 19.0592 22.4554 18.6616 22.3772C21.8271 21.8748 24.2463 19.1327 24.2463 15.8255C24.2463 13.0285 22.5159 10.6359 20.0666 9.65947C23.53 9.75305 26.3099 12.5905 26.3099 16.0763Z" fill="#FFAF40"/>
<path d="M16.931 20.3734C16.9372 20.3672 16.9434 20.361 16.9496 20.3548C17.4274 19.8776 17.4461 19.1136 17.0008 18.6059C16.4077 17.9297 16.0477 17.0443 16.0477 16.0764C16.0477 14.415 17.1078 12.9974 18.587 12.4627C19.0906 12.2807 19.419 11.7935 19.419 11.2581C19.419 10.3671 18.5344 9.73985 17.6969 10.0442C15.232 10.9398 13.4713 13.3017 13.4713 16.0764C13.4713 17.7 14.0742 19.1824 15.0684 20.3125C15.5558 20.8665 16.409 20.8949 16.931 20.3734Z" fill="#FFE059"/>
<path d="M15.4421 11.4521C14.8761 11.9963 14.4098 12.6434 14.0732 13.3634C13.6768 14.2114 14.291 15.1846 15.2271 15.1846H15.2556C15.7497 15.1846 16.1994 14.8993 16.4092 14.452C16.6096 14.0246 16.8865 13.6402 17.2222 13.316C17.7069 12.848 17.7429 12.0855 17.3076 11.5712C17.302 11.5645 17.2963 11.5578 17.2907 11.5512C16.8185 10.9935 15.9688 10.9457 15.4421 11.4521Z" fill="#FFF370"/>
<path d="M17.6129 12.4964C16.8929 12.4964 16.3072 13.0822 16.3072 13.8022C16.3072 14.5221 16.8929 15.1079 17.6129 15.1079C18.3328 15.1079 18.9186 14.5221 18.9186 13.8022C18.9185 13.0822 18.3328 12.4964 17.6129 12.4964Z" fill="#FE255F"/>
<path d="M22.1626 17.0456C21.4426 17.0456 20.8569 17.6313 20.8569 18.3512C20.8569 19.0712 21.4426 19.657 22.1626 19.657C22.8825 19.657 23.4683 19.0712 23.4683 18.3512C23.4683 17.6313 22.8825 17.0456 22.1626 17.0456Z" fill="#FE255F"/>
<path d="M17.2837 18.6812C16.8736 18.2711 16.8736 17.6063 17.2837 17.1962L21.2789 13.201C21.689 12.7909 22.3539 12.7909 22.764 13.201C23.1741 13.6111 23.1741 14.276 22.764 14.686L18.7687 18.6812C18.3587 19.0914 17.6938 19.0914 17.2837 18.6812Z" fill="#FE255F"/>
<path d="M19.9125 14.5671L19.1645 15.3151C18.7544 15.7253 18.7544 16.3901 19.1645 16.8002C19.5746 17.2103 20.2395 17.2103 20.6495 16.8002L21.3976 16.0521C21.8077 15.642 21.8077 14.9771 21.3976 14.5671C20.9875 14.157 20.3227 14.157 19.9125 14.5671Z" fill="#FC709B"/>
</svg>
