<svg width="22" height="22" viewBox="0 0 22 22" fill="none" xmlns="http://www.w3.org/2000/svg">
<path d="M11.7242 19.25L2.75 10.2758V12.1092C2.75 12.595 2.9425 13.0625 3.29083 13.4017L10.4317 20.5425C11.1467 21.2575 12.3108 21.2575 13.0258 20.5425L18.7183 14.85C19.4333 14.135 19.4333 12.9708 18.7183 12.2558L11.7242 19.25Z" fill="#1A232B"/>
<path d="M10.4317 15.9592C10.7892 16.3167 11.2567 16.5 11.7242 16.5C12.1917 16.5 12.6592 16.3167 13.0167 15.9592L18.7092 10.2667C19.4242 9.55167 19.4242 8.3875 18.7092 7.6725L11.5683 0.531667C11.2292 0.1925 10.7617 0 10.2758 0H4.58333C3.575 0 2.75 0.825 2.75 1.83333V7.52583C2.75 8.01167 2.9425 8.47917 3.29083 8.81833L10.4317 15.9592ZM4.58333 1.83333H10.2758L17.4167 8.97417L11.7242 14.6667L4.58333 7.52583V1.83333Z" fill="#1A232B"/>
<path d="M6.64583 5.04167C7.27866 5.04167 7.79167 4.52866 7.79167 3.89583C7.79167 3.26301 7.27866 2.75 6.64583 2.75C6.01301 2.75 5.5 3.26301 5.5 3.89583C5.5 4.52866 6.01301 5.04167 6.64583 5.04167Z" fill="#1A232B"/>
</svg>
