<svg width="24" height="24" viewBox="0 0 24 24" fill="none" xmlns="http://www.w3.org/2000/svg">
<g clip-path="url(#clip0_843_19583)">
<path d="M22.4112 14.8076L9.16236 1.55866C7.08742 -0.515998 3.68421 -0.518716 1.56985 1.55866C-0.523282 3.65179 -0.523282 7.05772 1.56985 9.15085L14.8188 22.3998C15.8654 23.4464 17.2399 23.9696 18.6149 23.9696C19.9895 23.9696 21.3644 23.4464 22.4113 22.4001C24.5041 20.3069 24.5041 16.9007 22.4112 14.8076ZM21.1252 21.1137C19.7408 22.4971 17.4888 22.4971 16.1048 21.1137L2.85625 7.86477C1.47221 6.48077 1.47221 4.22846 2.85048 2.85022C3.55113 2.16172 4.46614 1.8176 5.37749 1.8176C6.28613 1.8176 7.19111 2.15989 7.87628 2.84446L21.1252 16.0934C22.5089 17.4777 22.5089 19.7297 21.1252 21.1137Z" fill="#FD44B3"/>
<path d="M22.411 1.5878C21.4035 0.580353 20.0549 0.0252075 18.6148 0.0252075C17.1747 0.0252075 15.8262 0.580025 14.8187 1.5878L1.56985 14.8367C-0.523282 16.9299 -0.523282 20.3358 1.56985 22.4289C2.61644 23.4755 3.99101 23.9991 5.36596 23.9991C6.74091 23.9991 8.11549 23.4758 9.16175 22.4289L22.441 9.1497C23.4523 8.1386 24.0063 6.7928 23.9999 5.36029C23.9938 3.92834 23.4275 2.58648 22.411 1.5878ZM21.1552 7.86363L7.87595 21.1428C6.49163 22.5262 4.23964 22.5268 2.85592 21.1428C1.47221 19.7585 1.47221 17.5068 2.85592 16.1228L16.1048 2.87388C16.7961 2.18265 17.7041 1.83671 18.6127 1.83671C19.5235 1.83671 20.4352 2.18415 21.1306 2.87964C21.804 3.54148 22.1769 4.42527 22.1812 5.36812C22.1851 6.31163 21.8207 7.19781 21.1552 7.86363Z" fill="#FD44B3"/>
<path d="M10.2465 11.4477C9.88273 11.0839 9.24603 11.0839 8.88223 11.4477C8.51842 11.8115 8.51842 12.4482 8.88223 12.812C9.24603 13.1758 9.88273 13.1758 10.2465 12.812C10.6407 12.4178 10.6407 11.8115 10.2465 11.4477Z" fill="#FD44B3"/>
<path d="M10.3528 11.338C9.93232 10.9196 9.19624 10.92 8.77633 11.3402C8.35581 11.761 8.35581 12.4986 8.77633 12.9191C8.98675 13.1292 9.27625 13.2344 9.5658 13.2344C9.85535 13.2344 10.1449 13.1295 10.355 12.9191C10.5803 12.6938 10.7009 12.4016 10.6948 12.0966C10.6891 11.8065 10.5675 11.5372 10.3528 11.338ZM10.1409 12.7048C9.83473 13.0107 9.29716 13.011 8.99097 12.7048C8.68478 12.3986 8.68478 11.861 8.99097 11.5548C9.14407 11.4018 9.35477 11.3253 9.5658 11.3253C9.77684 11.3253 9.98782 11.4018 10.1409 11.5548L10.1452 11.5591C10.3001 11.7019 10.3877 11.895 10.392 12.103C10.3965 12.3246 10.3074 12.5383 10.1409 12.7048Z" fill="#FD44B3"/>
<path d="M12.5512 13.7517C12.1874 13.3879 11.5507 13.3879 11.1869 13.7517C10.8231 14.1155 10.8231 14.7522 11.1869 15.116C11.5507 15.4798 12.1874 15.4798 12.5512 15.116C12.9454 14.7521 12.9454 14.1155 12.5512 13.7517Z" fill="#FD44B3"/>
<path d="M12.6557 13.6423C12.4541 13.4419 12.1672 13.327 11.8683 13.327C11.5682 13.327 11.2804 13.4425 11.0788 13.6444C10.8772 13.8463 10.7617 14.1337 10.7617 14.4339C10.7617 14.734 10.8769 15.0217 11.0788 15.2234C11.2808 15.425 11.5684 15.5408 11.8683 15.5408C12.1682 15.5408 12.4562 15.425 12.6532 15.227C12.8721 15.0251 12.9976 14.7359 12.9976 14.4336C12.9976 14.1325 12.873 13.8441 12.6557 13.6423ZM12.4434 15.0087C12.1372 15.3149 11.6 15.3149 11.2935 15.0087C11.1483 14.8634 11.0652 14.654 11.0652 14.4338C11.0652 14.2137 11.1483 14.0042 11.2935 13.859C11.4466 13.7059 11.6573 13.6292 11.8683 13.6292C12.0793 13.6292 12.2903 13.7059 12.4434 13.8587L12.448 13.8629C12.6044 14.0079 12.6944 14.2161 12.6944 14.4338C12.6944 14.6515 12.6044 14.8598 12.4434 15.0087Z" fill="#FD44B3"/>
<path d="M12.8247 8.87063C12.4609 8.50683 11.8241 8.50683 11.4603 8.87063C11.0966 9.23443 11.0966 9.87114 11.4603 10.2349C11.8241 10.5987 12.4609 10.5987 12.8247 10.2349C13.1885 9.87114 13.1885 9.23443 12.8247 8.87063Z" fill="#FD44B3"/>
<path d="M12.9334 8.76314C12.5129 8.34262 11.775 8.34262 11.3545 8.76314C10.9339 9.18366 10.9339 9.9213 11.3545 10.3418C11.5645 10.5522 11.8541 10.6574 12.1439 10.6574C12.4338 10.6574 12.7233 10.5522 12.9334 10.3418C13.3536 9.9213 13.3536 9.18366 12.9334 8.76314ZM12.7188 10.1278C12.428 10.4182 11.8593 10.4182 11.5688 10.1278C11.2626 9.82159 11.2626 9.28402 11.5688 8.97783C11.7219 8.82474 11.9329 8.74833 12.1439 8.74833C12.355 8.74833 12.566 8.82474 12.7188 8.97783C13.025 9.28431 13.025 9.82155 12.7188 10.1278Z" fill="#FD44B3"/>
<path d="M15.1293 11.1746C14.7655 10.8108 14.1288 10.8108 13.765 11.1746C13.4012 11.5384 13.4012 12.1751 13.765 12.5389C14.1288 12.9027 14.7655 12.9027 15.1293 12.5389C15.5235 12.1751 15.5235 11.5687 15.1293 11.1746Z" fill="#FD44B3"/>
<path d="M15.2362 11.0674C15.0343 10.8658 14.7469 10.75 14.4468 10.75C14.1466 10.75 13.8589 10.8655 13.6573 11.0674C13.4557 11.2694 13.3398 11.5568 13.3398 11.8569C13.3398 12.1571 13.4553 12.4448 13.6573 12.6464C13.8592 12.848 14.1469 12.9638 14.4468 12.9638C14.7466 12.9638 15.0346 12.848 15.2317 12.6501C15.4479 12.4506 15.57 12.1804 15.5761 11.8894C15.5822 11.5847 15.4615 11.2927 15.2362 11.0674ZM15.0219 12.4318C14.7157 12.7379 14.1781 12.7379 13.8719 12.4318C13.7267 12.2865 13.6433 12.077 13.6433 11.8569C13.6433 11.6368 13.7267 11.4273 13.8719 11.2821C14.0247 11.129 14.2361 11.0523 14.4468 11.0523C14.6575 11.0523 14.8688 11.1289 15.0219 11.2818C15.1883 11.4479 15.2774 11.6616 15.2729 11.8833C15.2687 12.0913 15.1811 12.2847 15.0219 12.4318Z" fill="#FD44B3"/>
</g>
<defs>
<clipPath id="clip0_843_19583">
<rect width="24" height="24" fill="white"/>
</clipPath>
</defs>
</svg>
