<svg width="13" height="14" viewBox="0 0 13 14" fill="none" xmlns="http://www.w3.org/2000/svg">
<path d="M12.7292 5.83333H7.58333V0.291667C7.58333 0.13125 7.46146 0 7.3125 0H5.6875C5.53854 0 5.41667 0.13125 5.41667 0.291667V5.83333H0.270833C0.121875 5.83333 0 5.96458 0 6.125V7.875C0 8.03542 0.121875 8.16667 0.270833 8.16667H5.41667V13.7083C5.41667 13.8687 5.53854 14 5.6875 14H7.3125C7.46146 14 7.58333 13.8687 7.58333 13.7083V8.16667H12.7292C12.8781 8.16667 13 8.03542 13 7.875V6.125C13 5.96458 12.8781 5.83333 12.7292 5.83333Z" fill="#BFA274"/>
</svg>
