<svg width="24" height="20" viewBox="0 0 24 20" fill="none" xmlns="http://www.w3.org/2000/svg">
<path d="M10.5 1.25H8.25C7.65326 1.25 7.08097 1.44754 6.65901 1.79917C6.23705 2.15081 6 2.62772 6 3.125V16.875C6 17.3723 6.23705 17.8492 6.65901 18.2008C7.08097 18.5525 7.65326 18.75 8.25 18.75H15.75C16.3467 18.75 16.919 18.5525 17.341 18.2008C17.7629 17.8492 18 17.3723 18 16.875V3.125C18 2.62772 17.7629 2.15081 17.341 1.79917C16.919 1.44754 16.3467 1.25 15.75 1.25H13.5M10.5 1.25V2.5H13.5V1.25M10.5 1.25H13.5M10.5 16.875H13.5" stroke="#7A808A" stroke-width="1.5" stroke-linecap="round" stroke-linejoin="round"/>
</svg>
