<svg width="15" height="15" viewBox="0 0 15 15" fill="none" xmlns="http://www.w3.org/2000/svg">
<g clip-path="url(#clip0_721_7108)">
<path d="M14.8167 10.2026C14.6995 10.0854 14.5405 10.0196 14.3748 10.0196C14.2091 10.0196 14.0502 10.0854 13.9329 10.2026L10.4161 13.7201L8.73607 12.0619C8.62004 11.943 8.46151 11.875 8.29537 11.873C8.12922 11.8709 7.96907 11.935 7.85013 12.051C7.7312 12.167 7.66323 12.3255 7.66118 12.4917C7.65913 12.6578 7.72316 12.818 7.8392 12.9369L9.5542 14.6244C9.66177 14.7404 9.7917 14.8334 9.93617 14.8979C10.0806 14.9623 10.2367 14.9969 10.3948 14.9994H10.4154C10.5705 14.9999 10.7241 14.9697 10.8673 14.9103C11.0105 14.851 11.1406 14.7638 11.2498 14.6538L14.8167 11.0863C14.9339 10.9691 14.9997 10.8102 14.9997 10.6444C14.9997 10.4787 14.9339 10.3198 14.8167 10.2026Z" fill="#07CB6F"/>
<path d="M6.93125 13.7238C5.7244 13.6135 4.57564 13.1547 3.62483 12.4033C2.67401 11.6519 1.96216 10.6403 1.57592 9.49162C1.18969 8.34294 1.14573 7.10674 1.44941 5.93353C1.75309 4.76032 2.3913 3.7007 3.28635 2.88367C4.1814 2.06664 5.29467 1.52745 6.49064 1.33173C7.68661 1.13602 8.91368 1.29222 10.0225 1.78133C11.1313 2.27044 12.0739 3.07135 12.7358 4.08657C13.3976 5.10178 13.7499 6.2875 13.75 7.49938C13.75 7.69126 13.7406 7.88126 13.7244 8.06876C13.7167 8.1507 13.7253 8.23335 13.7497 8.31196C13.7741 8.39057 13.8138 8.46359 13.8664 8.52683C13.9191 8.59007 13.9837 8.64228 14.0566 8.68047C14.1295 8.71867 14.2093 8.74208 14.2912 8.74938C14.3732 8.75762 14.4559 8.74942 14.5346 8.72524C14.6133 8.70107 14.6864 8.66141 14.7496 8.60861C14.8127 8.5558 14.8647 8.49091 14.9025 8.41774C14.9402 8.34456 14.963 8.26459 14.9694 8.18251C14.9894 7.95563 15 7.72876 15 7.49938C14.9999 6.04507 14.577 4.62216 13.7828 3.40388C12.9886 2.18559 11.8573 1.2245 10.5267 0.6376C9.19605 0.0507055 7.7235 -0.136669 6.2883 0.098289C4.8531 0.333247 3.51716 0.980402 2.44315 1.96096C1.36914 2.94152 0.603374 4.21319 0.239094 5.62113C-0.125186 7.02908 -0.0722674 8.51256 0.391406 9.89097C0.85508 11.2694 1.70951 12.4833 2.85066 13.3848C3.99181 14.2863 5.37046 14.8367 6.81875 14.9688H6.87563C7.04139 14.9761 7.20329 14.9174 7.32571 14.8054C7.44814 14.6934 7.52106 14.5373 7.52844 14.3716C7.53581 14.2058 7.47704 14.0439 7.36505 13.9215C7.25305 13.7991 7.09701 13.7261 6.93125 13.7188V13.7238Z" fill="#07CB6F"/>
<path d="M6.87511 4.375V7.24125L5.18324 8.93312C5.12354 8.99077 5.07593 9.05974 5.04317 9.13599C5.01042 9.21224 4.99318 9.29425 4.99246 9.37724C4.99173 9.46023 5.00755 9.54253 5.03897 9.61934C5.0704 9.69615 5.11681 9.76593 5.17549 9.82461C5.23417 9.8833 5.30395 9.9297 5.38076 9.96113C5.45757 9.99256 5.53987 10.0084 5.62286 10.0076C5.70585 10.0069 5.78786 9.98969 5.86411 9.95693C5.94036 9.92417 6.00933 9.87656 6.06698 9.81687L7.94198 7.94187C8.0592 7.82469 8.12507 7.66574 8.1251 7.49999V4.375C8.1251 4.20924 8.05926 4.05027 7.94205 3.93306C7.82484 3.81585 7.66586 3.75 7.5001 3.75C7.33434 3.75 7.17537 3.81585 7.05816 3.93306C6.94095 4.05027 6.87511 4.20924 6.87511 4.375Z" fill="#07CB6F"/>
</g>
<defs>
<clipPath id="clip0_721_7108">
<rect width="15" height="15" fill="white"/>
</clipPath>
</defs>
</svg>
