<svg width="15" height="22" viewBox="0 0 15 22" fill="none" xmlns="http://www.w3.org/2000/svg">
<g clip-path="url(#clip0_1897_7258)">
<path d="M4.13573 16.2398C4.75764 17.0477 5.32366 17.8989 5.8297 18.787C6.26176 19.6222 6.44187 20.1885 6.75763 21.1949C6.95127 21.7509 7.12629 21.9168 7.50257 21.9168C7.9126 21.9168 8.09863 21.6345 8.24236 21.1979C8.54083 20.2475 8.77502 19.5222 9.14451 18.8369C9.86953 17.5138 10.7704 16.338 11.6557 15.208C11.8953 14.8882 13.4447 13.025 14.1423 11.5549C14.1423 11.5549 14.9996 9.93996 14.9996 7.68456C14.9996 5.57485 14.1541 4.11165 14.1541 4.11165L11.7199 4.77626L10.2416 8.74568L9.87586 9.29303L9.80274 9.39219L9.70547 9.51632L9.53473 9.71458L9.29075 9.96326L7.97436 11.0566L4.68322 12.994L4.13573 16.2398Z" fill="#34A853"/>
<path d="M0.738523 11.2834C1.54177 13.1538 3.09072 14.7981 4.1387 16.241L9.70505 9.51887C9.70505 9.51887 8.92085 10.5645 7.49834 10.5645C5.91382 10.5645 4.63375 9.27449 4.63375 7.64792C4.63375 6.53249 5.29198 5.76622 5.29198 5.76622L1.51341 6.79843L0.738523 11.2834Z" fill="#FBBC04"/>
<path d="M9.76754 0.345681C11.6162 0.953361 13.1986 2.22911 14.1557 4.11034L9.70707 9.51501C9.70707 9.51501 10.3653 8.73487 10.3653 7.62638C10.3653 5.96193 8.99054 4.71849 7.5054 4.71849C6.101 4.71849 5.29441 5.76236 5.29441 5.76236V2.35748L9.76754 0.345621V0.345681Z" fill="#4285F4"/>
<path d="M1.75848 2.73375C2.86266 1.38692 4.80559 0 7.4842 0C8.78378 0 9.76286 0.347835 9.76286 0.347835L5.29015 5.76535H2.12117L1.75848 2.73375Z" fill="#1A73E8"/>
<path d="M0.738969 11.2834C0.738969 11.2834 0 9.80806 0 7.67076C0 5.65071 0.770257 3.88496 1.75865 2.73375L5.29284 5.76582L0.738969 11.2834Z" fill="#EA4335"/>
</g>
<defs>
<clipPath id="clip0_1897_7258">
<rect width="14.6774" height="21.4516" fill="white" transform="scale(1.02196)"/>
</clipPath>
</defs>
</svg>
