<svg width="11" height="11" viewBox="0 0 11 11" fill="none" xmlns="http://www.w3.org/2000/svg">
<path fill-rule="evenodd" clip-rule="evenodd" d="M1.77741 0.276776C1.58283 0.0946159 1.32547 -0.00455313 1.05955 0.000160665C0.793629 0.00487446 0.539911 0.113103 0.351848 0.302046C0.163785 0.490989 0.05606 0.745894 0.0513682 1.01306C0.0466763 1.28022 0.145384 1.53879 0.326696 1.73428L4.04928 5.47428L0.326696 9.21428C0.225848 9.30869 0.144961 9.42254 0.0888593 9.54904C0.0327578 9.67554 0.00259145 9.81209 0.000159744 9.95056C-0.00227196 10.089 0.0230808 10.2266 0.0747058 10.355C0.126331 10.4834 0.20317 10.6 0.30064 10.698C0.39811 10.7959 0.514213 10.8731 0.642024 10.9249C0.769835 10.9768 0.906735 11.0023 1.04456 10.9998C1.18238 10.9974 1.3183 10.9671 1.44421 10.9107C1.57012 10.8544 1.68344 10.7731 1.77741 10.6718L5.5 6.93178L9.22259 10.6718C9.31656 10.7731 9.42988 10.8544 9.55579 10.9107C9.6817 10.9671 9.81762 10.9974 9.95544 10.9998C10.0933 11.0023 10.2302 10.9768 10.358 10.9249C10.4858 10.8731 10.6019 10.7959 10.6994 10.698C10.7968 10.6 10.8737 10.4834 10.9253 10.355C10.9769 10.2266 11.0023 10.089 10.9998 9.95056C10.9974 9.81209 10.9672 9.67554 10.9111 9.54904C10.855 9.42254 10.7741 9.30869 10.6733 9.21428L6.95071 5.47428L10.6733 1.73428C10.8546 1.53879 10.9533 1.28022 10.9486 1.01306C10.9439 0.745894 10.8362 0.490989 10.6482 0.302046C10.4601 0.113103 10.2064 0.00487446 9.94045 0.000160665C9.67453 -0.00455313 9.41717 0.0946159 9.22259 0.276776L5.5 4.01678L1.77741 0.276776Z" fill="#EB3C3C"/>
</svg>
