<svg width="24" height="24" viewBox="0 0 24 24" fill="none" xmlns="http://www.w3.org/2000/svg">
<g clip-path="url(#clip0_843_19533)">
<path d="M20.3821 7.94401L16.055 3.61698C15.7602 3.32237 15.2832 3.32214 14.9884 3.61647L3.84375 14.7359L4.90992 15.8046L15.5209 5.21748L18.7818 8.47861L8.19491 19.0894L9.26333 20.1556L20.3828 9.01069C20.6769 8.7158 20.6767 8.23833 20.3821 7.94401Z" fill="#FD4444"/>
<path d="M21.6648 3.3909L20.6082 2.33429C20.3622 2.08824 19.9803 2.04221 19.683 2.22282L16.0352 4.43668L16.8183 5.727L19.9597 3.82032L20.1785 4.03941L18.2721 7.18078L19.5624 7.96392L21.7763 4.31611C21.9569 4.01883 21.9108 3.63666 21.6648 3.3909Z" fill="#FD4444"/>
<path d="M10.6729 20.498L3.50313 13.3282C3.20852 13.0333 2.73054 13.0333 2.43598 13.3282C2.14113 13.6228 2.14113 14.1007 2.43598 14.3953L9.60578 21.5651C9.75296 21.7125 9.94613 21.7862 10.1394 21.7862C10.3323 21.7862 10.5258 21.7125 10.6729 21.5651C10.9678 21.2705 10.9678 20.7926 10.6729 20.498Z" fill="#FD4444"/>
<path d="M10.4848 13.9073L3.44141 20.9766L4.51051 22.0418L11.5539 14.9724L10.4848 13.9073Z" fill="#FD4444"/>
<path d="M9.00042 12.4242L1.95703 19.4935L3.02614 20.5587L10.0695 13.4894L9.00042 12.4242Z" fill="#FD4444"/>
<path d="M6.26951 22.7117L1.28839 17.7303C0.993549 17.4357 0.515566 17.4353 0.220957 17.7303C-0.0736522 18.025 -0.0736522 18.5027 0.220957 18.7975L5.20207 23.7789C5.34949 23.9263 5.54271 24 5.73588 24C5.92882 24 6.12232 23.9263 6.26946 23.7789C6.56412 23.4843 6.56412 23.0066 6.26951 22.7117Z" fill="#FD4444"/>
<path d="M23.7775 0.221254C23.4826 -0.0735887 23.0052 -0.0735887 22.7103 0.221254L20.0688 2.86275C19.7739 3.15736 19.7739 3.63534 20.0688 3.9299C20.2162 4.07732 20.4091 4.15101 20.6024 4.15101C20.7956 4.15101 20.9888 4.07728 21.1359 3.9299L23.7774 1.28841C24.0723 0.993847 24.0723 0.515863 23.7775 0.221254Z" fill="#FD4444"/>
<path d="M8.75872 10.9879L7.69141 12.0552L11.9428 16.3066L13.0102 15.2393L8.75872 10.9879Z" fill="#FD4444"/>
</g>
<defs>
<clipPath id="clip0_843_19533">
<rect width="24" height="24" fill="white"/>
</clipPath>
</defs>
</svg>
