<svg width="17" height="16" viewBox="0 0 17 16" fill="none" xmlns="http://www.w3.org/2000/svg">
<path d="M10.0455 13.1364C12.9594 13.1364 14.4168 13.1364 15.3216 12.2307C16.2273 11.3259 16.2273 9.8685 16.2273 6.95455C16.2273 4.04059 16.2273 2.58323 15.3216 1.67836C14.4168 0.772727 12.9594 0.772727 10.0455 0.772727H6.95455C4.04059 0.772727 2.58323 0.772727 1.67836 1.67836C0.772727 2.58323 0.772727 4.04059 0.772727 6.95455C0.772727 9.8685 0.772727 11.3259 1.67836 12.2307C2.18295 12.7361 2.85909 12.9594 3.86364 13.0575" stroke="#1A232B" stroke-width="1.5" stroke-linecap="round" stroke-linejoin="round"/>
<path d="M6.95448 5.01036C7.34084 4.24536 7.72721 3.86364 8.49993 3.86364C9.46275 3.86364 10.0454 4.62786 10.0454 5.39209C10.0454 6.15632 9.65903 6.19032 8.49993 6.95455V7.72727M8.49993 9.65909V10.0455M10.0454 13.1364C9.0903 13.1364 8.03784 13.5227 7.07734 14.0211C5.53343 14.8225 4.76148 15.2235 4.3813 14.9677C4.00112 14.7127 4.07298 13.9207 4.21748 12.3374L4.24993 11.9773" stroke="#1A232B" stroke-width="1.5" stroke-linecap="round"/>
</svg>
