<svg width="35" height="28" viewBox="0 0 35 28" fill="none" xmlns="http://www.w3.org/2000/svg">
<path d="M0.5 8C0.5 6.10025 0.501062 4.72573 0.641988 3.67754C0.78098 2.64373 1.04772 2.00253 1.52513 1.52513C2.00253 1.04772 2.64373 0.78098 3.67754 0.641988C4.72573 0.501062 6.10025 0.5 8 0.5H27C28.8998 0.5 30.2743 0.501062 31.3225 0.641988C32.3563 0.78098 32.9975 1.04772 33.4749 1.52513C33.9523 2.00253 34.219 2.64373 34.358 3.67754C34.4989 4.72573 34.5 6.10025 34.5 8V20C34.5 21.8998 34.4989 23.2743 34.358 24.3225C34.219 25.3563 33.9523 25.9975 33.4749 26.4749C32.9975 26.9523 32.3563 27.219 31.3225 27.358C30.2743 27.4989 28.8998 27.5 27 27.5H8C6.10025 27.5 4.72573 27.4989 3.67754 27.358C2.64373 27.219 2.00253 26.9523 1.52513 26.4749C1.04772 25.9975 0.78098 25.3563 0.641988 24.3225C0.501062 23.2743 0.5 21.8998 0.5 20V8Z" stroke="#F59E0B"/>
<path d="M25.4732 12.1741C25.4227 12.0306 25.3309 11.9046 25.209 11.8113C25.087 11.718 24.9401 11.6615 24.7861 11.6486L20.2403 10.9975L18.2031 6.94246C18.1376 6.80985 18.0355 6.69801 17.9083 6.61976C17.7812 6.5415 17.6341 6.5 17.484 6.5C17.334 6.5 17.1869 6.5415 17.0597 6.61976C16.9326 6.69801 16.8304 6.80985 16.765 6.94246L14.7278 10.9897L10.182 11.6486C10.0341 11.6692 9.89511 11.7301 9.78072 11.8244C9.66634 11.9187 9.58116 12.0425 9.53486 12.1819C9.49247 12.3181 9.48867 12.4631 9.52385 12.6013C9.55904 12.7395 9.63189 12.8657 9.73458 12.9663L13.0341 16.1037L12.2352 20.5588C12.2067 20.7058 12.2216 20.8578 12.2782 20.9968C12.3348 21.1358 12.4308 21.256 12.5547 21.3431C12.6756 21.4279 12.818 21.478 12.9662 21.4877C13.1144 21.4974 13.2624 21.4663 13.3936 21.398L17.484 19.3038L21.5585 21.4059C21.6706 21.468 21.7973 21.5004 21.926 21.5C22.0952 21.5006 22.2603 21.4484 22.3973 21.351C22.5213 21.2638 22.6172 21.1436 22.6739 21.0046C22.7305 20.8657 22.7454 20.7137 22.7169 20.5666L21.918 16.1115L25.2175 12.9741C25.3329 12.8782 25.4181 12.7521 25.4634 12.6104C25.5086 12.4688 25.512 12.3175 25.4732 12.1741ZM20.5598 15.3115C20.4662 15.4004 20.3961 15.5106 20.3557 15.6323C20.3153 15.7539 20.3058 15.8835 20.3282 16.0095L20.9034 19.296L17.8995 17.7273C17.7839 17.6668 17.6549 17.6352 17.524 17.6352C17.393 17.6352 17.2641 17.6668 17.1485 17.7273L14.1446 19.296L14.7198 16.0095C14.7421 15.8835 14.7327 15.7539 14.6923 15.6323C14.6519 15.5106 14.5818 15.4004 14.4881 15.3115L12.0914 12.9584L15.4548 12.48C15.5842 12.4623 15.7073 12.4137 15.8131 12.3385C15.919 12.2633 16.0044 12.1638 16.062 12.0486L17.484 9.0602L18.986 12.0564C19.0435 12.1716 19.129 12.2711 19.2349 12.3464C19.3407 12.4216 19.4637 12.4701 19.5932 12.4878L22.9566 12.9663L20.5598 15.3115Z" fill="#F59E0B"/>
</svg>
