<svg width="8" height="8" viewBox="0 0 8 8" fill="none" xmlns="http://www.w3.org/2000/svg">
<path fill-rule="evenodd" clip-rule="evenodd" d="M0.212702 0.222028C0.348936 0.0856853 0.533685 0.00909222 0.72632 0.00909222C0.918955 0.00909222 1.1037 0.0856853 1.23994 0.222028L3.99546 2.98057L6.75098 0.222028C6.81799 0.152566 6.89816 0.0971606 6.98679 0.059045C7.07542 0.0209294 7.17075 0.000866599 7.26721 2.74597e-05C7.36367 -0.000811679 7.45933 0.0175894 7.54861 0.0541573C7.6379 0.0907252 7.71901 0.144727 7.78722 0.213013C7.85543 0.281299 7.90937 0.3625 7.9459 0.451879C7.98243 0.541259 8.00081 0.637026 7.99997 0.733592C7.99913 0.830159 7.97909 0.925592 7.94102 1.01432C7.90295 1.10305 7.8476 1.1833 7.77822 1.25039L5.02269 4.00894L7.77822 6.76748C7.91055 6.90465 7.98377 7.08836 7.98212 7.27905C7.98046 7.46973 7.90406 7.65214 7.76937 7.78699C7.63467 7.92183 7.45246 7.99832 7.26198 7.99997C7.0715 8.00163 6.88799 7.92832 6.75098 7.79585L3.99546 5.0373L1.23994 7.79585C1.10292 7.92832 0.919414 8.00163 0.728934 7.99997C0.538455 7.99832 0.356246 7.92183 0.221552 7.78699C0.0868572 7.65214 0.0104544 7.46973 0.00879917 7.27905C0.00714396 7.08836 0.0803689 6.90465 0.212702 6.76748L2.96822 4.00894L0.212702 1.25039C0.0765091 1.11401 0 0.929056 0 0.73621C0 0.543363 0.0765091 0.358412 0.212702 0.222028Z" fill="white"/>
</svg>
