<svg width="15" height="15" viewBox="0 0 15 15" fill="none" xmlns="http://www.w3.org/2000/svg">
<path d="M0.247194 4.98447H3.35599V14.9998H0.247194V4.98447ZM1.80245 0C2.15901 1.61911e-07 2.50757 0.105889 2.80401 0.30427C3.10046 0.502651 3.33149 0.784612 3.46786 1.11448C3.60423 1.44435 3.63983 1.80731 3.57014 2.15744C3.50045 2.50757 3.32861 2.82913 3.07636 3.08146C2.82412 3.33379 2.50279 3.50553 2.15304 3.57497C1.80328 3.64442 1.44082 3.60843 1.11149 3.47157C0.782168 3.33471 0.500782 3.10313 0.302933 2.80612C0.105084 2.50911 -0.000338767 2.16002 8.17813e-07 1.803C0.00045581 1.32466 0.190557 0.866062 0.528532 0.527983C0.866508 0.189903 1.32471 -2.16936e-07 1.80245 0ZM5.30607 4.98447H8.28612V6.35949H8.32732C8.74274 5.57229 9.75554 4.74212 11.2679 4.74212C14.4162 4.73524 14.9998 6.80981 14.9998 9.49971V14.9998H11.891V10.1271C11.891 8.96688 11.8704 7.47326 10.2757 7.47326C8.68094 7.47326 8.40971 8.73829 8.40971 10.0514V14.9998H5.30607V4.98447Z" fill="white"/>
</svg>
