<svg width="19" height="17" viewBox="0 0 19 17" fill="none" xmlns="http://www.w3.org/2000/svg">
<path d="M0 3.33929C0 2.45365 0.344056 1.60429 0.956479 0.978054C1.5689 0.351817 2.39953 0 3.26562 0H4.15625C4.39246 0 4.61899 0.0959499 4.78602 0.266742C4.95304 0.437534 5.04688 0.669178 5.04688 0.910714C5.04688 1.15225 4.95304 1.38389 4.78602 1.55469C4.61899 1.72548 4.39246 1.82143 4.15625 1.82143H3.26562C2.44625 1.82143 1.78125 2.50143 1.78125 3.33929V4.25C1.78125 4.49154 1.68742 4.72318 1.52039 4.89397C1.35337 5.06476 1.12683 5.16071 0.890625 5.16071C0.654417 5.16071 0.427882 5.06476 0.260858 4.89397C0.0938333 4.72318 4.97772e-09 4.49154 0 4.25V3.33929ZM13.9531 0.910714C13.9531 0.669178 14.047 0.437534 14.214 0.266742C14.381 0.0959499 14.6075 0 14.8438 0H15.7344C16.6005 0 17.4311 0.351817 18.0435 0.978054C18.6559 1.60429 19 2.45365 19 3.33929V4.25C19 4.49154 18.9062 4.72318 18.7391 4.89397C18.5721 5.06476 18.3456 5.16071 18.1094 5.16071C17.8732 5.16071 17.6466 5.06476 17.4796 4.89397C17.3126 4.72318 17.2188 4.49154 17.2188 4.25V3.33929C17.2188 2.50143 16.5537 1.82143 15.7344 1.82143H14.8438C14.6075 1.82143 14.381 1.72548 14.214 1.55469C14.047 1.38389 13.9531 1.15225 13.9531 0.910714ZM0.890625 11.8393C1.12683 11.8393 1.35337 11.9352 1.52039 12.106C1.68742 12.2768 1.78125 12.5085 1.78125 12.75V13.6607C1.78125 14.4986 2.44625 15.1786 3.26562 15.1786H4.15625C4.39246 15.1786 4.61899 15.2745 4.78602 15.4453C4.95304 15.6161 5.04688 15.8477 5.04688 16.0893C5.04688 16.3308 4.95304 16.5625 4.78602 16.7333C4.61899 16.9041 4.39246 17 4.15625 17H3.26562C2.39953 17 1.5689 16.6482 0.956479 16.0219C0.344056 15.3957 0 14.5463 0 13.6607V12.75C0 12.5085 0.0938333 12.2768 0.260858 12.106C0.427882 11.9352 0.654417 11.8393 0.890625 11.8393ZM18.1094 11.8393C18.3456 11.8393 18.5721 11.9352 18.7391 12.106C18.9062 12.2768 19 12.5085 19 12.75V13.6607C19 14.5463 18.6559 15.3957 18.0435 16.0219C17.4311 16.6482 16.6005 17 15.7344 17H14.8438C14.6075 17 14.381 16.9041 14.214 16.7333C14.047 16.5625 13.9531 16.3308 13.9531 16.0893C13.9531 15.8477 14.047 15.6161 14.214 15.4453C14.381 15.2745 14.6075 15.1786 14.8438 15.1786H15.7344C16.5537 15.1786 17.2188 14.4986 17.2188 13.6607V12.75C17.2188 12.5085 17.3126 12.2768 17.4796 12.106C17.6466 11.9352 17.8732 11.8393 18.1094 11.8393ZM4.15625 3.64286C4.39246 3.64286 4.61899 3.73881 4.78602 3.9096C4.95304 4.08039 5.04688 4.31204 5.04688 4.55357V12.4464C5.04688 12.688 4.95304 12.9196 4.78602 13.0904C4.61899 13.2612 4.39246 13.3571 4.15625 13.3571C3.92004 13.3571 3.69351 13.2612 3.52648 13.0904C3.35946 12.9196 3.26562 12.688 3.26562 12.4464V4.55357C3.26562 4.31204 3.35946 4.08039 3.52648 3.9096C3.69351 3.73881 3.92004 3.64286 4.15625 3.64286ZM8.60938 4.55357C8.60938 4.31204 8.51554 4.08039 8.34852 3.9096C8.18149 3.73881 7.95496 3.64286 7.71875 3.64286C7.48254 3.64286 7.25601 3.73881 7.08898 3.9096C6.92196 4.08039 6.82812 4.31204 6.82812 4.55357V12.4464C6.82812 12.688 6.92196 12.9196 7.08898 13.0904C7.25601 13.2612 7.48254 13.3571 7.71875 13.3571C7.95496 13.3571 8.18149 13.2612 8.34852 13.0904C8.51554 12.9196 8.60938 12.688 8.60938 12.4464V4.55357ZM11.2812 3.64286C11.5175 3.64286 11.744 3.73881 11.911 3.9096C12.078 4.08039 12.1719 4.31204 12.1719 4.55357V12.4464C12.1719 12.688 12.078 12.9196 11.911 13.0904C11.744 13.2612 11.5175 13.3571 11.2812 13.3571C11.045 13.3571 10.8185 13.2612 10.6515 13.0904C10.4845 12.9196 10.3906 12.688 10.3906 12.4464V4.55357C10.3906 4.31204 10.4845 4.08039 10.6515 3.9096C10.8185 3.73881 11.045 3.64286 11.2812 3.64286ZM15.7344 4.55357C15.7344 4.31204 15.6405 4.08039 15.4735 3.9096C15.3065 3.73881 15.08 3.64286 14.8438 3.64286C14.6075 3.64286 14.381 3.73881 14.214 3.9096C14.047 4.08039 13.9531 4.31204 13.9531 4.55357V12.4464C13.9531 12.688 14.047 12.9196 14.214 13.0904C14.381 13.2612 14.6075 13.3571 14.8438 13.3571C15.08 13.3571 15.3065 13.2612 15.4735 13.0904C15.6405 12.9196 15.7344 12.688 15.7344 12.4464V4.55357Z" fill="#BFA274"/>
</svg>
