<svg width="17" height="17" viewBox="0 0 17 17" fill="none" xmlns="http://www.w3.org/2000/svg">
<path d="M8.5 0.772727C4.23223 0.772727 0.772727 4.23223 0.772727 8.5C0.772727 12.7678 4.23223 16.2273 8.5 16.2273C12.7678 16.2273 16.2273 12.7678 16.2273 8.5C16.2273 4.23223 12.7678 0.772727 8.5 0.772727Z" stroke="#BFA274" stroke-width="1.5" stroke-linecap="round" stroke-linejoin="round"/>
<path d="M5.40909 15.5844V10.0455L8.5 4.63636L11.5909 10.0455V15.5844" stroke="#BFA274" stroke-width="1.5" stroke-linecap="round" stroke-linejoin="round"/>
<path d="M5.40909 10.0455C5.40909 10.0455 6.27995 10.8182 6.95455 10.8182C7.62914 10.8182 8.5 10.0455 8.5 10.0455C8.5 10.0455 9.37086 10.8182 10.0455 10.8182C10.72 10.8182 11.5909 10.0455 11.5909 10.0455" stroke="#BFA274" stroke-width="1.5" stroke-linecap="round" stroke-linejoin="round"/>
</svg>
