<svg width="10" height="10" viewBox="0 0 10 10" fill="none" xmlns="http://www.w3.org/2000/svg">
<path d="M9.98323 3.78272C9.95169 3.68707 9.89434 3.60306 9.81812 3.54088C9.7419 3.47869 9.65008 3.441 9.55381 3.43237L6.71268 2.99837L5.43941 0.294973C5.39852 0.206566 5.33469 0.132007 5.25521 0.0798382C5.17573 0.0276692 5.08382 0 4.99002 0C4.89622 0 4.80432 0.0276692 4.72484 0.0798382C4.64536 0.132007 4.58152 0.206566 4.54063 0.294973L3.26737 2.99314L0.426235 3.43237C0.333822 3.44613 0.246941 3.48674 0.175451 3.54959C0.103962 3.61244 0.0507258 3.69501 0.0217852 3.78795C-0.00470622 3.87876 -0.00708351 3.97541 0.0149085 4.06754C0.0369005 4.15966 0.0824315 4.24377 0.146615 4.31084L2.20881 6.40244L1.70949 9.37252C1.69166 9.47055 1.701 9.57188 1.73639 9.66453C1.77178 9.75719 1.83175 9.8373 1.90922 9.89542C1.98472 9.95195 2.07378 9.98531 2.16639 9.99178C2.259 9.99825 2.3515 9.97755 2.4335 9.93202L4.99002 8.53588L7.53656 9.93725C7.60664 9.97865 7.68578 10.0003 7.76624 10C7.87201 10.0004 7.97517 9.9656 8.06084 9.90065C8.13831 9.84253 8.19828 9.76242 8.23367 9.66976C8.26906 9.5771 8.2784 9.47578 8.26057 9.37775L7.76125 6.40767L9.82344 4.31607C9.89554 4.25211 9.94882 4.16804 9.9771 4.07363C10.0054 3.97922 10.0075 3.87834 9.98323 3.78272ZM6.91241 5.87432C6.85385 5.93363 6.81004 6.00705 6.7848 6.08817C6.75956 6.16929 6.75365 6.25564 6.7676 6.3397L7.12711 8.53065L5.24967 7.48485C5.17743 7.44456 5.09684 7.42349 5.01499 7.42349C4.93314 7.42349 4.85255 7.44456 4.78031 7.48485L2.90286 8.53065L3.26237 6.3397C3.27632 6.25564 3.27042 6.16929 3.24518 6.08817C3.21994 6.00705 3.17613 5.93363 3.11757 5.87432L1.61961 4.30562L3.72175 3.98665C3.80264 3.97486 3.87953 3.94248 3.94569 3.89234C4.01185 3.8422 4.06526 3.77583 4.10123 3.69905L4.99002 1.7068L5.92875 3.70428C5.96472 3.78106 6.01812 3.84743 6.08428 3.89757C6.15044 3.94771 6.22734 3.98009 6.30823 3.99188L8.41037 4.31084L6.91241 5.87432Z" fill="#7A808A"/>
</svg>
