<svg width="19" height="19" viewBox="0 0 19 19" fill="none" xmlns="http://www.w3.org/2000/svg">
<path d="M9.5 17.6061C9.71934 17.6061 9.93024 17.5808 10.158 17.5639L10.6389 18.4919C10.7317 18.6774 10.9173 18.7787 11.1535 18.7449C11.3644 18.7028 11.5078 18.5509 11.5415 18.3231L11.6849 17.3024C12.1067 17.1927 12.5201 17.0324 12.9166 16.8553L13.6759 17.5386C13.8361 17.6904 14.0386 17.7242 14.2495 17.6061C14.4351 17.5048 14.511 17.3024 14.4688 17.083L14.2579 16.0707C14.6123 15.8261 14.9581 15.5477 15.2703 15.2355L16.2067 15.632C16.4176 15.7164 16.62 15.6742 16.7803 15.4802C16.9237 15.3283 16.9406 15.109 16.8141 14.9234L16.2657 14.046C16.5188 13.6917 16.7213 13.3121 16.9153 12.9072L17.9529 12.9578C18.1723 12.9662 18.3494 12.8481 18.4254 12.6372C18.4928 12.4263 18.4338 12.2239 18.2566 12.0889L17.4468 11.4477C17.5564 11.0428 17.6408 10.6041 17.683 10.1486L18.6531 9.84489C18.8725 9.76896 18.999 9.60868 18.999 9.3809C18.999 9.16156 18.8725 9.00128 18.6531 8.92536L17.683 8.61322C17.6408 8.15767 17.5564 7.73587 17.4468 7.3225L18.2566 6.67293C18.4254 6.54639 18.4928 6.35236 18.4254 6.14145C18.3494 5.93055 18.1723 5.81245 17.9529 5.82088L16.9153 5.86306C16.7213 5.45813 16.5188 5.07851 16.2657 4.7242L16.8141 3.84684C16.9322 3.66969 16.9153 3.45035 16.7803 3.2985C16.62 3.10447 16.4176 3.05385 16.2067 3.14665L15.2703 3.52627C14.9581 3.23101 14.6123 2.94419 14.2579 2.69954L14.4688 1.69565C14.511 1.46788 14.4351 1.26541 14.2495 1.16418C14.0386 1.05451 13.8361 1.07138 13.6759 1.2401L12.9166 1.90655C12.5201 1.72939 12.1067 1.58598 11.6849 1.46788L11.5415 0.447111C11.5078 0.227774 11.3559 0.0674885 11.145 0.0337443C10.9173 0 10.7317 0.0927967 10.6389 0.27839L10.158 1.20636C9.93024 1.18948 9.71934 1.17261 9.5 1.17261C9.27223 1.17261 9.06976 1.18948 8.84199 1.20636L8.3527 0.27839C8.2599 0.0927967 8.07431 0 7.84653 0.0337443C7.63563 0.0674885 7.48378 0.227774 7.45847 0.447111L7.30662 1.45944C6.88482 1.58598 6.47989 1.72939 6.07496 1.90655L5.31571 1.2401C5.15543 1.07138 4.95296 1.05451 4.74206 1.16418C4.55647 1.26541 4.48054 1.46788 4.52272 1.69565L4.73362 2.69954C4.38775 2.94419 4.03343 3.23101 3.7213 3.52627L2.78489 3.14665C2.57399 3.05385 2.37996 3.10447 2.21968 3.2985C2.07626 3.45035 2.05939 3.66969 2.1775 3.83841L2.72584 4.7242C2.4812 5.07851 2.27029 5.45813 2.07626 5.86306L1.04706 5.82088C0.827727 5.81245 0.642133 5.93055 0.566209 6.14145C0.49872 6.35236 0.557773 6.54639 0.73493 6.67293L1.54479 7.3225C1.43512 7.73587 1.35076 8.15767 1.32545 8.61322L0.338435 8.92536C0.119097 8.99284 0.000992478 9.15313 0.000992478 9.3809C0.000992478 9.60868 0.119097 9.76896 0.338435 9.84489L1.32545 10.157C1.35076 10.6041 1.43512 11.0428 1.54479 11.4477L0.73493 12.0889C0.566209 12.2239 0.507156 12.4263 0.566209 12.6372C0.642133 12.8481 0.827727 12.9662 1.04706 12.9578L2.07626 12.9072C2.27029 13.3121 2.4812 13.6917 2.72584 14.046L2.1775 14.9234C2.05939 15.109 2.07626 15.3283 2.21968 15.4802C2.37996 15.6742 2.57399 15.7164 2.78489 15.632L3.7213 15.2355C4.03343 15.5477 4.38775 15.8261 4.73362 16.0707L4.52272 17.083C4.48054 17.3024 4.55647 17.5048 4.74206 17.6061C4.95296 17.7242 5.15543 17.6904 5.31571 17.5386L6.07496 16.8553C6.47989 17.0324 6.88482 17.1927 7.30662 17.3024L7.45847 18.3231C7.48378 18.5509 7.63563 18.7028 7.84653 18.7449C8.07431 18.7787 8.2599 18.6774 8.3527 18.4919L8.84199 17.5639C9.06132 17.5808 9.27223 17.6061 9.5 17.6061ZM11.6175 8.84943C11.2294 7.78649 10.4448 7.2044 9.48313 7.2044C9.33128 7.2044 9.17099 7.22127 8.8926 7.28032L6.47145 3.14665C7.38255 2.69954 8.40331 2.45489 9.5 2.45489C13.1781 2.45489 16.0633 5.24723 16.3332 8.84943H11.6175ZM2.64992 9.38934C2.64992 7.04411 3.76348 4.97728 5.50131 3.72874L7.94776 7.88772C7.48378 8.36014 7.27288 8.87474 7.27288 9.42308C7.27288 9.95455 7.47534 10.4438 7.93933 10.9331L5.45069 15.0162C3.73817 13.7592 2.64992 11.7177 2.64992 9.38934ZM8.4708 9.41465C8.4708 8.84099 8.95166 8.39388 9.5 8.39388C10.0652 8.39388 10.5376 8.84099 10.5376 9.41465C10.5376 9.97986 10.0652 10.4438 9.5 10.4438C8.95166 10.4438 8.4708 9.97986 8.4708 9.41465ZM9.5 16.3238C8.378 16.3238 7.33193 16.0623 6.4124 15.6067L8.8926 11.549C9.15412 11.6165 9.33128 11.6333 9.48313 11.6333C10.4533 11.6333 11.2378 11.0344 11.6175 9.94612H16.3248C16.0548 13.5314 13.1781 16.3238 9.5 16.3238Z" fill="white"/>
</svg>
