<svg width="342" height="104" viewBox="0 0 342 104" fill="none" xmlns="http://www.w3.org/2000/svg">
<path fill-rule="evenodd" clip-rule="evenodd" d="M0 8C0 3.58172 3.58172 0 8 0H334C338.418 0 342 3.58172 342 8V35.5815C341.669 35.5611 341.336 35.5507 341 35.5507C332.163 35.5507 325 42.7142 325 51.5507C325 60.3873 332.163 67.5507 341 67.5507C341.336 67.5507 341.669 67.5404 342 67.52V96C342 100.418 338.418 104 334 104H8.00001C3.58173 104 0 100.418 0 96V67.5507C8.83656 67.5507 16 60.3873 16 51.5507C16 42.7142 8.83656 35.5507 0 35.5507V8Z" fill="#BFA274"/>
</svg>
