<svg width="24" height="24" viewBox="0 0 24 24" fill="none" xmlns="http://www.w3.org/2000/svg">
<path d="M17.574 0H6.45269C5.99767 0 5.62891 0.368766 5.62891 0.823781V4.86038C5.62891 5.31539 5.99767 5.68416 6.45269 5.68416H17.574C18.029 5.68416 18.3977 5.31539 18.3977 4.86038V0.823781C18.3977 0.368766 18.029 0 17.574 0ZM16.7502 4.03659H7.27647V1.64761H16.7501V4.03659H16.7502Z" fill="#00CC6A"/>
<path d="M16.3937 4.88803H14.7461V8.6775H16.3937V4.88803Z" fill="#00CC6A"/>
<path d="M9.25308 4.88803H7.60547V8.6775H9.25308V4.88803Z" fill="#00CC6A"/>
<path d="M17.9862 7.85352H6.01364C5.25656 7.85352 4.64062 8.46945 4.64062 9.22653V22.627C4.64062 23.3841 5.25656 24 6.01364 24H17.9862C18.7432 24 19.3592 23.3841 19.3592 22.627V9.22653C19.3592 8.46945 18.7432 7.85352 17.9862 7.85352ZM17.7116 22.3524H6.28823V9.50112H17.7116V22.3524Z" fill="#00CC6A"/>
<path d="M11.9996 12.1647C11.5445 12.1647 11.1758 12.5334 11.1758 12.9885V18.8649C11.1758 19.3199 11.5445 19.6887 11.9996 19.6887C12.4546 19.6887 12.8233 19.3199 12.8233 18.8649V12.9885C12.8233 12.5334 12.4546 12.1647 11.9996 12.1647Z" fill="#00CC6A"/>
<path d="M14.9385 15.103H9.06206C8.60705 15.103 8.23828 15.4718 8.23828 15.9268C8.23828 16.3818 8.60705 16.7506 9.06206 16.7506H14.9385C15.3938 16.7506 15.7623 16.3818 15.7623 15.9268C15.7623 15.4718 15.3935 15.103 14.9385 15.103Z" fill="#00CC6A"/>
</svg>
