<svg width="20" height="20" viewBox="0 0 20 20" fill="none" xmlns="http://www.w3.org/2000/svg">
<path fill-rule="evenodd" clip-rule="evenodd" d="M1.62363 10.3376C3.1589 12.0425 6.27799 14.8171 10.0169 14.8171C13.7558 14.8171 16.8748 12.0425 18.4101 10.3376C18.4477 10.2958 18.4537 10.2626 18.4537 10.2419C18.4537 10.2212 18.4477 10.1879 18.4101 10.1462C16.8748 8.44131 13.7558 5.66666 10.0169 5.66666C6.27799 5.66666 3.1589 8.44131 1.62363 10.1462C1.58604 10.1879 1.58008 10.2212 1.58008 10.2419C1.58008 10.2626 1.58604 10.2958 1.62363 10.3376ZM0.508975 9.14241C-0.0628872 9.77745 -0.0628876 10.7063 0.508975 11.3414C2.08538 13.0919 5.59038 16.3171 10.0169 16.3171C14.4434 16.3171 17.9484 13.0919 19.5248 11.3414C20.0966 10.7063 20.0966 9.77745 19.5248 9.14241C17.9484 7.39186 14.4434 4.16666 10.0169 4.16666C5.59038 4.16666 2.08538 7.39186 0.508975 9.14241ZM6.01499 10.7722C5.72209 10.4793 5.72209 10.0044 6.01499 9.71155C6.30788 9.41866 6.78275 9.41866 7.07565 9.71155C8.80783 11.4437 11.2259 11.4437 12.9581 9.71155C13.251 9.41866 13.7259 9.41866 14.0188 9.71155C14.3116 10.0044 14.3116 10.4793 14.0188 10.7722C11.7008 13.0902 8.33295 13.0902 6.01499 10.7722Z" fill="#7A808A"/>
</svg>
