<svg width="17" height="12" viewBox="0 0 17 12" fill="none" xmlns="http://www.w3.org/2000/svg">
<path d="M1.54545 0C1.13557 0 0.742482 0.158035 0.452653 0.43934C0.162824 0.720644 0 1.10218 0 1.5V9.75H1.54545C1.54545 10.3467 1.78969 10.919 2.22443 11.341C2.65918 11.7629 3.24882 12 3.86364 12C4.47846 12 5.0681 11.7629 5.50284 11.341C5.93758 10.919 6.18182 10.3467 6.18182 9.75H10.8182C10.8182 10.3467 11.0624 10.919 11.4972 11.341C11.9319 11.7629 12.5215 12 13.1364 12C13.7512 12 14.3408 11.7629 14.7756 11.341C15.2103 10.919 15.4545 10.3467 15.4545 9.75H17V6L14.6818 3H12.3636V0M6.95455 1.5L10.0455 4.5L6.95455 7.5V5.25H2.31818V3.75H6.95455M12.3636 4.125H14.2955L15.8177 6H12.3636M3.86364 8.625C4.17105 8.625 4.46587 8.74353 4.68324 8.9545C4.90061 9.16548 5.02273 9.45163 5.02273 9.75C5.02273 10.0484 4.90061 10.3345 4.68324 10.5455C4.46587 10.7565 4.17105 10.875 3.86364 10.875C3.55623 10.875 3.26141 10.7565 3.04404 10.5455C2.82666 10.3345 2.70455 10.0484 2.70455 9.75C2.70455 9.45163 2.82666 9.16548 3.04404 8.9545C3.26141 8.74353 3.55623 8.625 3.86364 8.625ZM13.1364 8.625C13.4438 8.625 13.7386 8.74353 13.956 8.9545C14.1733 9.16548 14.2955 9.45163 14.2955 9.75C14.2955 10.0484 14.1733 10.3345 13.956 10.5455C13.7386 10.7565 13.4438 10.875 13.1364 10.875C12.829 10.875 12.5341 10.7565 12.3168 10.5455C12.0994 10.3345 11.9773 10.0484 11.9773 9.75C11.9773 9.45163 12.0994 9.16548 12.3168 8.9545C12.5341 8.74353 12.829 8.625 13.1364 8.625Z" fill="#07CB6F"/>
</svg>
