<svg width="24" height="24" viewBox="0 0 24 24" fill="none" xmlns="http://www.w3.org/2000/svg">
<path d="M6.15993 1.46015C5.87399 1.04465 5.30577 0.939699 4.89088 1.22531C4.25849 1.65998 3.76115 2.12507 3.36998 2.64646C3.07096 3.04523 3.14732 3.6104 3.54121 3.91551C3.70729 4.04418 3.90412 4.10653 4.0994 4.10653C4.36738 4.10653 4.63265 3.9891 4.81241 3.76401C5.12179 3.3771 5.5169 3.00965 5.9248 2.7292C6.18243 2.55215 6.32052 2.26621 6.32052 1.97573C6.32052 1.79779 6.26821 1.61803 6.15993 1.46015Z" fill="black"/>
<path d="M21.8506 4.65858C21.2486 2.70998 19.8533 1.22283 18.1277 0.683531C15.8992 -0.0397969 13.9439 0.423469 12.5699 1.04522C11.488 0.367734 10.1958 0 8.87261 0C7.43172 0 6.05374 0.423703 4.88781 1.22527C4.33633 1.60458 3.82286 2.08003 3.40188 2.60198C3.35322 2.65795 3.31703 2.71209 3.28933 2.75925C2.305 4.04897 1.78516 5.5763 1.78516 7.17872C1.78516 8.88853 2.39111 10.5418 3.49286 11.8394C3.52023 11.8796 3.55094 11.9225 3.58197 11.966C3.61422 12.0113 3.64647 12.056 3.6723 12.0949C3.68172 12.1089 3.69147 12.1226 3.7015 12.136C4.11273 12.6844 4.52097 14.7781 4.69525 15.6721C4.74119 15.9082 4.78164 16.1156 4.8145 16.2698C4.90089 16.7017 4.98878 17.1687 5.04597 17.6553C5.23731 19.3143 5.55728 20.6701 5.99228 21.6733C6.5973 23.1255 7.44869 23.9069 8.52306 23.9963C8.54833 23.9984 8.57388 23.9996 8.59909 23.9996H8.72078C10.0531 23.9996 10.7935 22.4669 11.3422 20.9672C11.3468 20.9544 11.351 20.942 11.355 20.9292L12.1054 18.5609L12.8379 20.9237C12.8425 20.9383 12.847 20.9529 12.8525 20.9675C13.369 22.3793 14.134 24 15.4737 24H15.5954C15.6215 24 15.648 23.9988 15.6742 23.9967C16.4127 23.9325 17.4506 23.4774 18.201 21.6761C18.6089 20.7024 18.9094 19.4303 19.1476 17.6581C19.2054 17.1684 19.2933 16.7021 19.3776 16.2808C19.4123 16.1166 19.4527 15.9097 19.4987 15.6742C19.6727 14.7796 20.0808 12.6854 20.4961 12.1318C22.132 9.91697 22.6372 7.11998 21.8506 4.65858ZM19.032 11.0415C18.4206 11.8576 18.0562 13.533 17.7073 15.3247C17.6635 15.5489 17.6252 15.7457 17.5902 15.9118C17.4962 16.3802 17.4004 16.8903 17.3368 17.4296C17.1227 19.0236 16.8625 20.1484 16.517 20.9722C16.2229 21.6785 15.8612 22.1241 15.544 22.1749H15.5421C15.4435 22.0997 15.0837 21.7484 14.5742 20.3617L13.2425 16.0645C13.2373 16.0475 13.2315 16.0307 13.2255 16.0143C13.049 15.5434 12.6119 15.2395 12.1121 15.2395C11.6124 15.2395 11.1756 15.5434 10.9991 16.0143C10.9937 16.0286 10.9885 16.0435 10.9836 16.0587L9.62088 20.3589C9.09859 21.7813 8.75913 22.1073 8.66481 22.1749H8.64719C8.2128 22.1107 7.85388 21.3974 7.67167 20.96C7.30816 20.1217 7.02709 18.9067 6.85858 17.4445C6.79347 16.8918 6.69766 16.3814 6.60156 15.902C6.5687 15.7457 6.53008 15.5482 6.4863 15.3234C6.14045 13.5479 5.77938 11.8862 5.17741 11.0631C5.14455 11.0144 5.10564 10.9603 5.06697 10.9058C5.03505 10.8611 5.00308 10.8167 4.97753 10.7783C4.95686 10.7473 4.93436 10.7178 4.90998 10.6895C4.07195 9.71611 3.61023 8.46928 3.61023 7.17863C3.61023 5.97952 4.0008 4.83488 4.74058 3.86578C4.78258 3.81619 4.8145 3.76875 4.83977 3.72647C5.14455 3.35353 5.52723 3.00038 5.92206 2.72906C6.78231 2.13773 7.8025 1.82503 8.87261 1.82503C9.9993 1.82503 11.0892 2.18062 11.9412 2.82581C12.2244 3.04055 12.6064 3.07097 12.9191 2.90489C13.9847 2.34122 15.6547 1.79948 17.5737 2.42184C18.7527 2.79052 19.6759 3.80161 20.1097 5.20509C20.7212 7.11848 20.3169 9.3022 19.032 11.0415Z" fill="#A584FF"/>
</svg>
