<svg width="107" height="114" viewBox="0 0 107 114" fill="none" xmlns="http://www.w3.org/2000/svg">
<path d="M97.9526 44.46L72.852 54.1803L60.3743 21.9603L79.013 14.7407L87.853 18.379L97.9526 44.46Z" fill="#EBEBEB"/>
<path d="M79.0137 14.7407L87.8536 18.379L81.3901 20.8827L79.0137 14.7407Z" fill="#DBDBDB"/>
<path d="M78.9529 39.1085L78.6167 38.3985C77.8705 36.944 77.7443 35.0914 78.5089 32.8703C79.2065 30.8891 79.4968 29.5401 79.0117 28.2666C78.4652 26.8316 77.2018 26.2175 75.4192 26.8644C74.4041 27.246 73.5292 27.9272 72.9105 28.8178L71.5621 27.3033C72.2395 26.2711 73.6635 25.2154 75.1564 24.6531C78.3927 23.4236 80.6149 24.8641 81.4318 26.9999C82.1602 28.9125 81.6161 30.6965 80.8764 32.8142C80.1939 34.7479 80.2165 36.1558 80.8452 37.5571L81.1525 38.2789L78.9529 39.1085ZM79.8313 43.2809C79.4353 42.2404 79.8592 41.2411 80.8441 40.8678C81.8289 40.4946 82.7829 40.9656 83.1796 42.0083C83.5529 42.9932 83.1955 43.9965 82.1551 44.3925C81.1618 44.7709 80.1977 44.2679 79.8221 43.2838L79.8313 43.2809Z" fill="#DBDBDB"/>
<path d="M67.6893 91.7238C87.154 91.7238 102.933 89.9948 102.933 87.8619C102.933 85.729 87.154 84 67.6893 84C48.2246 84 32.4453 85.729 32.4453 87.8619C32.4453 89.9948 48.2246 91.7238 67.6893 91.7238Z" fill="#EBEBEB"/>
<path d="M0.0759469 87.1542L0 86.7926C0.235049 86.742 0.46648 86.6877 0.697913 86.6263L0.788316 86.9879C0.542418 87.0493 0.314612 87.1036 0.0759469 87.1542Z" fill="#1A232B"/>
<path d="M3.9268 56.2C3.6809 55.7625 3.45308 55.3285 3.24696 54.9127L3.57242 54.75C3.77493 55.1622 4.00274 55.5889 4.2414 56.0228L3.9268 56.2ZM2.64307 53.5964C2.45142 53.1444 2.28146 52.6851 2.12235 52.2367L2.48396 52.121C2.63584 52.5586 2.80581 53.0106 2.99385 53.4554L2.64307 53.5964ZM1.70289 50.8373C1.58355 50.3672 1.47868 49.8862 1.39912 49.3908L1.76073 49.333C1.84029 49.7958 1.93793 50.2659 2.05726 50.7288L1.70289 50.8373ZM1.21831 47.9444C1.18215 47.4996 1.16406 47.0512 1.16406 46.6028V46.4835H1.52568V46.5992C1.52568 47.0367 1.52569 47.4779 1.57993 47.9118L1.21831 47.9444ZM1.57993 45.0515L1.21831 45.0153C1.21831 44.9177 1.2364 44.8164 1.24725 44.7115C1.29064 44.3246 1.34489 43.9377 1.40998 43.5689L1.77159 43.6303C1.71012 43.9919 1.65588 44.3716 1.61248 44.7513C1.62695 44.8634 1.62693 44.9611 1.598 45.0623L1.57993 45.0515ZM2.08258 42.2381L1.72096 42.1405C1.85476 41.6631 2.01024 41.1967 2.18382 40.7519L2.52012 40.8821C2.35576 41.3298 2.21574 41.7861 2.10065 42.249L2.08258 42.2381ZM20.1018 40.1299C19.8993 40.1299 19.6896 40.101 19.4834 40.072C19.2014 40.0323 18.9193 39.9853 18.6409 39.931L18.7132 39.5694C18.9808 39.62 19.2592 39.667 19.5341 39.7068C19.7293 39.7321 19.9282 39.7502 20.1199 39.7611L20.1018 40.1299ZM21.588 40.0178L21.5121 39.6562C21.9659 39.5625 22.401 39.3938 22.7994 39.1572L22.9875 39.4645C22.5616 39.7281 22.0947 39.9188 21.6061 40.0286L21.588 40.0178ZM3.12403 39.5875L2.80218 39.4175C3.03246 38.9863 3.28721 38.5685 3.56519 38.1663L3.86171 38.3725C3.59745 38.7663 3.35714 39.1756 3.1421 39.5983L3.12403 39.5875ZM17.227 39.5658C16.7602 39.4177 16.3015 39.2451 15.8528 39.0487L16.0011 38.716C16.4358 38.9091 16.8813 39.077 17.3355 39.2186L17.227 39.5658ZM24.0976 38.4375L23.7975 38.235C24.055 37.8615 24.2074 37.4256 24.2387 36.973L24.6003 36.9983C24.5696 37.5171 24.3997 38.018 24.1085 38.4484L24.0976 38.4375ZM14.551 38.3833C14.1278 38.1373 13.7186 37.8681 13.3251 37.5769L13.5385 37.2876C13.9214 37.57 14.3198 37.8308 14.7318 38.0687L14.551 38.3833ZM4.75129 37.2551L4.4837 37.0128C4.8111 36.6486 5.16007 36.3045 5.52875 35.9822L5.76742 36.2534C5.41267 36.5708 5.07698 36.9089 4.76213 37.2659L4.75129 37.2551ZM12.1969 36.6439C11.8368 36.3122 11.4952 35.9609 11.1736 35.5916L11.4448 35.353C11.7577 35.7116 12.0897 36.0532 12.4392 36.3763L12.1969 36.6439ZM23.9675 35.664C23.7603 35.2507 23.474 34.8821 23.1249 34.5791L23.3636 34.3079C23.7478 34.6403 24.0634 35.0444 24.2929 35.4976L23.9675 35.664ZM6.89204 35.3783L6.68592 35.0818C7.0905 34.8056 7.50936 34.5509 7.94073 34.3188L8.11068 34.637C7.69528 34.8665 7.29215 35.1176 6.9029 35.3891L6.89204 35.3783ZM10.2695 34.4381C10.1321 34.2428 9.9983 34.0439 9.87173 33.8378L9.40164 34.0222L9.26423 33.6896L9.68009 33.5232C9.615 33.4147 9.5499 33.3062 9.48843 33.1978L9.80303 33.0206C9.87535 33.1471 9.94767 33.2737 10.0236 33.3822C10.2261 33.3099 10.4322 33.2411 10.642 33.1761L10.7468 33.5377C10.5696 33.5919 10.3852 33.6498 10.2189 33.7112C10.331 33.8884 10.4467 34.0729 10.5805 34.2284L10.2695 34.4381ZM21.9605 33.8161C21.6106 33.6417 21.2479 33.4943 20.8756 33.3749L20.637 33.299L20.7419 32.9374L20.9877 33.0169C21.3752 33.1404 21.7524 33.294 22.116 33.4762L21.9605 33.8161ZM12.1318 33.1688L12.0559 32.8072C12.5224 32.7023 13.0069 32.6156 13.5024 32.5469L13.5566 32.9085C13.0793 32.9844 12.6055 33.0748 12.1427 33.1797L12.1318 33.1688ZM19.2556 32.9736C18.8036 32.894 18.3263 32.8325 17.8381 32.7891L17.867 32.4275C18.3697 32.4709 18.8578 32.5324 19.3135 32.6156L19.2556 32.9736ZM14.9705 32.7638L14.9452 32.4022C15.3755 32.3769 15.8058 32.3624 16.2325 32.3624H16.4097V32.724H16.2362C15.8275 32.7349 15.4008 32.7457 14.9813 32.7747L14.9705 32.7638ZM8.85922 31.8996C8.66395 31.4584 8.4976 30.9991 8.33488 30.5327L8.69649 30.4206C8.84837 30.8762 9.01834 31.3246 9.20638 31.7549L8.85922 31.8996ZM7.94433 29.1224C7.83584 28.6559 7.74544 28.1713 7.67673 27.6759L8.03835 27.6253C8.10706 28.1026 8.19385 28.5763 8.29872 29.0356L7.94433 29.1224ZM7.53932 26.2295C7.52124 25.904 7.51041 25.5713 7.51041 25.2386C7.51041 25.0831 7.51041 24.924 7.51041 24.7685H7.87202C7.87202 24.924 7.87202 25.0759 7.87202 25.2314C7.87202 25.5569 7.87202 25.8859 7.89734 26.2005L7.53932 26.2295ZM7.96964 23.3365L7.60803 23.3004C7.65865 22.823 7.72736 22.3349 7.81053 21.8539L8.17214 21.9154C8.07451 22.3963 8.00581 22.8592 7.9588 23.3438L7.96964 23.3365ZM8.46505 20.5123L8.10344 20.4256C8.21915 19.9591 8.35296 19.489 8.50123 19.0189L8.86284 19.131C8.70011 19.6047 8.56631 20.0639 8.45421 20.5196L8.46505 20.5123ZM9.33293 17.7749L8.99663 17.6447C9.17383 17.1927 9.35824 16.7407 9.57883 16.3031L9.90429 16.4623C9.68732 16.8962 9.49567 17.3374 9.3221 17.7966L9.33293 17.7749ZM10.5769 15.1966L10.2623 15.0122C10.5082 14.5963 10.7722 14.1805 11.047 13.7827L11.3435 13.9888C11.0614 14.3866 10.8047 14.7916 10.566 15.2038L10.5769 15.1966ZM12.2078 12.8425L11.9257 12.6147C12.2295 12.2531 12.5549 11.8698 12.8912 11.5298L13.1516 11.7794C12.8117 12.1193 12.4934 12.4809 12.1969 12.8497L12.2078 12.8425ZM14.175 10.7596L13.9327 10.492C14.2943 10.1702 14.6559 9.85195 15.0428 9.54458L15.267 9.83026C14.8801 10.1376 14.5112 10.4522 14.1641 10.7668L14.175 10.7596ZM16.4206 8.97323L16.2145 8.67309C16.6086 8.40188 17.0208 8.13429 17.4403 7.88116L17.6247 8.18853C17.2053 8.44528 16.8147 8.70926 16.4097 8.98047L16.4206 8.97323ZM18.8759 7.47977L18.706 7.16154C19.1327 6.93373 19.5738 6.71676 20.015 6.51426L20.1669 6.84333C19.7076 7.04945 19.2845 7.26641 18.8651 7.487L18.8759 7.47977ZM21.4904 6.27921L21.3566 5.93929C21.8122 5.7621 22.2715 5.57768 22.7271 5.44388L22.8428 5.80549C22.3836 5.94291 21.928 6.10925 21.4796 6.28644L21.4904 6.27921Z" fill="#1A232B"/>
<path d="M24.2799 5.36432L24.1895 5.00271C24.6379 4.88699 24.9127 4.83636 24.9127 4.83636L24.9778 5.19798C24.9778 5.19798 24.7174 5.25222 24.2799 5.36432Z" fill="#1A232B"/>
<path d="M30.6724 3.02831C29.7503 0.171559 23.5739 1.19854 24.7781 4.93401C25.9823 8.66949 31.5945 5.88868 30.6724 3.02831Z" fill="#1A232B"/>
<path d="M21.417 1.88561C21.464 0.630804 23.207 -0.334707 25.6732 0.110079C28.1394 0.554864 30.4573 2.21829 30.4573 2.21829C30.4573 2.21829 28.0237 3.69368 25.5322 3.96489C23.0406 4.2361 21.37 3.13679 21.417 1.88561Z" fill="#EBEBEB"/>
<path d="M30.4572 2.21107C29.1771 2.21107 27.9006 2.17491 26.6241 2.13514C25.3476 2.09536 24.0675 2.03027 22.791 1.92902C24.0711 1.92902 25.3512 1.96156 26.6277 2.00134C27.9042 2.04112 29.1843 2.10621 30.4572 2.21107Z" fill="#1A232B"/>
<path d="M23.8965 0.768219C24.6232 1.11588 25.3085 1.54406 25.9396 2.04472C25.5759 1.87406 25.2232 1.68082 24.8837 1.46613C24.5413 1.25292 24.2117 1.01989 23.8965 0.768219Z" fill="#1A232B"/>
<path d="M27.2482 2.09174C26.5941 2.6219 25.8849 3.08017 25.1328 3.45864C25.7903 2.92782 26.5032 2.46953 27.2591 2.09174H27.2482Z" fill="#1A232B"/>
<path d="M27.6191 1.38657C27.9841 1.56178 28.3035 1.81924 28.5521 2.13872C28.3697 2.05261 28.1984 1.94453 28.0422 1.81689C27.8853 1.69004 27.7433 1.54567 27.6191 1.38657Z" fill="#1A232B"/>
<path d="M23.769 9.31677C24.5392 10.3076 26.5173 10.0689 28.2566 8.26809C29.996 6.46725 30.9181 3.75876 30.9181 3.75876C30.9181 3.75876 28.0686 3.97573 25.8953 5.20521C23.722 6.4347 22.9951 8.32233 23.769 9.31677Z" fill="#EBEBEB"/>
<path d="M30.9187 3.75876C29.8772 4.48199 28.8647 5.28477 27.8486 6.06224C26.8324 6.83971 25.838 7.64249 24.8652 8.47059C25.9067 7.74736 26.9192 6.94819 27.9317 6.17072C28.9442 5.39325 29.9314 4.59047 30.9187 3.75876Z" fill="#1A232B"/>
<path d="M26.4277 8.75626C26.621 8.405 26.7937 8.04277 26.9448 7.67142C27.0987 7.29903 27.2292 6.91738 27.3354 6.52872C27.1415 6.87968 26.9688 7.24195 26.8183 7.61356C26.6659 7.9865 26.5355 8.36806 26.4277 8.75626Z" fill="#1A232B"/>
<path d="M28.3868 5.7332C27.5406 5.68797 26.6921 5.73282 25.8555 5.867C26.277 5.89231 26.6996 5.89231 27.1211 5.867C27.5452 5.84632 27.9677 5.80165 28.3868 5.7332Z" fill="#1A232B"/>
<path d="M29.084 6.09117C29.1806 5.91259 29.2559 5.72324 29.3082 5.52705C29.3617 5.3323 29.3932 5.13216 29.4022 4.93039C29.21 5.28837 29.1012 5.6852 29.084 6.09117Z" fill="#1A232B"/>
<path d="M30.6718 3.0283C30.4676 3.09462 30.2483 3.09883 30.0417 3.04042C29.8351 2.98201 29.6504 2.8636 29.5111 2.70018C29.3719 2.53676 29.2842 2.33568 29.2593 2.12241C29.2344 1.90914 29.2733 1.69327 29.3711 1.50214C29.469 1.31101 29.6214 1.15321 29.8089 1.04873C29.9965 0.944256 30.2109 0.897796 30.4249 0.915237C30.6389 0.932678 30.8429 1.01324 31.0111 1.14671C31.1793 1.28018 31.3041 1.46056 31.3698 1.66502C31.4575 1.93836 31.4333 2.23532 31.3025 2.49085C31.1716 2.74638 30.9449 2.93964 30.6718 3.0283Z" fill="#455A64"/>
<path d="M31.3388 5.09313C31.1346 5.15918 30.9156 5.16322 30.7092 5.10476C30.5027 5.0463 30.3183 4.92795 30.1791 4.76468C30.04 4.60141 29.9523 4.40055 29.9273 4.18749C29.9023 3.97442 29.941 3.75872 30.0386 3.56766C30.1361 3.37659 30.2881 3.21875 30.4754 3.11406C30.6626 3.00938 30.8768 2.96256 31.0906 2.97954C31.3045 2.99651 31.5085 3.0765 31.6769 3.20941C31.8453 3.34232 31.9705 3.52217 32.0367 3.72623C32.0807 3.8618 32.0975 4.00472 32.0862 4.1468C32.0749 4.28888 32.0358 4.42736 31.971 4.5543C31.9061 4.68124 31.817 4.79416 31.7085 4.88662C31.6 4.97907 31.4744 5.04925 31.3388 5.09313Z" fill="#455A64"/>
<path d="M105.538 41.6965C105.129 40.7432 104.812 39.6764 103.808 39C102.07 40.0078 100.367 40.9883 98.647 41.987C98.9375 42.5363 99.169 42.9176 99.3506 43.3216C100.504 45.8547 100.944 48.4922 99.5004 50.9844C97.267 54.8294 93.6762 56.9358 89.5361 58.2658C89.3636 57.8028 89.2229 57.4941 89.1366 57.1673C87.9427 52.8184 85.0964 49.9494 81.0699 48.129C77.2385 46.3995 73.1801 46.1589 69.0991 46.5583C66.6166 46.7695 64.185 47.3827 61.8993 48.3742C62.4486 49.9675 63.0161 51.4974 63.4927 53.0544C63.756 53.9079 64.2372 54.1212 65.0226 53.8716C66.8041 53.3382 68.6329 52.9779 70.4836 52.7957C73.8565 52.4007 77.0387 52.9046 79.9123 54.6887C81.7281 55.8145 82.9719 57.4623 83.149 59.6595C82.5861 60.2042 81.9914 60.068 81.4421 60.0771C79.2495 60.1134 77.0796 60.3177 74.8643 60.1815C72.2155 60.0334 69.5769 59.7379 66.9609 59.2963C60.7962 58.2295 54.7723 56.5363 48.7347 54.9111C40.5317 52.7004 32.4104 50.1627 23.8625 49.4183C20.662 49.0977 17.4313 49.2723 14.284 49.9358C12.4546 50.3398 10.5661 50.8346 9 52.1692C9.96701 53.9765 11.0292 55.7313 12.1822 57.426C14.1796 56.45 16.0091 55.6874 18.12 55.583C21.679 55.415 24.9384 56.3275 28.0979 57.821C33.2548 60.2587 37.7172 63.736 42.2022 67.1815C46.3696 70.3819 50.3871 73.782 54.7042 76.7872C56.2431 77.8585 57.7774 78.9435 59.507 80.1601C54.7111 81.6528 49.7673 82.6209 44.7626 83.0472C45.1257 85.2716 46.0291 87.2055 46.6601 89.28H85.5095C86.1178 87.2463 86.9667 85.3533 87.3117 83.1516C85.1328 82.8066 83.0128 82.5842 80.9518 82.1212C78.9272 81.6627 76.8662 81.236 74.8915 80.2645C75.0568 80.1193 75.2295 79.983 75.409 79.8559C80.9972 76.3469 85.9499 72.234 88.5374 65.9014C88.651 65.6193 88.8343 65.3705 89.07 65.1784C89.3058 64.9863 89.5864 64.8571 89.8857 64.8028C94.7157 63.3411 99.0646 61.0622 102.601 57.3352C106.786 52.9228 107.944 47.262 105.556 41.6874L105.538 41.6965ZM76.0264 71.8028C73.6248 73.6922 71.0269 75.3176 68.2774 76.651C67.9684 76.8321 67.6162 76.926 67.258 76.9228C66.8999 76.9196 66.5494 76.8194 66.2437 76.6329C61.9131 74.2951 57.7805 71.6079 53.887 68.5978C50.5051 66.0466 47.2321 63.3501 43.9182 60.7081C43.7539 60.5353 43.6051 60.3485 43.4733 60.1498C55.8118 63.4182 67.887 67.1679 80.7929 66.7094C79.4652 68.6325 77.8605 70.3488 76.031 71.8028H76.0264Z" fill="#BFA274"/>
<path d="M82.7676 76.4196C82.967 76.9852 83.2129 77.5334 83.503 78.0584C88.9323 77.9403 94.3737 77.8238 99.8272 77.7088V77.6271C94.1891 77.2276 88.5464 76.8327 82.7676 76.4241V76.4196Z" fill="#475669"/>
<path d="M85.9453 72.334C86.1447 72.8996 86.3907 73.4477 86.6807 73.9727C92.11 73.8547 97.5514 73.7382 103.005 73.6232V73.5415C97.3668 73.142 91.7242 72.7471 85.9453 72.3385V72.334Z" fill="#475669"/>
<path d="M89.5762 68.2484C89.7756 68.8141 90.0215 69.3622 90.3116 69.8872C95.7409 69.7692 101.182 69.6526 106.636 69.5376V69.4559C100.998 69.0565 95.355 68.6615 89.5762 68.253V68.2484Z" fill="#475669"/>
<path d="M75.5723 101C77.7814 101 79.5723 99.2091 79.5723 97C79.5723 94.7909 77.7814 93 75.5723 93C73.3631 93 71.5723 94.7909 71.5723 97C71.5723 99.2091 73.3631 101 75.5723 101Z" fill="#475669"/>
<path d="M57.5723 101C59.7814 101 61.5723 99.2091 61.5723 97C61.5723 94.7909 59.7814 93 57.5723 93C55.3631 93 53.5723 94.7909 53.5723 97C53.5723 99.2091 55.3631 101 57.5723 101Z" fill="#475669"/>
<path d="M82.5723 113C82.5723 113 75.4088 106 66.5723 106C57.7357 106 50.5723 113 50.5723 113" stroke="#475669" stroke-width="2" stroke-linecap="round"/>
</svg>
