<svg width="21" height="20" viewBox="0 0 21 20" fill="none" xmlns="http://www.w3.org/2000/svg">
<path fill-rule="evenodd" clip-rule="evenodd" d="M10.2358 19.8376C7.83676 18.3532 5.60491 16.6062 3.58027 14.628C2.15685 13.2032 1.07322 11.4664 0.412374 9.55045C-0.776845 5.83368 0.612238 1.5787 4.49966 0.31947C6.54273 -0.341742 8.77402 0.0361696 10.4957 1.33498C12.2179 0.0377585 14.4486 -0.340019 16.4917 0.31947C20.3792 1.5787 21.7782 5.83368 20.589 9.55045C19.9281 11.4664 18.8445 13.2032 17.421 14.628C15.3964 16.6062 13.1646 18.3532 10.7655 19.8376L10.5056 20L10.2358 19.8376Z" fill="#BFA274"/>
<path d="M14.6329 4.50335C15.8103 4.88146 16.6469 5.94412 16.7515 7.19444L14.6329 4.50335Z" fill="#BFA274"/>
</svg>
