<svg width="30" height="30" viewBox="0 0 30 30" fill="none" xmlns="http://www.w3.org/2000/svg">
<g clip-path="url(#clip0_293_5873)">
<path d="M30 15C30 6.71578 23.2842 0 15 0C6.71578 0 0 6.71566 0 15C0 22.4869 5.48531 28.6925 12.6563 29.8178V19.3359H8.84766V15H12.6563V11.6953C12.6563 7.93594 14.8957 5.85938 18.3219 5.85938C19.9631 5.85938 21.6797 6.15234 21.6797 6.15234V9.84375H19.7883C17.9248 9.84375 17.3438 11 17.3438 12.1863V15H21.5039L20.8389 19.3359H17.3438V29.8178C24.5147 28.6925 30 22.487 30 15Z" fill="#1877F2"/>
<path d="M20.8384 19.336L21.5034 15H17.3433V12.1863C17.3433 10.9999 17.9244 9.84376 19.7878 9.84376H21.6792V6.15236C21.6792 6.15236 19.9626 5.85939 18.3214 5.85939C14.8952 5.85939 12.6558 7.93595 12.6558 11.6953V15H8.84717V19.336H12.6558V29.8178C13.4311 29.9393 14.2147 30.0002 14.9995 30C15.7843 30.0003 16.5679 29.9393 17.3433 29.8178V19.336H20.8384Z" fill="white"/>
</g>
<defs>
<clipPath id="clip0_293_5873">
<rect width="29.452" height="29.452" fill="white" transform="scale(1.01861)"/>
</clipPath>
</defs>
</svg>
