<svg width="21" height="18" viewBox="0 0 21 18" fill="none" xmlns="http://www.w3.org/2000/svg">
<path d="M2.46973 13.9584H6.47014V15.1882H2.46973V13.9584Z" fill="#BFA274"/>
<path d="M2.46973 11.4987H6.47014V12.7285H2.46973V11.4987Z" fill="#BFA274"/>
<path d="M17.6648 7.38195V0H0V17.6478H16.2806V17.613C18.9327 17.3109 21 15.0534 21 12.3217C21 10.0885 19.6182 8.17212 17.6648 7.38195ZM1.22981 1.22981H16.435V3.66159H1.22981V1.22981ZM10.3478 4.89144V6.25222H7.31698V4.89144H10.3478ZM1.22981 16.418V4.89144H6.08717V7.48203H11.5776V4.89144H16.435V7.05022C16.1863 7.01449 15.9323 6.99558 15.6739 6.99558C12.7371 6.99558 10.3478 9.38487 10.3478 12.3217C10.3478 13.9669 11.0978 15.4402 12.2737 16.4179H1.22981V16.418ZM16.2888 16.3718V15.1683H15.059V16.3718C13.2852 16.1036 11.881 14.6938 11.6211 12.9173H12.808V11.6874H11.6268C11.9013 9.92919 13.2981 8.53777 15.0591 8.27154V9.43638H16.2889V8.27154C18.0498 8.53777 19.4466 9.92915 19.7211 11.6874H18.54V12.9173H19.7268C19.4668 14.6938 18.0626 16.1036 16.2888 16.3718Z" fill="#BFA274"/>
<path d="M16.2825 10.585H15.0527V12.9323L16.4037 13.9026L17.1212 12.9038L16.2825 12.3014V10.585Z" fill="#BFA274"/>
</svg>
