<svg width="24" height="24" viewBox="0 0 24 24" fill="none" xmlns="http://www.w3.org/2000/svg">
<g clip-path="url(#clip0_843_19492)">
<path d="M17.5034 1.14282H14.9254V2.73751H16.7061V6.29898C16.7061 8.98098 14.524 11.1628 11.8423 11.1628H11.4702C8.7882 11.1628 6.60641 8.9807 6.60641 6.29898V2.73751H8.38714V1.14282H5.80906C5.36867 1.14282 5.01172 1.49978 5.01172 1.94017V6.29898C5.01172 9.86017 7.90902 12.7575 11.4702 12.7575H11.8423C15.4035 12.7575 18.3008 9.86017 18.3008 6.29898V1.94017C18.3008 1.49978 17.9438 1.14282 17.5034 1.14282Z" fill="#4485FD"/>
<path d="M14.8442 0C14.4038 0 14.0469 0.356953 14.0469 0.797344V3.02991C14.0469 3.4703 14.4038 3.82725 14.8442 3.82725C15.2846 3.82725 15.6416 3.4703 15.6416 3.02991V0.797344C15.6416 0.356953 15.2846 0 14.8442 0Z" fill="#4485FD"/>
<path d="M8.54344 0C8.10305 0 7.74609 0.356953 7.74609 0.797344V3.02991C7.74609 3.4703 8.10305 3.82725 8.54344 3.82725C8.98383 3.82725 9.34078 3.4703 9.34078 3.02991V0.797344C9.34078 0.356953 8.98383 0 8.54344 0Z" fill="#4485FD"/>
<path d="M12.5055 16.4522V11.934H10.9108V16.4522H8.33269C6.25162 16.4522 4.55859 18.1453 4.55859 20.2261C4.55859 22.3071 6.26358 24.0001 8.35927 24.0001H8.73136C10.8124 24.0001 12.5055 22.3071 12.5055 20.2261V18.0469H15.2164V16.4522H12.5055ZM10.9108 20.2258C10.9108 21.4274 9.93295 22.4052 8.73136 22.4052H8.35927C7.12233 22.4052 6.15328 21.4481 6.15328 20.2258C6.15328 19.0242 7.13109 18.0466 8.33269 18.0466H10.9108V20.2258Z" fill="#4485FD"/>
<path d="M16.9434 14.7512C15.5661 14.7512 14.4453 15.8717 14.4453 17.2495C14.4453 18.6268 15.5659 19.7476 16.9434 19.7476C18.3209 19.7476 19.4417 18.6268 19.4417 17.2495C19.4417 15.8719 18.3212 14.7512 16.9434 14.7512ZM16.9434 18.1526C16.4453 18.1526 16.04 17.7473 16.04 17.2493C16.04 16.7509 16.4453 16.3456 16.9434 16.3456C17.4417 16.3456 17.847 16.7509 17.847 17.2493C17.847 17.7473 17.4417 18.1526 16.9434 18.1526Z" fill="#4485FD"/>
</g>
<defs>
<clipPath id="clip0_843_19492">
<rect width="24" height="24" fill="white"/>
</clipPath>
</defs>
</svg>
