<svg width="23" height="23" viewBox="0 0 23 23" fill="none" xmlns="http://www.w3.org/2000/svg">
<mask id="path-1-outside-1_338_27880" maskUnits="userSpaceOnUse" x="-0.804269" y="-0.803472" width="24.1045" height="24.1045" fill="black">
<rect fill="white" x="-0.804269" y="-0.803472" width="24.1045" height="24.1045"/>
<path d="M0.200086 9.92327C0.200086 10.1323 0.283139 10.3329 0.430975 10.4807C0.57881 10.6285 0.779318 10.7116 0.988388 10.7116C1.19746 10.7116 1.39797 10.6285 1.5458 10.4807C1.69364 10.3329 1.77669 10.1323 1.77669 9.92327H0.200086ZM2.11724 15.3111C2.03723 15.1179 1.88376 14.9644 1.69059 14.8844C1.49742 14.8043 1.28037 14.8043 1.08719 14.8843C0.894008 14.9643 0.74052 15.1178 0.660492 15.311C0.580464 15.5041 0.58045 15.7212 0.660455 15.9144L2.11724 15.3111ZM13.3195 21.7688L13.8892 20.806L12.5333 20.003L11.9626 20.9658L13.3195 21.7688ZM9.10895 20.806L9.67863 21.7688L11.0345 20.9658L10.4659 20.003L9.10895 20.806ZM11.9626 20.9658C11.9135 21.0444 11.8452 21.1093 11.7641 21.1542C11.683 21.1992 11.5918 21.2228 11.4991 21.2228C11.4064 21.2228 11.3152 21.1992 11.2341 21.1542C11.153 21.1093 11.0847 21.0444 11.0356 20.9658L9.67863 21.7688C10.4911 23.1426 12.506 23.1426 13.3195 21.7688L11.9637 20.9658H11.9626ZM9.92248 1.77749H13.0757V0.200884H9.92248V1.77749ZM21.2215 9.92327V10.9743H22.7981V9.92327H21.2215ZM7.08774 18.0607C5.7676 18.0375 5.076 17.9534 4.53365 17.7285L3.93138 19.1853C4.77749 19.5364 5.74027 19.6152 7.06042 19.6383L7.08774 18.0607ZM0.660455 15.9144C0.964177 16.6477 1.40936 17.3139 1.97059 17.8752C2.53182 18.4364 3.1981 18.8816 3.93138 19.1853L4.53365 17.7285C3.43914 17.2751 2.57061 16.4056 2.11724 15.3111L0.660455 15.9144ZM21.2215 10.9743C21.2215 12.2093 21.2215 13.0965 21.1731 13.7965C21.1258 14.4891 21.0354 14.9411 20.882 15.3111L22.3377 15.9144C22.5847 15.3195 22.693 14.6762 22.7466 13.9037C22.7991 13.1374 22.7981 12.1883 22.7981 10.9743H21.2215ZM15.9377 19.6362C17.2579 19.6141 18.2207 19.5364 19.0668 19.1853L18.4635 17.7285C17.9222 17.9534 17.2306 18.0375 15.9115 18.0607L15.9377 19.6373V19.6362ZM20.882 15.3111C20.4286 16.4056 19.559 17.2751 18.4645 17.7285L19.0668 19.1853C19.8001 18.8816 20.4663 18.4364 21.0276 17.8752C21.5888 17.3139 22.034 16.6477 22.3377 15.9144L20.882 15.3111ZM13.0757 1.77749C14.811 1.77749 16.0576 1.77749 17.0298 1.87103C17.9905 1.96248 18.6012 2.13695 19.0889 2.43546L19.9118 1.09114C19.1351 0.616056 18.2543 0.40374 17.1791 0.300735C16.1154 0.199833 14.7805 0.200884 13.0757 0.200884V1.77749ZM22.7981 9.92327C22.7981 8.21844 22.7981 6.88463 22.6972 5.8199C22.5952 4.74466 22.3829 3.86281 21.9078 3.08712L20.5624 3.91011C20.862 4.3978 21.0365 5.00847 21.1279 5.9702C21.2204 6.94139 21.2215 8.18796 21.2215 9.92327H22.7981ZM19.0878 2.43546C19.6892 2.80364 20.1949 3.30897 20.5635 3.91011L21.9078 3.08712C21.4094 2.27357 20.7254 1.58959 19.9118 1.09114L19.0889 2.43651L19.0878 2.43546ZM9.92248 0.200884C8.21764 0.200884 6.88384 0.200884 5.8191 0.300735C4.74386 0.40374 3.86201 0.616056 3.08632 1.09114L3.90931 2.43651C4.39701 2.13695 5.00768 1.96248 5.96941 1.87103C6.94059 1.77854 8.18716 1.77749 9.92248 1.77749V0.200884ZM1.77669 9.92327C1.77669 8.18796 1.77669 6.94139 1.87024 5.96915C1.96168 5.00847 2.13616 4.3978 2.43466 3.91011L1.09034 3.08817C0.615259 3.86386 0.402943 4.74466 0.299938 5.8199C0.200086 6.88568 0.200086 8.21844 0.200086 9.92327H1.77669ZM3.08632 1.09114C2.27277 1.58959 1.58879 2.27462 1.09034 3.08817L2.43571 3.91011C2.80373 3.30921 3.30868 2.8039 3.90931 2.43546L3.08632 1.09114ZM10.4648 20.003C10.2525 19.6425 10.0654 19.324 9.88254 19.0739C9.69443 18.7996 9.45006 18.5685 9.16571 18.3959L8.3732 19.7592C8.4226 19.7886 8.49092 19.8412 8.60864 20.003C8.73582 20.1775 8.87982 20.4193 9.10895 20.806L10.4648 20.003ZM7.06042 19.6362C7.52289 19.6446 7.81403 19.6509 8.03686 19.6751C8.24497 19.6982 8.3259 19.7319 8.3732 19.7592L9.16571 18.3959C8.87142 18.2329 8.54565 18.1347 8.21029 18.108C7.89707 18.0733 7.52078 18.068 7.08774 18.0607L7.06042 19.6383V19.6362ZM13.8892 20.806C14.1183 20.4203 14.2623 20.1775 14.3895 20.003C14.5072 19.8412 14.5756 19.7886 14.625 19.7592L13.8325 18.3959C13.5276 18.5746 13.3069 18.8111 13.1156 19.0739C12.9338 19.324 12.7456 19.6415 12.5323 20.003L13.8892 20.806ZM15.9115 18.0607C15.4784 18.068 15.1011 18.0733 14.7879 18.108C14.461 18.1447 14.1404 18.2173 13.8325 18.3959L14.625 19.7592C14.6723 19.7319 14.7532 19.6982 14.9613 19.6751C15.1841 19.6509 15.4763 19.6436 15.9388 19.6362L15.9115 18.0596V18.0607Z"/>
</mask>
<path d="M0.200086 9.92327C0.200086 10.1323 0.283139 10.3329 0.430975 10.4807C0.57881 10.6285 0.779318 10.7116 0.988388 10.7116C1.19746 10.7116 1.39797 10.6285 1.5458 10.4807C1.69364 10.3329 1.77669 10.1323 1.77669 9.92327H0.200086ZM2.11724 15.3111C2.03723 15.1179 1.88376 14.9644 1.69059 14.8844C1.49742 14.8043 1.28037 14.8043 1.08719 14.8843C0.894008 14.9643 0.74052 15.1178 0.660492 15.311C0.580464 15.5041 0.58045 15.7212 0.660455 15.9144L2.11724 15.3111ZM13.3195 21.7688L13.8892 20.806L12.5333 20.003L11.9626 20.9658L13.3195 21.7688ZM9.10895 20.806L9.67863 21.7688L11.0345 20.9658L10.4659 20.003L9.10895 20.806ZM11.9626 20.9658C11.9135 21.0444 11.8452 21.1093 11.7641 21.1542C11.683 21.1992 11.5918 21.2228 11.4991 21.2228C11.4064 21.2228 11.3152 21.1992 11.2341 21.1542C11.153 21.1093 11.0847 21.0444 11.0356 20.9658L9.67863 21.7688C10.4911 23.1426 12.506 23.1426 13.3195 21.7688L11.9637 20.9658H11.9626ZM9.92248 1.77749H13.0757V0.200884H9.92248V1.77749ZM21.2215 9.92327V10.9743H22.7981V9.92327H21.2215ZM7.08774 18.0607C5.7676 18.0375 5.076 17.9534 4.53365 17.7285L3.93138 19.1853C4.77749 19.5364 5.74027 19.6152 7.06042 19.6383L7.08774 18.0607ZM0.660455 15.9144C0.964177 16.6477 1.40936 17.3139 1.97059 17.8752C2.53182 18.4364 3.1981 18.8816 3.93138 19.1853L4.53365 17.7285C3.43914 17.2751 2.57061 16.4056 2.11724 15.3111L0.660455 15.9144ZM21.2215 10.9743C21.2215 12.2093 21.2215 13.0965 21.1731 13.7965C21.1258 14.4891 21.0354 14.9411 20.882 15.3111L22.3377 15.9144C22.5847 15.3195 22.693 14.6762 22.7466 13.9037C22.7991 13.1374 22.7981 12.1883 22.7981 10.9743H21.2215ZM15.9377 19.6362C17.2579 19.6141 18.2207 19.5364 19.0668 19.1853L18.4635 17.7285C17.9222 17.9534 17.2306 18.0375 15.9115 18.0607L15.9377 19.6373V19.6362ZM20.882 15.3111C20.4286 16.4056 19.559 17.2751 18.4645 17.7285L19.0668 19.1853C19.8001 18.8816 20.4663 18.4364 21.0276 17.8752C21.5888 17.3139 22.034 16.6477 22.3377 15.9144L20.882 15.3111ZM13.0757 1.77749C14.811 1.77749 16.0576 1.77749 17.0298 1.87103C17.9905 1.96248 18.6012 2.13695 19.0889 2.43546L19.9118 1.09114C19.1351 0.616056 18.2543 0.40374 17.1791 0.300735C16.1154 0.199833 14.7805 0.200884 13.0757 0.200884V1.77749ZM22.7981 9.92327C22.7981 8.21844 22.7981 6.88463 22.6972 5.8199C22.5952 4.74466 22.3829 3.86281 21.9078 3.08712L20.5624 3.91011C20.862 4.3978 21.0365 5.00847 21.1279 5.9702C21.2204 6.94139 21.2215 8.18796 21.2215 9.92327H22.7981ZM19.0878 2.43546C19.6892 2.80364 20.1949 3.30897 20.5635 3.91011L21.9078 3.08712C21.4094 2.27357 20.7254 1.58959 19.9118 1.09114L19.0889 2.43651L19.0878 2.43546ZM9.92248 0.200884C8.21764 0.200884 6.88384 0.200884 5.8191 0.300735C4.74386 0.40374 3.86201 0.616056 3.08632 1.09114L3.90931 2.43651C4.39701 2.13695 5.00768 1.96248 5.96941 1.87103C6.94059 1.77854 8.18716 1.77749 9.92248 1.77749V0.200884ZM1.77669 9.92327C1.77669 8.18796 1.77669 6.94139 1.87024 5.96915C1.96168 5.00847 2.13616 4.3978 2.43466 3.91011L1.09034 3.08817C0.615259 3.86386 0.402943 4.74466 0.299938 5.8199C0.200086 6.88568 0.200086 8.21844 0.200086 9.92327H1.77669ZM3.08632 1.09114C2.27277 1.58959 1.58879 2.27462 1.09034 3.08817L2.43571 3.91011C2.80373 3.30921 3.30868 2.8039 3.90931 2.43546L3.08632 1.09114ZM10.4648 20.003C10.2525 19.6425 10.0654 19.324 9.88254 19.0739C9.69443 18.7996 9.45006 18.5685 9.16571 18.3959L8.3732 19.7592C8.4226 19.7886 8.49092 19.8412 8.60864 20.003C8.73582 20.1775 8.87982 20.4193 9.10895 20.806L10.4648 20.003ZM7.06042 19.6362C7.52289 19.6446 7.81403 19.6509 8.03686 19.6751C8.24497 19.6982 8.3259 19.7319 8.3732 19.7592L9.16571 18.3959C8.87142 18.2329 8.54565 18.1347 8.21029 18.108C7.89707 18.0733 7.52078 18.068 7.08774 18.0607L7.06042 19.6383V19.6362ZM13.8892 20.806C14.1183 20.4203 14.2623 20.1775 14.3895 20.003C14.5072 19.8412 14.5756 19.7886 14.625 19.7592L13.8325 18.3959C13.5276 18.5746 13.3069 18.8111 13.1156 19.0739C12.9338 19.324 12.7456 19.6415 12.5323 20.003L13.8892 20.806ZM15.9115 18.0607C15.4784 18.068 15.1011 18.0733 14.7879 18.108C14.461 18.1447 14.1404 18.2173 13.8325 18.3959L14.625 19.7592C14.6723 19.7319 14.7532 19.6982 14.9613 19.6751C15.1841 19.6509 15.4763 19.6436 15.9388 19.6362L15.9115 18.0596V18.0607Z" fill="#BFA274"/>
<path d="M3.93138 19.1853L3.83857 19.1469L4.02417 19.2237L3.93138 19.1853ZM22.3377 15.9144L22.2993 16.0072L22.3762 15.8216L22.3377 15.9144ZM9.16571 18.3959L9.25255 18.4464L9.07888 18.3455L9.16571 18.3959ZM12.5904 21.4537L13.2684 21.8552L13.3707 21.6824L12.6928 21.2809L12.5904 21.4537ZM13.2624 20.3181L12.5834 19.9166L12.4812 20.0895L13.1602 20.491L13.2624 20.3181ZM9.73571 20.3181L9.05777 20.7196L9.16013 20.8925L9.83807 20.491L9.73571 20.3181ZM10.4077 21.4538L11.0867 21.0523L10.9844 20.8794L10.3054 21.2809L10.4077 21.4538ZM1.77669 9.82284H0.200086V10.0237H1.77669V9.82284ZM0.698884 16.0072L2.15567 15.4038L2.07881 15.2183L0.622025 15.8216L0.698884 16.0072ZM6.97366 18.8462L6.95999 19.6345L7.16084 19.6379L7.1745 18.8496L6.97366 18.8462ZM4.14025 18.4185L3.83859 19.1469L4.02417 19.2237L4.32583 18.4953L4.14025 18.4185ZM21.5709 15.7055L22.2993 16.0072L22.3761 15.8216L21.6477 15.5199L21.5709 15.7055ZM16.0245 18.8463L16.0119 18.058L15.811 18.0612L15.8237 18.8495L16.0245 18.8463ZM18.6723 18.4953L18.974 19.2237L19.1596 19.1469L18.8579 18.4185L18.6723 18.4953ZM19.4152 1.71136L19.0032 2.38405L19.1745 2.48897L19.5865 1.81628L19.4152 1.71136ZM21.2875 3.58379L21.9602 3.17283L21.8555 3.00141L21.1828 3.41238L21.2875 3.58379ZM3.58399 1.71242L3.17197 1.03973L3.00068 1.14465L3.41269 1.81733L3.58399 1.71242ZM1.81539 3.41343L1.1427 3.00246L1.03798 3.17388L1.71067 3.58485L1.81539 3.41343ZM8.8563 19.1285L9.25255 18.4464L9.07886 18.3455L8.68261 19.0276L8.8563 19.1285ZM13.1761 1.77749V0.200884H12.9752V1.77749H13.1761ZM9.82204 0.200884V1.77749H10.0229V0.200884H9.82204ZM21.2215 11.0748H22.7981V10.8739H21.2215V11.0748ZM22.7981 9.82284H21.2215V10.0237H22.7981V9.82284ZM4.44083 17.6901L3.83857 19.1469L4.0242 19.2237L4.62646 17.7669L4.44083 17.6901ZM7.16084 19.64L7.18816 18.0624L6.98732 18.0589L6.95999 19.6366L7.16084 19.64ZM20.8435 15.4038L22.2993 16.0072L22.3762 15.8216L20.9204 15.2183L20.8435 15.4038ZM9.07888 18.3455L8.28637 19.7087L8.46003 19.8097L9.25254 18.4464L9.07888 18.3455ZM14.7118 19.7087L13.9193 18.3455L13.7456 18.4464L14.5381 19.8097L14.7118 19.7087ZM13.3195 21.7688L13.4924 21.8712L13.4924 21.8711L13.3195 21.7688ZM12.5323 20.003L12.3593 19.9009L12.2573 20.0737L12.43 20.1759L12.5323 20.003ZM11.0356 20.9658L11.2059 20.8594L11.102 20.6931L10.9333 20.7929L11.0356 20.9658ZM2.11724 15.3111L1.93165 15.3879L1.93166 15.3879L2.11724 15.3111ZM0.660455 15.9144L0.474869 15.9912L0.474873 15.9912L0.660455 15.9144ZM7.06042 19.6362L7.06407 19.4354L6.85954 19.4316V19.6362H7.06042ZM3.93138 19.1853L4.00836 18.9998L4.00825 18.9997L3.93138 19.1853ZM22.3377 15.9144L22.1522 15.8373L22.1521 15.8375L22.3377 15.9144ZM15.9115 18.0596L16.1123 18.0561L15.7106 18.0596H15.9115ZM19.0889 2.43651L18.9469 2.57863L19.1272 2.75873L19.2602 2.54133L19.0889 2.43651ZM21.9078 3.08712L22.0791 2.98221L22.0791 2.98218L21.9078 3.08712ZM1.09034 3.08817L0.919062 2.98323L0.919046 2.98326L1.09034 3.08817ZM9.16571 18.3959L9.26999 18.2241L9.26305 18.2202L9.16571 18.3959ZM12.5333 20.003L12.6357 19.8302L12.4629 19.7279L12.3605 19.9006L12.5333 20.003ZM11.0345 20.9658L11.1369 21.1386L11.3095 21.0364L11.2075 20.8637L11.0345 20.9658ZM10.4659 20.003L10.6388 19.9009L10.5366 19.7278L10.3636 19.8302L10.4659 20.003ZM11.9637 20.9658L12.066 20.793L12.0187 20.7649H11.9637V20.9658ZM7.08774 18.0607L7.08423 18.2615L7.08433 18.2615L7.08774 18.0607ZM4.53365 17.7285L4.6106 17.543L4.61052 17.5429L4.53365 17.7285ZM7.06042 19.6383L7.0569 19.8391L7.26129 19.8427V19.6383H7.06042ZM21.1731 13.7965L20.9727 13.7826L20.9727 13.7828L21.1731 13.7965ZM20.882 15.3111L20.6964 15.2341L20.6964 15.2342L20.882 15.3111ZM22.7466 13.9037L22.947 13.9176L22.947 13.9174L22.7466 13.9037ZM15.9377 19.6362L15.9344 19.4354L15.7369 19.4387V19.6362H15.9377ZM18.4635 17.7285L18.6491 17.6517L18.5721 17.4659L18.3864 17.543L18.4635 17.7285ZM15.9377 19.6373L15.7369 19.6406L16.1386 19.6373H15.9377ZM18.4645 17.7285L18.3876 17.5429L18.2022 17.6198L18.2789 17.8053L18.4645 17.7285ZM17.0298 1.87103L17.0106 2.07098L17.0108 2.071L17.0298 1.87103ZM19.0889 2.43546L18.984 2.60678L19.1553 2.71164L19.2602 2.54034L19.0889 2.43546ZM19.9118 1.09114L20.0168 0.919859L20.0166 0.91978L19.9118 1.09114ZM17.1791 0.300735L17.1982 0.10078L17.198 0.100762L17.1791 0.300735ZM22.6972 5.8199L22.8971 5.80095V5.80094L22.6972 5.8199ZM20.5624 3.91011L20.4576 3.73875L20.286 3.84376L20.3913 4.01524L20.5624 3.91011ZM21.1279 5.9702L20.928 5.98922L20.928 5.98925L21.1279 5.9702ZM19.0878 2.43546L19.1927 2.26414L18.9458 2.57758L19.0878 2.43546ZM20.5635 3.91011L20.3923 4.01511L20.4972 4.18623L20.6684 4.08142L20.5635 3.91011ZM5.8191 0.300735L5.80035 0.100741L5.79995 0.10078L5.8191 0.300735ZM3.08632 1.09114L2.98141 0.919843L2.98138 0.919859L3.08632 1.09114ZM3.90931 2.43651L3.73796 2.54133L3.84297 2.71299L4.01444 2.60767L3.90931 2.43651ZM5.96941 1.87103L5.98842 2.071L5.98845 2.071L5.96941 1.87103ZM1.87024 5.96915L2.07018 5.98839L2.0702 5.98819L1.87024 5.96915ZM2.43466 3.91011L2.60599 4.01497L2.7109 3.84356L2.53944 3.73873L2.43466 3.91011ZM0.299938 5.8199L0.0999819 5.80075L0.0999428 5.80116L0.299938 5.8199ZM2.43571 3.91011L2.33099 4.08152L2.50221 4.18613L2.60701 4.01502L2.43571 3.91011ZM3.90931 2.43546L4.01434 2.60668L4.18541 2.50174L4.08063 2.33058L3.90931 2.43546ZM10.4648 20.003L10.5672 20.1759L10.7396 20.0738L10.6379 19.9011L10.4648 20.003ZM9.88254 19.0739L9.7168 19.1875L9.72038 19.1924L9.88254 19.0739ZM8.3732 19.7592L8.47602 19.5866L8.47369 19.5853L8.3732 19.7592ZM8.60864 20.003L8.44619 20.1212L8.44632 20.1213L8.60864 20.003ZM8.03686 19.6751L8.05904 19.4755L8.05852 19.4754L8.03686 19.6751ZM8.21029 18.108L8.18817 18.3077L8.19431 18.3082L8.21029 18.108ZM14.3895 20.003L14.5518 20.1213L14.552 20.1212L14.3895 20.003ZM14.625 19.7592L14.5245 19.5852L14.5222 19.5866L14.625 19.7592ZM13.8325 18.3959L13.7316 18.2222L13.7309 18.2227L13.8325 18.3959ZM13.1156 19.0739L12.9532 18.9557L12.9531 18.9558L13.1156 19.0739ZM14.7879 18.108L14.7658 17.9083L14.7654 17.9083L14.7879 18.108ZM14.9613 19.6751L14.9396 19.4754L14.9391 19.4755L14.9613 19.6751ZM15.9388 19.6362L15.942 19.8371L16.1431 19.8338L16.1396 19.6327L15.9388 19.6362ZM-0.000784655 9.92327C-0.000784655 10.1856 0.103432 10.4372 0.288937 10.6227L0.573012 10.3386C0.462847 10.2285 0.400957 10.0791 0.400957 9.92327H-0.000784655ZM0.288937 10.6227C0.474443 10.8082 0.726043 10.9124 0.988388 10.9124V10.5107C0.832592 10.5107 0.683177 10.4488 0.573012 10.3386L0.288937 10.6227ZM0.988388 10.9124C1.25073 10.9124 1.50233 10.8082 1.68784 10.6227L1.40376 10.3386C1.2936 10.4488 1.14418 10.5107 0.988388 10.5107V10.9124ZM1.68784 10.6227C1.87335 10.4372 1.97756 10.1856 1.97756 9.92327H1.57582C1.57582 10.0791 1.51393 10.2285 1.40376 10.3386L1.68784 10.6227ZM2.30282 15.2342C2.20243 14.9918 2.00986 14.7992 1.76747 14.6988L1.61371 15.0699C1.75766 15.1296 1.87203 15.244 1.93165 15.3879L2.30282 15.2342ZM1.76747 14.6988C1.52508 14.5984 1.25273 14.5983 1.01033 14.6987L1.16405 15.0699C1.30801 15.0103 1.46976 15.0103 1.61371 15.0699L1.76747 14.6988ZM1.01033 14.6987C0.767929 14.7991 0.575334 14.9917 0.474916 15.2341L0.846068 15.3878C0.905706 15.2439 1.02009 15.1295 1.16405 15.0699L1.01033 14.6987ZM0.474916 15.2341C0.374498 15.4765 0.374481 15.7488 0.474869 15.9912L0.84604 15.8375C0.78642 15.6935 0.78643 15.5318 0.846068 15.3878L0.474916 15.2341ZM13.4924 21.8711L14.0621 20.9083L13.7163 20.7038L13.1467 21.6665L13.4924 21.8711ZM13.9916 20.6332L12.6357 19.8302L12.431 20.1759L13.7869 20.9789L13.9916 20.6332ZM12.3605 19.9006L11.7898 20.8634L12.1354 21.0682L12.7061 20.1055L12.3605 19.9006ZM11.8603 21.1387L13.2172 21.9417L13.4218 21.596L12.0649 20.7929L11.8603 21.1387ZM8.93607 20.9083L9.50575 21.8711L9.8515 21.6665L9.28182 20.7038L8.93607 20.9083ZM9.78099 21.9417L11.1369 21.1386L10.9321 20.793L9.57627 21.596L9.78099 21.9417ZM11.2075 20.8637L10.6388 19.9009L10.2929 20.1052L10.8615 21.068L11.2075 20.8637ZM10.3636 19.8302L9.00665 20.6332L9.21125 20.9789L10.5682 20.1759L10.3636 19.8302ZM11.7922 20.8594C11.7612 20.9091 11.718 20.9501 11.6667 20.9785L11.8615 21.3299C11.9723 21.2684 12.0658 21.1798 12.133 21.0722L11.7922 20.8594ZM11.6667 20.9785C11.6154 21.007 11.5577 21.0219 11.4991 21.0219V21.4236C11.6259 21.4236 11.7506 21.3914 11.8615 21.3299L11.6667 20.9785ZM11.4991 21.0219C11.4404 21.0219 11.3828 21.007 11.3315 20.9785L11.1367 21.3299C11.2476 21.3914 11.3723 21.4236 11.4991 21.4236V21.0219ZM11.3315 20.9785C11.2802 20.9501 11.237 20.9091 11.2059 20.8594L10.8652 21.0722C10.9324 21.1798 11.0258 21.2684 11.1367 21.3299L11.3315 20.9785ZM10.9333 20.7929L9.57633 21.596L9.78093 21.9417L11.1379 21.1387L10.9333 20.7929ZM9.50573 21.8711C10.396 23.3764 12.6011 23.3762 13.4924 21.8712L13.1467 21.6665C12.4109 22.9089 10.5862 22.9087 9.85152 21.6666L9.50573 21.8711ZM13.4219 21.596L12.066 20.793L11.8613 21.1386L13.2172 21.9417L13.4219 21.596ZM11.9637 20.7649H11.9626V21.1667H11.9637V20.7649ZM9.92248 1.97836H13.0757V1.57662H9.92248V1.97836ZM13.0757 1.26912e-05H9.92248V0.401755H13.0757V1.26912e-05ZM21.0206 9.92327V10.9743H21.4223V9.92327H21.0206ZM22.9989 10.9743V9.92327H22.5972V10.9743H22.9989ZM7.09126 17.8598C5.77082 17.8367 5.11409 17.7518 4.6106 17.543L4.45669 17.9141C5.03791 18.1551 5.76438 18.2384 7.08423 18.2615L7.09126 17.8598ZM3.8544 19.3708C4.73914 19.7379 5.73642 19.816 7.0569 19.8391L7.06393 19.4375C5.74413 19.4143 4.81585 19.3348 4.00836 18.9998L3.8544 19.3708ZM0.474873 15.9912C0.78869 16.7489 1.24867 17.4373 1.82855 18.0172L2.11263 17.7331C1.57005 17.1905 1.13966 16.5464 0.846036 15.8375L0.474873 15.9912ZM1.82855 18.0172C2.40843 18.5971 3.09686 19.0571 3.85452 19.3709L4.00825 18.9997C3.29934 18.7061 2.6552 18.2757 2.11263 17.7331L1.82855 18.0172ZM4.61052 17.5429C3.56532 17.11 2.73584 16.2796 2.30282 15.2342L1.93166 15.3879C2.40539 16.5316 3.31297 17.4403 4.45677 17.9141L4.61052 17.5429ZM21.0206 10.9743C21.0206 12.2123 21.0205 13.0912 20.9727 13.7826L21.3735 13.8103C21.4225 13.1017 21.4223 12.2064 21.4223 10.9743H21.0206ZM20.9727 13.7828C20.9261 14.4655 20.838 14.8929 20.6964 15.2341L21.0675 15.388C21.2329 14.9893 21.3256 14.5127 21.3735 13.8101L20.9727 13.7828ZM22.5232 15.9914C22.7821 15.3678 22.8927 14.7 22.947 13.9176L22.5462 13.8898C22.4933 14.6524 22.3873 15.2711 22.1522 15.8373L22.5232 15.9914ZM22.947 13.9174C23.0001 13.1427 22.9989 12.1855 22.9989 10.9743H22.5972C22.5972 12.1912 22.5981 13.1322 22.5462 13.8899L22.947 13.9174ZM15.9411 19.837C17.2615 19.815 18.2589 19.738 19.1438 19.3708L18.9898 18.9998C18.1824 19.3347 17.2543 19.4133 15.9344 19.4354L15.9411 19.837ZM19.2524 19.1084L18.6491 17.6517L18.2779 17.8054L18.8812 19.2622L19.2524 19.1084ZM18.3864 17.543C17.884 17.7518 17.2274 17.8367 15.9079 17.8598L15.915 18.2615C17.2337 18.2384 17.9603 18.1551 18.5405 17.914L18.3864 17.543ZM15.7106 18.064L15.7369 19.6406L16.1386 19.6339L16.1123 18.0573L15.7106 18.064ZM16.1386 19.6373V19.6362H15.7369V19.6373H16.1386ZM20.6964 15.2342C20.2634 16.2795 19.4329 17.1099 18.3876 17.5429L18.5414 17.9141C19.6851 17.4403 20.5938 16.5316 21.0676 15.3879L20.6964 15.2342ZM18.2789 17.8053L18.8811 19.262L19.2524 19.1086L18.6502 17.6518L18.2789 17.8053ZM19.1436 19.3709C19.9013 19.0571 20.5897 18.5971 21.1696 18.0172L20.8855 17.7331C20.343 18.2757 19.6988 18.7061 18.9899 18.9997L19.1436 19.3709ZM21.1696 18.0172C21.7495 17.4373 22.2095 16.7489 22.5233 15.9912L22.1521 15.8375C21.8585 16.5464 21.4281 17.1905 20.8855 17.7331L21.1696 18.0172ZM13.0757 1.97836C14.8151 1.97836 16.0502 1.97858 17.0106 2.07098L17.049 1.67109C16.0649 1.5764 14.8069 1.57662 13.0757 1.57662V1.97836ZM17.0108 2.071C17.9569 2.16106 18.5332 2.33086 18.984 2.60678L19.1937 2.26413C18.6691 1.94305 18.0241 1.7639 17.0488 1.67107L17.0108 2.071ZM19.2602 2.54034L20.0832 1.19602L19.7405 0.98626L18.9175 2.33058L19.2602 2.54034ZM20.0166 0.91978C19.2032 0.422224 18.2881 0.205191 17.1982 0.10078L17.1599 0.500691C18.2205 0.602289 19.067 0.809888 19.807 1.2625L20.0166 0.91978ZM17.198 0.100762C16.1227 -0.00124922 14.7766 1.26912e-05 13.0757 1.26912e-05V0.401755C14.7844 0.401755 16.1081 0.400915 17.1601 0.500709L17.198 0.100762ZM22.9989 9.92327C22.9989 8.22214 22.9992 6.87731 22.8971 5.80095L22.4972 5.83885C22.597 6.89195 22.5972 8.21474 22.5972 9.92327H22.9989ZM22.8971 5.80094C22.7938 4.71096 22.5768 3.79475 22.0791 2.98221L21.7365 3.19203C22.189 3.93087 22.3966 4.77835 22.4972 5.83886L22.8971 5.80094ZM21.803 2.91577L20.4576 3.73875L20.6673 4.08146L22.0126 3.25847L21.803 2.91577ZM20.3913 4.01524C20.6681 4.4659 20.8379 5.04202 20.928 5.98922L21.3279 5.95119C21.2351 4.97493 21.0559 4.32971 20.7336 3.80498L20.3913 4.01524ZM20.928 5.98925C21.0193 6.9487 21.0206 8.18405 21.0206 9.92327H21.4223C21.4223 8.19187 21.4215 6.93408 21.3279 5.95116L20.928 5.98925ZM18.9829 2.60677C19.5573 2.9584 20.0402 3.44101 20.3923 4.01511L20.7347 3.8051C20.3496 3.17694 19.8211 2.64888 19.1927 2.26414L18.9829 2.60677ZM20.6684 4.08142L22.0127 3.25844L21.8029 2.9158L20.4586 3.73879L20.6684 4.08142ZM22.0791 2.98218C21.5641 2.14159 20.8574 1.43487 20.0168 0.919859L19.8069 1.26242C20.5934 1.7443 21.2547 2.40555 21.7365 3.19206L22.0791 2.98218ZM19.7405 0.986319L18.9175 2.33169L19.2602 2.54133L20.0832 1.19596L19.7405 0.986319ZM19.2308 2.29439L19.2298 2.29334L18.9458 2.57758L18.9469 2.57863L19.2308 2.29439ZM9.92248 1.26912e-05C8.2213 1.26912e-05 6.87659 -0.000189485 5.80035 0.100742L5.83786 0.500729C6.89108 0.401957 8.21398 0.401755 9.92248 0.401755V1.26912e-05ZM5.79995 0.10078C4.71011 0.205183 3.79393 0.4222 2.98141 0.919843L3.19124 1.26244C3.93009 0.809912 4.77761 0.602297 5.83826 0.500691L5.79995 0.10078ZM2.91497 1.19596L3.73796 2.54133L4.08066 2.33169L3.25768 0.986319L2.91497 1.19596ZM4.01444 2.60767C4.4651 2.33087 5.04122 2.16106 5.98842 2.071L5.95039 1.67106C4.97413 1.76389 4.32891 1.94304 3.80418 2.26535L4.01444 2.60767ZM5.98845 2.071C6.9479 1.97962 8.18325 1.97836 9.92248 1.97836V1.57662C8.19107 1.57662 6.93329 1.57745 5.95036 1.67107L5.98845 2.071ZM1.97756 9.92327C1.97756 8.18384 1.97778 6.94873 2.07018 5.98839L1.67029 5.94991C1.5756 6.93405 1.57582 8.19208 1.57582 9.92327H1.97756ZM2.0702 5.98819C2.16026 5.04208 2.33006 4.46578 2.60599 4.01497L2.26333 3.80524C1.94225 4.32983 1.7631 4.97487 1.67027 5.95012L2.0702 5.98819ZM2.53944 3.73873L1.19512 2.91679L0.98556 3.25955L2.32988 4.08148L2.53944 3.73873ZM0.919046 2.98326C0.42142 3.79575 0.20439 4.71085 0.0999824 5.80075L0.499894 5.83906C0.601495 4.77846 0.809098 3.93197 1.26164 3.19308L0.919046 2.98326ZM0.0999428 5.80116C-0.000986218 6.87845 -0.000784655 8.22209 -0.000784655 9.92327H0.400957C0.400957 8.21479 0.401159 6.89292 0.499933 5.83864L0.0999428 5.80116ZM2.98138 0.919859C2.1407 1.43493 1.43402 2.14273 0.919062 2.98323L1.26162 3.19311C1.74356 2.40651 2.40484 1.74424 3.19126 1.26242L2.98138 0.919859ZM0.985619 3.25958L2.33099 4.08152L2.54043 3.73869L1.19506 2.91676L0.985619 3.25958ZM2.60701 4.01502C2.95848 3.44115 3.44072 2.95856 4.01434 2.60668L3.80428 2.26423C3.17664 2.64925 2.64898 3.17728 2.26441 3.8052L2.60701 4.01502ZM4.08063 2.33058L3.25764 0.98626L2.91501 1.19602L3.73799 2.54034L4.08063 2.33058ZM10.6379 19.9011C10.4274 19.5436 10.2348 19.2153 10.0447 18.9553L9.72038 19.1924C9.89609 19.4328 10.0777 19.7414 10.2917 20.105L10.6379 19.9011ZM10.0482 18.9603C9.84395 18.6625 9.57864 18.4115 9.26991 18.2242L9.06151 18.5677C9.32149 18.7254 9.54489 18.9367 9.71688 19.1875L10.0482 18.9603ZM8.27039 19.9317C8.28921 19.943 8.33864 19.9733 8.44619 20.1212L8.77109 19.8849C8.6432 19.709 8.55599 19.6343 8.47601 19.5866L8.27039 19.9317ZM8.44632 20.1213C8.56652 20.2863 8.70491 20.5181 8.93613 20.9084L9.28177 20.7037C9.05473 20.3204 8.90512 20.0688 8.77097 19.8847L8.44632 20.1213ZM9.21131 20.9789L10.5672 20.1759L10.3625 19.8302L9.00659 20.6332L9.21131 20.9789ZM7.05676 19.837C7.52283 19.8455 7.80344 19.8518 8.01519 19.8748L8.05852 19.4754C7.82463 19.45 7.52294 19.4437 7.06407 19.4354L7.05676 19.837ZM8.01468 19.8747C8.20786 19.8962 8.25847 19.9249 8.27271 19.9331L8.47369 19.5853C8.39334 19.5388 8.28209 19.5002 8.05904 19.4755L8.01468 19.8747ZM9.26305 18.2202C8.9437 18.0433 8.59019 17.9368 8.22626 17.9077L8.19431 18.3082C8.50112 18.3327 8.79914 18.4225 9.06836 18.5717L9.26305 18.2202ZM8.23239 17.9083C7.90768 17.8723 7.52043 17.8671 7.09116 17.8598L7.08433 18.2615C7.52113 18.2689 7.88645 18.2742 8.18818 18.3076L8.23239 17.9083ZM7.26129 19.6383V19.6362H6.85954V19.6383H7.26129ZM14.0619 20.9086C14.2934 20.5189 14.4316 20.2863 14.5518 20.1213L14.2272 19.8847C14.093 20.0687 13.9433 20.3217 13.7165 20.7035L14.0619 20.9086ZM14.552 20.1212C14.6595 19.9733 14.709 19.943 14.7278 19.9317L14.5222 19.5866C14.4422 19.6343 14.355 19.709 14.2271 19.8849L14.552 20.1212ZM13.7309 18.2227C13.3943 18.42 13.1543 18.6795 12.9532 18.9557L13.278 19.1921C13.4595 18.9428 13.661 18.7293 13.934 18.5692L13.7309 18.2227ZM12.9531 18.9558C12.7645 19.2153 12.5713 19.5417 12.3593 19.9009L12.7053 20.1051C12.92 19.7412 13.1031 19.4328 13.2781 19.192L12.9531 18.9558ZM12.43 20.1759L13.7869 20.9789L13.9915 20.6332L12.6346 19.8302L12.43 20.1759ZM15.9081 17.8598C15.4788 17.8671 15.0905 17.8723 14.7658 17.9083L14.81 18.3076C15.1117 18.2742 15.4781 18.2689 15.9149 18.2615L15.9081 17.8598ZM14.7654 17.9083C14.424 17.9468 14.0729 18.0242 13.7316 18.2222L13.9333 18.5697C14.2079 18.4103 14.498 18.3427 14.8103 18.3076L14.7654 17.9083ZM14.7255 19.9331C14.7397 19.9249 14.7903 19.8962 14.9835 19.8747L14.9391 19.4755C14.7161 19.5002 14.6048 19.5388 14.5245 19.5853L14.7255 19.9331ZM14.983 19.8748C15.1947 19.8518 15.4769 19.8444 15.942 19.8371L15.9356 19.4354C15.4757 19.4427 15.1735 19.45 14.9396 19.4754L14.983 19.8748ZM16.1396 19.6327L16.1123 18.0561L15.7106 18.0631L15.738 19.6397L16.1396 19.6327ZM15.7106 18.0596V18.0607H16.1123V18.0596H15.7106Z" fill="#BFA274" mask="url(#path-1-outside-1_338_27880)"/>
<path d="M7.29531 10.4488H7.30476M11.4901 10.4488H11.4996M15.6944 10.4488H15.7039" stroke="#BFA274" stroke-width="2" stroke-linecap="round" stroke-linejoin="round"/>
</svg>
