<svg width="21" height="23" viewBox="0 0 21 23" fill="none" xmlns="http://www.w3.org/2000/svg">
<path d="M10.6973 22.9728C9.3528 22.9728 8.00833 22.7974 6.66387 22.4467C5.3194 22.096 4.06262 21.6137 2.89352 21C1.75365 20.3862 0.789142 19.6847 0 18.8956L4.51565 14.2484C5.21711 14.9499 6.05009 15.5052 7.0146 15.9144C8.00833 16.3236 9.04591 16.5281 10.1273 16.5281C10.6242 16.5281 11.0042 16.4697 11.2672 16.3528C11.5595 16.2066 11.7056 16.0167 11.7056 15.7828C11.7056 15.3737 11.4572 15.0668 10.9603 14.8622C10.4927 14.6576 9.87889 14.4676 9.11898 14.2922C8.38829 14.1169 7.59915 13.8977 6.75155 13.6346C5.93318 13.3423 5.14404 12.9624 4.38412 12.4948C3.62421 11.9979 3.01043 11.3257 2.54279 10.4781C2.07515 9.60123 1.84133 8.49059 1.84133 7.14612C1.84133 5.77243 2.22129 4.55949 2.9812 3.5073C3.77035 2.42588 4.86638 1.57828 6.2693 0.964506C7.70144 0.321502 9.3528 0 11.2234 0C13.1231 0 14.9645 0.321502 16.7474 0.964506C18.5302 1.60751 19.9478 2.57202 21 3.85803L16.4405 8.5052C15.7098 7.68683 14.906 7.14612 14.0292 6.88307C13.1524 6.5908 12.4217 6.44466 11.8371 6.44466C11.2818 6.44466 10.8872 6.53234 10.6534 6.70771C10.4488 6.85385 10.3465 7.04382 10.3465 7.27764C10.3465 7.59915 10.5804 7.86219 11.048 8.06679C11.5156 8.27138 12.1148 8.46136 12.8455 8.63672C13.6054 8.81209 14.3945 9.04591 15.2129 9.33818C16.0313 9.63046 16.8058 10.0396 17.5365 10.5657C18.2964 11.0918 18.9102 11.7933 19.3778 12.6701C19.8455 13.5177 20.0793 14.6284 20.0793 16.0021C20.0793 18.1357 19.2317 19.8309 17.5365 21.0876C15.8413 22.3444 13.5616 22.9728 10.6973 22.9728Z" fill="white"/>
</svg>
