<svg width="25" height="19" viewBox="0 0 25 19" fill="none" xmlns="http://www.w3.org/2000/svg">
<path d="M1.70452 18.7543H5.68173V9.09535L0 4.83405V17.0498C0 17.9929 0.764193 18.7543 1.70452 18.7543Z" fill="#4285F4"/>
<path d="M19.3184 18.7543H23.2956C24.2387 18.7543 25.0001 17.9901 25.0001 17.0498V4.83405L19.3184 9.09535" fill="#34A853"/>
<path d="M19.3184 1.70936V9.09561L25.0001 4.83431V2.56162C25.0001 0.453693 22.5939 -0.747995 20.9092 0.516192" fill="#FBBC04"/>
<path d="M5.68164 9.09529V1.70903L12.4997 6.82259L19.3178 1.70903V9.09529L12.4997 14.2088" fill="#EA4335"/>
<path d="M0 2.56162V4.83431L5.68173 9.09561V1.70936L4.09085 0.516192C2.40337 -0.747995 0 0.453693 0 2.56162Z" fill="#C5221F"/>
</svg>
