<svg width="21" height="13" viewBox="0 0 21 13" fill="none" xmlns="http://www.w3.org/2000/svg">
<path d="M20.7327 0.579103C20.6449 0.37437 20.5767 0.145263 20.3612 0C19.9878 0.216432 19.6222 0.427015 19.2527 0.641498C19.3151 0.759463 19.3648 0.841357 19.4038 0.928125C19.6515 1.47213 19.746 2.03856 19.436 2.57379C18.9564 3.39955 18.1852 3.85191 17.2961 4.13756C17.259 4.03812 17.2288 3.97183 17.2103 3.90163C16.9539 2.96766 16.3426 2.35151 15.4778 1.96057C14.655 1.58912 13.7834 1.53745 12.907 1.62324C12.3738 1.66859 11.8516 1.80029 11.3608 2.01321C11.4787 2.35541 11.6006 2.68396 11.7029 3.01835C11.7595 3.20164 11.8628 3.24746 12.0315 3.19384C12.4141 3.0793 12.8069 3.00192 13.2043 2.96278C13.9287 2.87797 14.6121 2.98618 15.2292 3.36933C15.6192 3.61111 15.8863 3.965 15.9244 4.43686C15.8035 4.55385 15.6757 4.52461 15.5578 4.52656C15.0869 4.53436 14.6209 4.57823 14.1451 4.54898C13.5763 4.51717 13.0096 4.4537 12.4478 4.35887C11.1238 4.12976 9.83012 3.76612 8.53348 3.4171C6.7718 2.94231 5.02767 2.39733 3.19189 2.23744C2.50456 2.1686 1.81072 2.20609 1.13481 2.34858C0.741915 2.43535 0.336348 2.54162 0 2.82824C0.207677 3.21639 0.435804 3.59324 0.68342 3.9572C1.11238 3.7476 1.50528 3.58381 1.95862 3.56139C2.72295 3.52531 3.42295 3.72127 4.10149 4.04202C5.209 4.56555 6.16735 5.31234 7.13057 6.05231C8.02555 6.73963 8.88835 7.46984 9.8155 8.11524C10.146 8.34532 10.4755 8.57833 10.847 8.83961C9.81698 9.16019 8.75526 9.36809 7.68042 9.45966C7.75842 9.93737 7.95243 10.3527 8.08794 10.7982H16.4313C16.562 10.3615 16.7443 9.95492 16.8184 9.48208C16.3504 9.40798 15.8951 9.36021 15.4525 9.26077C15.0177 9.1623 14.5751 9.07066 14.151 8.86203C14.1865 8.83086 14.2236 8.80157 14.2621 8.77429C15.4622 8.02067 16.5259 7.13739 17.0816 5.77738C17.106 5.71679 17.1453 5.66338 17.196 5.62212C17.2466 5.58087 17.3069 5.55311 17.3711 5.54145C18.4085 5.22752 19.3424 4.73811 20.1019 3.9377C21.0008 2.99008 21.2494 1.77436 20.7366 0.577153L20.7327 0.579103ZM14.3947 7.04478C13.8789 7.45055 13.321 7.79963 12.7305 8.08599C12.6642 8.12488 12.5885 8.14505 12.5116 8.14437C12.4347 8.14368 12.3594 8.12216 12.2937 8.08209C11.3637 7.58004 10.4762 7.00292 9.64002 6.35648C8.9137 5.80858 8.21078 5.22947 7.49909 4.66207C7.46381 4.62496 7.43184 4.58483 7.40355 4.54216C10.0534 5.2441 12.6467 6.04938 15.4184 5.95092C15.1332 6.36392 14.7886 6.73252 14.3957 7.04478H14.3947Z" fill="#BFA274"/>
<path d="M15.8438 8.03632C15.8866 8.1578 15.9394 8.27552 16.0017 8.38826C17.1677 8.36291 18.3363 8.33789 19.5075 8.31319V8.29564C18.2967 8.20985 17.0848 8.12503 15.8438 8.03729V8.03632Z" fill="#475669"/>
<path d="M16.5254 7.15881C16.5682 7.28029 16.621 7.39801 16.6833 7.51076C17.8493 7.48541 19.0179 7.46039 20.1891 7.43569V7.41814C18.9783 7.33235 17.7665 7.24753 16.5254 7.15979V7.15881Z" fill="#475669"/>
<path d="M17.3047 6.28143C17.3475 6.40291 17.4003 6.52063 17.4626 6.63338C18.6286 6.60803 19.7972 6.58301 20.9684 6.55831V6.54076C19.7576 6.45497 18.5458 6.37015 17.3047 6.28241V6.28143Z" fill="#475669"/>
<path d="M13.987 12.555C14.3909 12.555 14.7182 12.2277 14.7182 11.8238C14.7182 11.42 14.3909 11.0927 13.987 11.0927C13.5832 11.0927 13.2559 11.42 13.2559 11.8238C13.2559 12.2277 13.5832 12.555 13.987 12.555Z" fill="#BFA274"/>
<path d="M10.6706 12.555C11.0745 12.555 11.4018 12.2277 11.4018 11.8238C11.4018 11.42 11.0745 11.0927 10.6706 11.0927C10.2668 11.0927 9.93945 11.42 9.93945 11.8238C9.93945 12.2277 10.2668 12.555 10.6706 12.555Z" fill="#BFA274"/>
</svg>
