<svg width="15" height="18" viewBox="0 0 15 18" fill="none" xmlns="http://www.w3.org/2000/svg">
<path d="M12.6 3.573V1.8H1.8V3.573L7.2 7.4304L12.6 3.5739V3.573ZM8.1 9V16.2L6.3 18V9L0.7542 5.0382C0.521033 4.87176 0.330962 4.65206 0.199785 4.39738C0.0686085 4.14269 0.000115628 3.86038 0 3.5739V1.8C0 1.32261 0.189642 0.864773 0.527208 0.527208C0.864773 0.189642 1.32261 0 1.8 0H12.6C13.0774 0 13.5352 0.189642 13.8728 0.527208C14.2104 0.864773 14.4 1.32261 14.4 1.8V3.573C14.4 3.85963 14.3316 4.14213 14.2004 4.39698C14.0692 4.65183 13.8791 4.87167 13.6458 5.0382L8.1 9Z" fill="white"/>
</svg>
