<svg width="20" height="18" viewBox="0 0 20 18" fill="none" xmlns="http://www.w3.org/2000/svg">
<path d="M9.91503 12.661C11.4315 12.661 12.6608 11.4317 12.6608 9.91526C12.6608 8.39883 11.4315 7.16951 9.91503 7.16951C8.39859 7.16951 7.16928 8.39883 7.16928 9.91526C7.16928 11.4317 8.39859 12.661 9.91503 12.661Z" stroke="#BFA274" stroke-width="1.5"/>
<path d="M7.88154 17.2373H11.9489C14.8054 17.2373 16.2341 17.2373 17.2601 16.5646C17.7028 16.2744 18.0841 15.9 18.3822 15.4626C19.0677 14.4558 19.0678 13.0528 19.0678 10.2484C19.0678 7.44318 19.0677 6.04101 18.3822 5.03423C18.0841 4.59684 17.7028 4.22241 17.2601 3.93227C16.6011 3.49936 15.7756 3.34468 14.5116 3.28976C13.9085 3.28976 13.3895 2.84129 13.2715 2.2601C13.1812 1.83439 12.9468 1.45289 12.6078 1.18006C12.2687 0.907239 11.8459 0.759832 11.4108 0.762753H8.41971C7.51544 0.762753 6.73656 1.3897 6.559 2.2601C6.44093 2.84129 5.92199 3.28976 5.31883 3.28976C4.05579 3.34468 3.23023 3.50027 2.57033 3.93227C2.12792 4.22246 1.74695 4.5969 1.44915 5.03423C0.76271 6.04101 0.76271 7.44318 0.76271 10.2484C0.76271 13.0528 0.76271 14.4549 1.44823 15.4626C1.74478 15.8983 2.12552 16.2726 2.57033 16.5646C3.59633 17.2373 5.02504 17.2373 7.88154 17.2373Z" stroke="#BFA274" stroke-width="1.5"/>
<path d="M16.3224 7.16951H15.4071" stroke="#BFA274" stroke-width="1.5" stroke-linecap="round"/>
</svg>
