<svg width="197" height="32" viewBox="0 0 197 32" fill="none" xmlns="http://www.w3.org/2000/svg">
<rect width="32" height="32" rx="4" fill="#F3F3F8"/>
<rect x="41" width="32" height="32" rx="4" fill="#082431"/>
<rect x="43.75" y="2.75" width="26.5" height="26.5" rx="3.25" fill="#082431" stroke="white" stroke-width="1.5"/>
<rect x="82" width="32" height="32" rx="4" fill="#FF8700"/>
<rect x="123" width="32" height="32" rx="4" fill="#B548C6"/>
<rect x="165" width="32" height="32" rx="4" fill="#22B07D"/>
<path d="M184.766 11.0374L181.113 14.6903L177.46 11.0374C177.355 10.9317 177.181 10.9317 177.076 11.0374L175.922 12.191C175.816 12.2967 175.816 12.4697 175.922 12.5755L179.575 16.2284L175.922 19.8813C175.816 19.987 175.816 20.1601 175.922 20.2658L177.076 21.4193C177.181 21.5251 177.355 21.5251 177.46 21.4193L181.113 17.7664L184.766 21.4193C184.872 21.5251 185.045 21.5251 185.151 21.4193L186.304 20.2658C186.41 20.1601 186.41 19.987 186.304 19.8813L182.651 16.2284L186.304 12.5755C186.41 12.4697 186.41 12.2967 186.304 12.191L185.151 11.0374C185.045 10.9317 184.872 10.9317 184.766 11.0374Z" fill="white"/>
</svg>
