<svg width="24" height="24" viewBox="0 0 24 24" fill="none" xmlns="http://www.w3.org/2000/svg">
<g clip-path="url(#clip0_843_19623)">
<path d="M22.9966 15.0476C22.9757 15.0196 22.9531 14.9934 22.9289 14.9684C22.2312 14.096 20.97 13.9208 20.0905 14.5809C18.823 15.5151 16.6546 17.0871 15.9308 17.6117L12.7691 17.3638L14.7036 16.9404C15.7397 16.7897 16.4826 15.8754 16.4377 14.7962C16.4374 14.7848 16.4366 14.7733 16.4356 14.7622C16.3457 13.6838 15.4696 12.8708 14.3977 12.8708H8.54739C8.07203 12.8708 7.6285 12.9924 7.22903 13.2321C7.213 13.2419 7.1972 13.252 7.18169 13.2629L0.950405 17.6166C0.58089 17.8749 0.490562 18.384 0.748749 18.7532C1.0067 19.123 1.51609 19.2136 1.88533 18.9548L8.0905 14.6193C8.22873 14.5412 8.37841 14.5028 8.54762 14.5028H14.398C14.6151 14.5028 14.7811 14.6574 14.8072 14.8805C14.8091 15.0769 14.7033 15.2952 14.46 15.3256C14.4355 15.3286 14.411 15.3327 14.3868 15.3382L10.9038 16.1001C10.632 16.1596 10.4091 16.3534 10.3125 16.6143C10.2159 16.8756 10.2589 17.1678 10.4268 17.3898L11.352 18.6143C11.4926 18.8007 11.7065 18.918 11.9395 18.9362L16.1027 19.2627C16.2954 19.2766 16.4883 19.2235 16.645 19.1101C16.6735 19.0894 19.5228 17.0271 21.0643 15.891C21.2404 15.7591 21.5204 15.8091 21.6627 15.9996C21.6785 16.0205 21.6954 16.0409 21.713 16.06C21.8227 16.2393 21.7808 16.4693 21.6069 16.5996L16.0851 20.7616C15.9226 20.8832 15.7534 20.9295 15.5599 20.9039L7.50545 19.8971C7.28561 19.8697 7.06464 19.9325 6.89214 20.0713L3.81733 22.5477C3.46605 22.8307 3.41078 23.3447 3.69353 23.6957C3.85464 23.896 4.09108 24 4.32972 24C4.50958 24 4.69052 23.9409 4.84103 23.8198L7.64622 21.5605L15.3505 22.5235C15.9649 22.6054 16.557 22.4478 17.0656 22.0669L22.5883 17.905C23.4886 17.2296 23.6717 15.948 22.9966 15.0476Z" fill="#00C9E4"/>
<path d="M15.7265 2.83008C15.2756 2.83008 14.9102 3.19552 14.9102 3.64641V8.54437C14.9102 8.99527 15.2756 9.3607 15.7265 9.3607C16.1774 9.3607 16.5428 8.99527 16.5428 8.54437V3.64641C16.5428 3.19552 16.1774 2.83008 15.7265 2.83008Z" fill="#00C9E4"/>
<path d="M18.1752 5.27881H13.2773C12.8264 5.27881 12.4609 5.64425 12.4609 6.09514C12.4609 6.54603 12.8264 6.91146 13.2773 6.91146H18.1752C18.6261 6.91146 18.9916 6.54603 18.9916 6.09514C18.9916 5.64425 18.6261 5.27881 18.1752 5.27881Z" fill="#00C9E4"/>
<path d="M15.7278 0C12.3667 0 9.63281 2.73417 9.63281 6.09525C9.63281 9.45633 12.3667 12.1905 15.7278 12.1905C19.0886 12.1905 21.823 9.45638 21.823 6.09525C21.823 2.73412 19.0889 0 15.7278 0ZM15.7278 10.5578C13.2671 10.5578 11.2655 8.55595 11.2655 6.09525C11.2655 3.63455 13.2671 1.63266 15.7278 1.63266C18.1884 1.63266 20.1904 3.63455 20.1904 6.09525C20.1904 8.55595 18.1885 10.5578 15.7278 10.5578Z" fill="#00C9E4"/>
</g>
<defs>
<clipPath id="clip0_843_19623">
<rect width="24" height="24" fill="white"/>
</clipPath>
</defs>
</svg>
